<svg width="48" height="12" viewBox="0 0 48 12" fill="none" xmlns="http://www.w3.org/2000/svg">
<path d="M1 2.51724C1 1.67929 1.68223 1 2.52381 1H7.47619C8.31779 1 9 1.67929 9 2.51724V10.9159C9 11.3426 8.49996 11.5732 8.17541 11.2963L5.32458 8.86322C5.13761 8.70365 4.86239 8.70365 4.67542 8.86322L1.82458 11.2963C1.50004 11.5732 1 11.3426 1 10.9159V2.51724Z" fill="#0C8CFF" stroke="#0C8CFF" stroke-linecap="round" stroke-linejoin="round"/>
<path d="M22.5047 5.68359V6.55273H14.4578V5.68359H22.5047ZM14.8484 4.54102C16.4939 4.43359 17.5633 3.85254 17.7928 3.20312H15.1902V2.34375H21.782V3.20312H19.1551C19.3748 3.85742 20.4588 4.43359 22.1238 4.54102L21.782 5.38086C20.2 5.24902 19.0037 4.7168 18.4715 3.93066C17.9393 4.7168 16.7576 5.24902 15.1902 5.38086L14.8484 4.54102ZM15.4051 7.94922V7.14844H21.4988V9.31641H16.4793V9.96094H21.743V10.791H15.4148V8.54492H20.4344V7.94922H15.4051ZM27.3023 2.97852C27.3023 3.45215 27.2682 3.91602 27.19 4.36523H29.109V2.04102H30.193V10.8594H29.109V7.62695H26.8629V6.74805H29.109V5.23438H26.9898C26.4967 6.87012 25.3736 8.27637 23.3082 9.28711L22.7418 8.42773C24.9293 7.33398 26.0084 5.83496 26.2037 3.83789H23.152V2.97852H27.3023ZM34.3168 3.84766C34.3119 4.79492 35.0297 5.72266 36.4164 6.09375L35.9281 6.92383C34.9076 6.65039 34.1801 6.06445 33.7846 5.3125C33.3939 6.14258 32.6518 6.78711 31.6117 7.08984L31.0941 6.23047C32.4857 5.85449 33.2328 4.88281 33.2328 3.84766V3.81836H31.3871V2.95898H33.2328V2.00195H34.3266V2.95898H36.1625V3.81836H34.3168V3.84766ZM31.9633 10C33.477 9.79492 34.4584 9.13086 34.6684 8.37891H32.3246V7.50977H38.2328V8.37891H35.8988C36.1088 9.11133 37.0951 9.7998 38.6039 10.0098L38.2133 10.8398C36.8314 10.6445 35.7865 10.0537 35.2787 9.25293C34.7709 10.0488 33.7309 10.625 32.3637 10.8203L31.9633 10ZM37.0219 7.09961V2.04102H38.1059V4.0918H39.3363V4.99023H38.1059V7.09961H37.0219ZM46.8586 2.04102V10.8691H45.7648V2.04102H46.8586ZM39.5441 8.4375C41.8586 7.33887 42.923 5.84473 43.1184 3.83789H39.9934V2.97852H44.2219C44.2219 5.60547 43.2014 7.83691 40.1105 9.30664L39.5441 8.4375Z" fill="#0C8CFF"/>
</svg>
