<svg width="22" height="22" viewBox="0 0 22 22" fill="none" xmlns="http://www.w3.org/2000/svg">
<circle cx="10.9697" cy="10.9697" r="10.9697" fill="#DEF0FF"/>
<path d="M7.89258 7.46913C7.89258 6.73434 8.49082 6.13867 9.2288 6.13867H13.5715C14.3095 6.13867 14.9077 6.73434 14.9077 7.46913V14.7004C14.9077 15.1271 14.4077 15.3577 14.0831 15.0807L11.7247 13.068C11.5378 12.9084 11.2625 12.9084 11.0756 13.068L8.71716 15.0807C8.39262 15.3577 7.89258 15.1271 7.89258 14.7004V7.46913Z" stroke="#0C8CFF" stroke-linecap="round" stroke-linejoin="round"/>
<path d="M8 7.33138C8 6.59608 8.59866 6 9.33714 6H13.6829C14.4214 6 15.02 6.59608 15.02 7.33138V14.5684C15.02 14.9951 14.52 15.2257 14.1954 14.9488L11.8346 12.9339C11.6476 12.7743 11.3724 12.7743 11.1854 12.9339L8.82458 14.9488C8.50004 15.2257 8 14.9951 8 14.5684V7.33138Z" fill="#0C8CFF" stroke="#0C8CFF" stroke-linecap="round" stroke-linejoin="round"/>
</svg>
