<svg width="28" height="41" viewBox="0 0 28 41" fill="none" xmlns="http://www.w3.org/2000/svg">
<circle cx="15.5" cy="15.5" r="9.5" fill="white"/>
<path d="M25.7596 22.3601H25.7696C25.7696 22.3601 21.9996 27.8901 18.8296 32.0001C16.0896 35.5501 15.2896 38.5901 15.0596 40.0601C14.9696 40.6001 14.5296 41.0001 13.9996 41.0001C13.4696 41.0001 13.0296 40.6001 12.9396 40.0601C12.7096 38.5901 11.9096 35.5501 9.16965 32.0001C8.74965 31.4501 8.31965 30.8801 7.88965 30.3001L18.2396 18.0001L26.5696 8.12012C27.4896 10.0501 27.9996 12.2101 27.9996 14.5001C27.9996 17.4001 27.1696 20.0901 25.7596 22.3601Z" fill="#0C8CFF"/>
<path d="M18.2404 18L7.89043 30.3C5.07043 26.52 2.23043 22.36 2.23043 22.36H2.24043C1.94043 21.88 1.67043 21.39 1.44043 20.88L9.76043 11C8.97043 11.95 8.50043 13.17 8.50043 14.5C8.50043 17.54 10.9604 20 14.0004 20C15.7104 20 17.2404 19.22 18.2404 18Z" fill="#0C8CFF"/>
<path d="M18.3995 0.74L9.82953 10.92L3.26953 5.2C5.82953 2.02 9.68953 0 13.9995 0C15.5395 0 17.0195 0.26 18.3995 0.74Z" fill="#0C8CFF"/>
<path d="M9.83 10.9202L9.76 11.0002L1.44 20.8802C0.52 18.9502 0 16.7902 0 14.5002C0 10.9602 1.23 7.7102 3.27 5.2002L9.83 10.9202Z" fill="#0C8CFF"/>
<path d="M18.2398 18.0002C19.0298 17.0502 19.4998 15.8302 19.4998 14.5002C19.4998 11.4602 17.0398 9.00023 13.9998 9.00023C12.2898 9.00023 10.7598 9.78023 9.75977 11.0002L18.3998 0.740234C21.9898 1.96023 24.9298 4.65023 26.5698 8.12023L18.2398 18.0002Z" fill="#0C8CFF"/>
</svg>
