<svg width="64" height="65" viewBox="0 0 64 65" fill="none" xmlns="http://www.w3.org/2000/svg">
<g filter="url(#filter0_d_582_7395)">
<circle cx="28.5" cy="28.5" r="20.5" fill="white"/>
</g>
<circle cx="29" cy="29" r="9.25" stroke="#363B48" stroke-width="1.5"/>
<path d="M29.75 33.2861C29.75 32.8719 29.4142 32.5361 29 32.5361C28.5858 32.5361 28.25 32.8719 28.25 33.2861H29H29.75ZM29 33.2861H28.25V37.5718H29H29.75V33.2861H29Z" fill="#363B48"/>
<path d="M28.25 24.7139C28.25 25.1281 28.5858 25.4639 29 25.4639C29.4142 25.4639 29.75 25.1281 29.75 24.7139L29 24.7139L28.25 24.7139ZM29 24.7139L29.75 24.7139L29.75 20.4282L29 20.4282L28.25 20.4282L28.25 24.7139L29 24.7139Z" fill="#363B48"/>
<path d="M33.2861 28.25C32.8719 28.25 32.5361 28.5858 32.5361 29C32.5361 29.4142 32.8719 29.75 33.2861 29.75L33.2861 29L33.2861 28.25ZM33.2861 29L33.2861 29.75L37.5718 29.75L37.5718 29L37.5718 28.25L33.2861 28.25L33.2861 29Z" fill="#363B48"/>
<path d="M24.7139 29.75C25.1281 29.75 25.4639 29.4142 25.4639 29C25.4639 28.5858 25.1281 28.25 24.7139 28.25L24.7139 29L24.7139 29.75ZM24.7139 29L24.7139 28.25L20.4282 28.25L20.4282 29L20.4282 29.75L24.7139 29.75L24.7139 29Z" fill="#363B48"/>
<defs>
<filter id="filter0_d_582_7395" x="0" y="0" width="65" height="65" filterUnits="userSpaceOnUse" color-interpolation-filters="sRGB">
<feFlood flood-opacity="0" result="BackgroundImageFix"/>
<feColorMatrix in="SourceAlpha" type="matrix" values="0 0 0 0 0 0 0 0 0 0 0 0 0 0 0 0 0 0 127 0" result="hardAlpha"/>
<feMorphology radius="2" operator="dilate" in="SourceAlpha" result="effect1_dropShadow_582_7395"/>
<feOffset dx="4" dy="4"/>
<feGaussianBlur stdDeviation="5"/>
<feComposite in2="hardAlpha" operator="out"/>
<feColorMatrix type="matrix" values="0 0 0 0 0.617188 0 0 0 0 0.617188 0 0 0 0 0.617188 0 0 0 0.1 0"/>
<feBlend mode="normal" in2="BackgroundImageFix" result="effect1_dropShadow_582_7395"/>
<feBlend mode="normal" in="SourceGraphic" in2="effect1_dropShadow_582_7395" result="shape"/>
</filter>
</defs>
</svg>
