<svg width="12" height="12" viewBox="0 0 12 12" fill="none" xmlns="http://www.w3.org/2000/svg">
<path d="M11.9303 10.0279L11.3671 11.0983C11.26 11.3023 11.1034 11.4767 10.9103 11.6023C9.24988 12.6818 5.94142 11.5052 3.2181 8.78172C0.494785 6.05846 -0.681823 2.75006 0.397721 1.08968C0.523273 0.896569 0.697735 0.740262 0.901693 0.632865L1.97216 0.0696578C2.22579 -0.0637068 2.53815 -0.00118425 2.72093 0.219661L4.38614 2.23223C4.5853 2.47299 4.56867 2.82594 4.34782 3.04679L3.70569 3.68891C3.57786 3.81672 3.54358 4.01059 3.62022 4.17446C3.82821 4.61918 4.34151 5.5429 5.39912 6.60074C6.45699 7.65858 7.38072 8.17162 7.82545 8.37986C7.98907 8.4565 8.1832 8.42196 8.31102 8.2944L8.95315 7.65228C9.174 7.43143 9.52695 7.41479 9.76772 7.61396L11.7803 9.27887C12.0012 9.46165 12.0637 9.77426 11.9303 10.0279Z" fill="#484848"/>
</svg>
