<svg width="29" height="25" viewBox="0 0 29 25" fill="none" xmlns="http://www.w3.org/2000/svg">
<path d="M2.176 2.99641C5.17102 -0.0663987 10.0989 -0.0663783 13.094 2.99641L14.0549 3.97786L15.0158 2.99641L15.302 2.71809C18.3168 -0.063593 23.0324 0.0293338 25.9338 2.99641L26.1975 3.27962C28.8327 6.25826 28.7445 10.7975 25.9338 13.6722L15.5764 24.2659C14.7419 25.1194 13.3679 25.1194 12.5334 24.2659L2.176 13.6722C-0.725301 10.7048 -0.725366 5.96372 2.176 2.99641ZM12.0217 4.04524C9.61503 1.58398 5.65494 1.58397 3.24827 4.04524C0.916969 6.42956 0.917118 10.239 3.24827 12.6234L13.6067 23.2171C13.8528 23.4688 14.257 23.4688 14.5031 23.2171L24.8615 12.6234C27.1199 10.3135 27.1907 6.66621 25.0735 4.27278L24.8615 4.04524C22.53 1.66079 18.7402 1.58598 16.3176 3.82161L16.0881 4.04524L14.591 5.57552C14.4499 5.71983 14.2567 5.8011 14.0549 5.8011C13.8531 5.80109 13.6599 5.71982 13.5188 5.57552L12.0217 4.04524Z" fill="#B2B2B2"/>
</svg>
