<svg width="29" height="25" viewBox="0 0 29 25" fill="none" xmlns="http://www.w3.org/2000/svg">
<path d="M9 1.5L14 5L15.5 4.5L16 3.5L18 2.5L19.5 2L21 1.5L23 2.5L25.5 4L27 8.5L26 11.5L16 23L13.5 24L2 12L1 9L2 4.5L5 2.5L9 1.5Z" fill="#363B48" stroke="#363B48"/>
<mask id="path-2-inside-1_258_666" fill="white">
<path d="M2.17578 2.99609C5.17071 -0.0667167 10.0987 -0.0664671 13.0938 2.99609L14.0547 3.97754L15.0156 2.99609L15.3018 2.71777C18.3165 -0.0639088 23.0321 0.029241 25.9336 2.99609L26.1973 3.2793C28.8325 6.25797 28.7444 10.7972 25.9336 13.6719L15.5762 24.2656C14.7417 25.119 13.3677 25.1191 12.5332 24.2656L2.17578 13.6719C-0.725242 10.7045 -0.725426 5.96332 2.17578 2.99609ZM12.0215 4.04492C9.61475 1.58389 5.65463 1.58365 3.24805 4.04492C0.916908 6.42916 0.917177 10.2386 3.24805 12.623L13.6064 23.2168C13.8525 23.4685 14.2568 23.4684 14.5029 23.2168L24.8613 12.623C27.1197 10.3132 27.1905 6.66592 25.0732 4.27246L24.8613 4.04492C22.5297 1.6607 18.7399 1.58566 16.3174 3.82129L16.0879 4.04492L14.5908 5.5752C14.4497 5.71946 14.2565 5.80078 14.0547 5.80078C13.853 5.80066 13.6596 5.7194 13.5186 5.5752L12.0215 4.04492Z"/>
</mask>
<path d="M2.17578 2.99609C5.17071 -0.0667167 10.0987 -0.0664671 13.0938 2.99609L14.0547 3.97754L15.0156 2.99609L15.3018 2.71777C18.3165 -0.0639088 23.0321 0.029241 25.9336 2.99609L26.1973 3.2793C28.8325 6.25797 28.7444 10.7972 25.9336 13.6719L15.5762 24.2656C14.7417 25.119 13.3677 25.1191 12.5332 24.2656L2.17578 13.6719C-0.725242 10.7045 -0.725426 5.96332 2.17578 2.99609ZM12.0215 4.04492C9.61475 1.58389 5.65463 1.58365 3.24805 4.04492C0.916908 6.42916 0.917177 10.2386 3.24805 12.623L13.6064 23.2168C13.8525 23.4685 14.2568 23.4684 14.5029 23.2168L24.8613 12.623C27.1197 10.3132 27.1905 6.66592 25.0732 4.27246L24.8613 4.04492C22.5297 1.6607 18.7399 1.58566 16.3174 3.82129L16.0879 4.04492L14.5908 5.5752C14.4497 5.71946 14.2565 5.80078 14.0547 5.80078C13.853 5.80066 13.6596 5.7194 13.5186 5.5752L12.0215 4.04492Z" fill="#363B48"/>
<path d="M2.17578 2.99609L1.4608 2.29695L1.46077 2.29699L2.17578 2.99609ZM13.0938 2.99609L12.3788 3.69528L12.3792 3.6957L13.0938 2.99609ZM14.0547 3.97754L13.3402 4.67714L14.0547 5.40692L14.7692 4.67714L14.0547 3.97754ZM15.0156 2.99609L14.3184 2.27927L14.3096 2.28777L14.3011 2.29649L15.0156 2.99609ZM15.3018 2.71777L14.6236 1.98283L14.6139 1.99176L14.6045 2.00095L15.3018 2.71777ZM25.9336 2.99609L26.6655 2.31468L26.6571 2.30569L26.6485 2.29691L25.9336 2.99609ZM26.1973 3.2793L26.9462 2.61669L26.9378 2.60718L26.9292 2.59788L26.1973 3.2793ZM25.9336 13.6719L25.2186 12.9728L25.2186 12.9728L25.9336 13.6719ZM15.5762 24.2656L16.2911 24.9648L16.2912 24.9647L15.5762 24.2656ZM12.5332 24.2656L11.8182 24.9647L11.8182 24.9647L12.5332 24.2656ZM2.17578 13.6719L1.46073 14.3709L1.46074 14.371L2.17578 13.6719ZM12.0215 4.04492L11.3065 4.7441L11.3067 4.74423L12.0215 4.04492ZM3.24805 4.04492L2.53304 3.3458L2.53302 3.34582L3.24805 4.04492ZM3.24805 12.623L2.53296 13.3221L2.53304 13.3222L3.24805 12.623ZM13.6064 23.2168L14.3215 22.5177L14.3215 22.5177L13.6064 23.2168ZM14.5029 23.2168L15.2178 23.916L15.2179 23.9159L14.5029 23.2168ZM24.8613 12.623L25.5763 13.3222L25.5764 13.3221L24.8613 12.623ZM25.0732 4.27246L25.8222 3.60988L25.8138 3.6003L25.805 3.59093L25.0732 4.27246ZM24.8613 4.04492L25.5931 3.36339L25.5848 3.35446L25.5763 3.34575L24.8613 4.04492ZM16.3174 3.82129L15.6392 3.08641L15.6292 3.09562L15.6195 3.1051L16.3174 3.82129ZM16.0879 4.04492L15.39 3.32873L15.3814 3.33707L15.3731 3.34561L16.0879 4.04492ZM14.5908 5.5752L13.876 4.87589L13.8759 4.87598L14.5908 5.5752ZM14.0547 5.80078L14.0541 6.80078H14.0547V5.80078ZM13.5186 5.5752L14.2336 4.87608L14.2334 4.87589L13.5186 5.5752ZM2.17578 2.99609L2.89077 3.69523C5.49339 1.03362 9.77593 1.03376 12.3788 3.69528L13.0938 2.99609L13.8087 2.29691C10.4214 -1.16669 4.84803 -1.16705 1.4608 2.29695L2.17578 2.99609ZM13.0938 2.99609L12.3792 3.6957L13.3402 4.67714L14.0547 3.97754L14.7692 3.27794L13.8083 2.29649L13.0938 2.99609ZM14.0547 3.97754L14.7692 4.67714L15.7302 3.6957L15.0156 2.99609L14.3011 2.29649L13.3402 3.27794L14.0547 3.97754ZM15.0156 2.99609L15.7129 3.71292L15.999 3.4346L15.3018 2.71777L14.6045 2.00095L14.3184 2.27927L15.0156 2.99609ZM15.3018 2.71777L15.9799 3.45271C18.599 1.03604 22.6973 1.11713 25.2187 3.69528L25.9336 2.99609L26.6485 2.29691C23.3669 -1.05865 18.0339 -1.16386 14.6236 1.98283L15.3018 2.71777ZM25.9336 2.99609L25.2017 3.67751L25.4654 3.96072L26.1973 3.2793L26.9292 2.59788L26.6655 2.31468L25.9336 2.99609ZM26.1973 3.2793L25.4483 3.9419C27.7378 6.52982 27.6611 10.4747 25.2186 12.9728L25.9336 13.6719L26.6486 14.371C29.8276 11.1197 29.9271 5.98611 26.9462 2.61669L26.1973 3.2793ZM25.9336 13.6719L25.2186 12.9728L14.8611 23.5665L15.5762 24.2656L16.2912 24.9647L26.6486 14.371L25.9336 13.6719ZM15.5762 24.2656L14.8612 23.5665C14.4189 24.0188 13.6904 24.0187 13.2482 23.5665L12.5332 24.2656L11.8182 24.9647C13.045 26.2194 15.0644 26.2193 16.2911 24.9648L15.5762 24.2656ZM12.5332 24.2656L13.2482 23.5665L2.89082 12.9728L2.17578 13.6719L1.46074 14.371L11.8182 24.9647L12.5332 24.2656ZM2.17578 13.6719L2.89083 12.9728C0.369706 10.394 0.369603 6.27377 2.8908 3.6952L2.17578 2.99609L1.46077 2.29699C-1.82046 5.65287 -1.82019 11.015 1.46073 14.3709L2.17578 13.6719ZM12.0215 4.04492L12.7364 3.34575C9.93751 0.48367 5.33194 0.483295 2.53304 3.3458L3.24805 4.04492L3.96305 4.74404C5.97732 2.684 9.292 2.6841 11.3065 4.7441L12.0215 4.04492ZM3.24805 4.04492L2.53302 3.34582C-0.178147 6.11874 -0.177731 10.5491 2.53296 13.3221L3.24805 12.623L3.96313 11.924C2.01208 9.92816 2.01196 6.73957 3.96307 4.74402L3.24805 4.04492ZM3.24805 12.623L2.53304 13.3222L12.8914 23.9159L13.6064 23.2168L14.3215 22.5177L3.96305 11.9239L3.24805 12.623ZM13.6064 23.2168L12.8914 23.9159C13.5299 24.5689 14.5796 24.5685 15.2178 23.916L14.5029 23.2168L13.7881 22.5175C13.934 22.3683 14.1751 22.368 14.3215 22.5177L13.6064 23.2168ZM14.5029 23.2168L15.2179 23.9159L25.5763 13.3222L24.8613 12.623L24.1463 11.9239L13.7879 22.5177L14.5029 23.2168ZM24.8613 12.623L25.5764 13.3221C28.203 10.6356 28.2852 6.39409 25.8222 3.60988L25.0732 4.27246L24.3242 4.93504C26.0959 6.93775 26.0365 9.9907 24.1463 11.924L24.8613 12.623ZM25.0732 4.27246L25.805 3.59093L25.5931 3.36339L24.8613 4.04492L24.1295 4.72646L24.3415 4.954L25.0732 4.27246ZM24.8613 4.04492L25.5763 3.34575C22.8646 0.572843 18.4573 0.485647 15.6392 3.08641L16.3174 3.82129L16.9956 4.55617C19.0224 2.68567 22.1949 2.74855 24.1464 4.7441L24.8613 4.04492ZM16.3174 3.82129L15.6195 3.1051L15.39 3.32873L16.0879 4.04492L16.7858 4.76111L17.0153 4.53748L16.3174 3.82129ZM16.0879 4.04492L15.3731 3.34561L13.876 4.87589L14.5908 5.5752L15.3056 6.2745L16.8027 4.74423L16.0879 4.04492ZM14.5908 5.5752L13.8759 4.87598C13.9229 4.82794 13.9874 4.80078 14.0547 4.80078V5.80078V6.80078C14.5256 6.80078 14.9765 6.61098 15.3057 6.27441L14.5908 5.5752ZM14.0547 5.80078L14.0553 4.80078C14.1218 4.80082 14.186 4.82748 14.2336 4.87608L13.5186 5.5752L12.8035 6.27431C13.1331 6.61131 13.5843 6.80049 14.0541 6.80078L14.0547 5.80078ZM13.5186 5.5752L14.2334 4.87589L12.7363 3.34561L12.0215 4.04492L11.3067 4.74423L12.8037 6.2745L13.5186 5.5752Z" fill="#363B48" mask="url(#path-2-inside-1_258_666)"/>
</svg>
