<svg width="366" height="140" viewBox="0 0 366 140" fill="none" xmlns="http://www.w3.org/2000/svg">
<g filter="url(#filter0_d_254_1546)">
<rect x="6" y="6" width="346" height="120" rx="20" fill="white"/>
</g>
<path d="M48.4121 54.2109V56.4023H40.8066V62.9766H38.0996V56.4023H30.5801V54.2109H48.4121ZM31.4609 50.9238C35.4141 50.4404 37.6055 48.5283 37.8955 46.6055H32.1914V44.457H46.8223V46.6055H41.1182C41.3975 48.5283 43.5566 50.4404 47.5742 50.9238L46.5859 53.0723C43.1484 52.6104 40.6885 51.1494 39.5068 49.1406C38.3145 51.1494 35.876 52.6104 32.4707 53.0723L31.4609 50.9238ZM65.6323 43.4473V57.8633H62.9037V53.0938H59.2944V54.7695H49.9916V44.7148H52.7416V47.7227H56.5873V44.7148H59.2944V46.7129H62.9037V43.4473H65.6323ZM52.6127 62.6328V56.4238H55.3842V60.4414H66.0405V62.6328H52.6127ZM52.7416 52.6211H56.5873V49.8066H52.7416V52.6211ZM59.2944 50.9023H62.9037V48.9258H59.2944V50.9023ZM79.5765 46.7773C79.5657 49.2803 80.9837 51.708 84.1527 52.7285L82.7132 54.877C80.5755 54.1572 79.0931 52.7607 78.2445 50.9775C77.3743 52.9326 75.8167 54.4688 73.5609 55.2422L72.0355 53.0723C75.3763 52.041 76.805 49.4199 76.8265 46.7559V44.6289H79.5765V46.7773ZM75.1722 62.6328V56.3379H77.9652V60.4414H88.5999V62.6328H75.1722ZM85.1195 57.7559V43.4258H87.8695V49.0762H90.512V51.3965H87.8695V57.7559H85.1195ZM107.99 43.4258V62.9766H105.369V53.1797H103.715V62.0742H101.115V56.4775L99.5681 58.5293C97.7527 57.5732 96.5818 55.9512 95.8836 53.9639C95.239 56.252 94.0896 58.1211 92.2205 59.2383L90.5232 57.1328C93.4988 55.457 94.4871 51.998 94.4978 48.2598V47.6367H91.1892V45.4453H100.148V47.6367H97.1619V48.2598C97.1619 51.665 98.1716 54.9092 101.115 56.4346V43.7051H103.715V50.9453H105.369V43.4258H107.99ZM120.473 44.7363C123.578 44.7256 125.877 46.7236 125.887 49.5273C125.877 52.3418 123.578 54.3291 120.473 54.3398C117.39 54.3291 115.027 52.3418 115.038 49.5273C115.027 46.7236 117.39 44.7256 120.473 44.7363ZM114.221 56.7891C117.713 56.7998 122.547 56.7568 126.725 56.166L126.94 58.1426C122.6 58.9912 117.96 59.0234 114.544 59.0234L114.221 56.7891ZM117.766 49.5273C117.756 51.0742 118.926 51.9658 120.473 51.9551C122.031 51.9658 123.213 51.0742 123.223 49.5273C123.213 48.002 122.031 47.0996 120.473 47.0996C118.926 47.0996 117.756 48.002 117.766 49.5273ZM127.842 63.0195V43.4258H130.571V63.0195H127.842ZM150.606 58.5508V60.8066H132.709V58.5508H137.285V55.5645H134.772V48.9902H145.836V46.8848H134.75V44.6934H148.543V51.1816H137.522V53.3516H148.994V55.5645H146.223V58.5508H150.606ZM139.949 58.5508H143.537V55.5645H139.949V58.5508ZM167.718 43.4258V62.9766H164.947V43.4258H167.718ZM151.347 57.4336C156.396 55.0488 158.62 51.9551 159.06 47.6152H152.4V45.4668H161.853C161.842 51.3965 159.769 56.3271 152.787 59.625L151.347 57.4336ZM180.813 44.8438V46.0684C180.813 47.4219 180.813 49.377 180.362 51.8047L177.677 51.5469C178.031 49.6777 178.117 48.249 178.139 47.0781H170.759V44.8438H180.813ZM169.599 53.2227C170.694 53.2227 171.93 53.2227 173.229 53.1904V49.3555H175.958V53.1045C177.913 53.0186 179.9 52.8682 181.737 52.5996L181.888 54.5762C177.816 55.3281 173.24 55.4033 169.835 55.4141L169.599 53.2227ZM172.477 62.6328V56.7461H175.227V60.4414H186.206V62.6328H172.477ZM182.79 58.0566V43.4258H185.604V49.377H187.968V51.6758H185.604V58.0566H182.79ZM203.201 44.5645C203.201 49.6777 199.968 53.2227 194.242 54.8125L193.168 52.6855C197.389 51.5361 199.817 49.3877 200.268 46.7559H194.221V44.5645H203.201ZM196.584 62.7402V55.1562H209.539V62.7402H196.584ZM199.269 60.5918H206.832V57.3047H199.269V60.5918ZM203.33 50.3223V48.0879H206.81V43.4473H209.539V54.3828H206.81V50.3223H203.33ZM217.886 46.8203C217.886 49.001 218.96 51.1172 221.56 52.1484L220.077 54.2539C218.423 53.5879 217.274 52.3955 216.575 50.9238C215.866 52.5996 214.631 54.0068 212.816 54.7695L211.355 52.6426C214.116 51.4609 215.222 49.0332 215.222 46.8203V44.5645H217.886V46.8203ZM214.921 58.3359V56.1445H228.435V62.9766H225.706V58.3359H214.921ZM221.646 55.1777V43.748H224.202V48.1953H225.835V43.4473H228.435V55.2852H225.835V50.4297H224.202V55.1777H221.646Z" fill="#363B48"/>
<path d="M40.1562 77.7041V89.0791H39.001V83.252H37.541V88.4951H36.4111V77.9326H37.541V82.2617H39.001V77.7041H40.1562ZM30.9521 86.1846V79.0498H32.1582V85.1245C33.2056 85.1118 34.3545 85.0293 35.6494 84.7754L35.7764 85.8291C34.2148 86.1084 32.9136 86.1909 31.6885 86.1846H30.9521ZM48.0405 78.2246C49.7544 78.2183 50.9922 79.1768 50.9986 80.5859C50.9922 81.9824 49.7544 82.9473 48.0405 82.9346C46.333 82.9473 45.1016 81.9824 45.1079 80.5859C45.1016 79.1768 46.333 78.2183 48.0405 78.2246ZM44.2954 83.8232C46.3965 83.8232 49.2974 83.7788 51.7857 83.4043L51.8745 84.3057C50.8335 84.5024 49.7608 84.623 48.7134 84.6929V88.7236H47.5073V84.7627C46.4029 84.8135 45.3618 84.8198 44.4605 84.8262L44.2954 83.8232ZM46.2759 80.5859C46.2632 81.4111 47.0059 81.957 48.0405 81.9443C49.1006 81.957 49.8433 81.4111 49.8433 80.5859C49.8433 79.7544 49.1006 79.1958 48.0405 79.2021C47.0059 79.1958 46.2632 79.7544 46.2759 80.5859ZM52.5728 89.0791V77.7168H53.7661V89.0791H52.5728ZM64.7034 77.7041V89.0791H63.4973V77.7041H64.7034ZM55.4485 85.9688C57.2068 85.1816 58.3748 83.2646 58.3811 81.3604V80.6113H55.7913V79.6465H58.3684V77.9326H59.5618V79.6465H62.1136V80.6113H59.5618V81.3604C59.5681 83.1758 60.7615 85.0293 62.5325 85.7783L61.8723 86.7051C60.5584 86.1338 59.5174 84.9468 58.9905 83.5122C58.4763 85.0356 57.4417 86.2988 56.1214 86.8955L55.4485 85.9688ZM78.6307 77.7041V89.0791H77.4119V77.7041H78.6307ZM69.2869 86.0322C72.3084 84.5913 73.7874 82.541 74.0223 79.8877H69.8328V78.9229H75.241C75.241 82.2554 73.8255 85.1372 69.9217 87.0098L69.2869 86.0322ZM89.0855 77.7168V81.0684H90.7359V82.084H89.0855V86.0703H87.8795V77.7168H89.0855ZM80.5923 84.1914V78.5293H81.773V80.3447H84.7564V78.5293H85.9498V84.1914H80.5923ZM81.773 83.2266H84.7564V81.2969H81.773V83.2266ZM81.8746 88.8379V85.2451H83.0806V87.8604H89.5679V88.8379H81.8746ZM95.7891 78.4023V80.1289H98.6329V78.4023H99.8262V79.5068H102.315V77.7041H103.521V84.5723H102.315V82.8203H99.8262V83.7852H94.5831V78.4023H95.7891ZM95.7891 82.8203H98.6329V81.0811H95.7891V82.8203ZM95.8653 86.9336C95.859 85.5625 97.3189 84.7817 99.712 84.7754C102.092 84.7817 103.552 85.5625 103.559 86.9336C103.552 88.2793 102.092 89.0601 99.712 89.0537C97.3189 89.0601 95.859 88.2793 95.8653 86.9336ZM97.0587 86.9336C97.0523 87.689 98.0426 88.1206 99.712 88.127C101.369 88.1206 102.359 87.689 102.365 86.9336C102.359 86.1465 101.369 85.7148 99.712 85.7021C98.0426 85.7148 97.0523 86.1465 97.0587 86.9336ZM99.8262 81.8301H102.315V80.4717H99.8262V81.8301ZM114.471 77.7168V86.3369H113.264V85.2451H110.979V84.3945H113.264V77.7168H114.471ZM104.962 82.9092C107.063 82.8901 109.9 82.8711 112.325 82.5664L112.401 83.4297C111.43 83.5947 110.408 83.6963 109.405 83.7661V85.9814H108.199V83.8296C107.095 83.874 106.035 83.874 105.114 83.874L104.962 82.9092ZM105.85 80.1543C105.844 78.9482 106.993 78.1484 108.681 78.1484C110.345 78.1484 111.5 78.9482 111.5 80.1543C111.5 81.3667 110.345 82.1348 108.681 82.1348C106.999 82.1348 105.844 81.3667 105.85 80.1543ZM106.536 88.8379V85.499H107.729V87.8604H114.75V88.8379H106.536ZM106.993 80.1543C106.987 80.8271 107.672 81.2461 108.681 81.2461C109.653 81.2461 110.351 80.8271 110.357 80.1543C110.351 79.4751 109.653 79.0371 108.681 79.0498C107.672 79.0371 106.987 79.4751 106.993 80.1543ZM122.888 80.0527C122.888 81.3477 123.916 82.5664 125.656 83.0488L125.11 83.9756C123.783 83.6011 122.812 82.8013 122.304 81.7793C121.803 82.9092 120.806 83.7788 119.46 84.1914L118.876 83.2393C120.616 82.7441 121.695 81.4683 121.695 80.0527V79.9258H119.219V78.9609H121.695V77.6533H122.901V78.9609H125.364V79.9258H122.888V80.0527ZM120.006 88.1016C121.917 87.8286 123.364 86.8955 123.58 85.8037H120.463V84.8389H128.017V85.8037H124.907C125.116 86.8701 126.582 87.8286 128.487 88.1143L128.042 89.041C126.309 88.7744 124.894 87.981 124.234 86.9019C123.58 87.981 122.171 88.7554 120.451 89.0283L120.006 88.1016ZM126.633 84.2676V77.7041H127.839V80.4336H129.49V81.4365H127.839V84.2676H126.633ZM139.335 77.7041V89.0791H138.116V77.7041H139.335ZM129.991 86.0322C133.013 84.5913 134.492 82.541 134.727 79.8877H130.537V78.9229H135.945C135.945 82.2554 134.53 85.1372 130.626 87.0098L129.991 86.0322Z" fill="#0C8CFF"/>
<rect x="247.589" y="56.7148" width="76.8211" height="41.4316" rx="6" fill="#A5D0FE"/>
<path d="M247.589 59.8516C247.589 57.6424 249.38 55.8516 251.589 55.8516H320.41C322.62 55.8516 324.41 57.6424 324.41 59.8516V63.62H247.589V59.8516Z" fill="#6CAEFB"/>
<path d="M263.989 44.5898C263.989 41.2761 266.676 38.5898 269.989 38.5898H302.01C305.324 38.5898 308.01 41.2761 308.01 44.5898V98.1477H263.989V44.5898Z" fill="#E6F3FF"/>
<path d="M263.989 40C263.989 37.7909 265.78 36 267.989 36H304.01C306.219 36 308.01 37.7909 308.01 40V48.0842H263.989V40Z" fill="#3095FE"/>
<path d="M298.516 59.6211C298.516 61.8302 296.725 63.6211 294.516 63.6211L277.484 63.6211C275.275 63.6211 273.484 61.8302 273.484 59.6211L273.484 44.6316L298.516 44.6316L298.516 59.6211Z" fill="#3095FE"/>
<path d="M245 93.7891C245 90.4754 247.686 87.7891 251 87.7891H251.947C255.261 87.7891 257.947 90.4754 257.947 93.7891V98.147H245V93.7891Z" fill="#A0D93F"/>
<path d="M308.011 97.2838C308.011 92.04 312.262 87.7891 317.505 87.7891C322.749 87.7891 327 92.04 327 97.2838V98.147H308.011V97.2838Z" fill="#A0D93F"/>
<path d="M278.663 78.8418C278.663 76.6327 280.454 74.8418 282.663 74.8418H288.474C290.683 74.8418 292.474 76.6327 292.474 78.8418V98.1471H278.663V78.8418Z" fill="#8CC2FE"/>
<path d="M277.8 76.8418C277.8 75.7372 278.695 74.8418 279.8 74.8418H285.568V98.1471H277.8V76.8418Z" fill="#429CFD"/>
<path d="M287.295 74.8418H293.063C294.168 74.8418 295.063 75.7372 295.063 76.8418V98.1471H287.295V74.8418Z" fill="#429CFD"/>
<rect x="283.842" y="44.6309" width="4.31579" height="11.2211" rx="1" fill="#EBF0FE"/>
<rect x="291.61" y="48.084" width="4.31579" height="11.2211" rx="1" transform="rotate(90 291.61 48.084)" fill="#EBF0FE"/>
<rect x="254.495" y="69.6621" width="3.45263" height="10.3579" rx="1.72632" fill="#6CAEFB"/>
<rect x="314.053" y="69.6621" width="3.45263" height="10.3579" rx="1.72632" fill="#6CAEFB"/>
<defs>
<filter id="filter0_d_254_1546" x="0" y="0" width="366" height="140" filterUnits="userSpaceOnUse" color-interpolation-filters="sRGB">
<feFlood flood-opacity="0" result="BackgroundImageFix"/>
<feColorMatrix in="SourceAlpha" type="matrix" values="0 0 0 0 0 0 0 0 0 0 0 0 0 0 0 0 0 0 127 0" result="hardAlpha"/>
<feOffset dx="4" dy="4"/>
<feGaussianBlur stdDeviation="5"/>
<feComposite in2="hardAlpha" operator="out"/>
<feColorMatrix type="matrix" values="0 0 0 0 0.641989 0 0 0 0 0.657274 0 0 0 0 0.773006 0 0 0 0.12 0"/>
<feBlend mode="normal" in2="BackgroundImageFix" result="effect1_dropShadow_254_1546"/>
<feBlend mode="normal" in="SourceGraphic" in2="effect1_dropShadow_254_1546" result="shape"/>
</filter>
</defs>
</svg>
