<svg width="25" height="26" viewBox="0 0 25 26" fill="none" xmlns="http://www.w3.org/2000/svg">
<mask id="path-1-inside-1_258_283" fill="white">
<path d="M11.9424 0.169922C12.2796 -0.0566734 12.7204 -0.0566735 13.0576 0.169922L24.5576 7.90332C24.8338 8.08902 24.9998 8.39965 25 8.73242V25C25 25.5523 24.5523 26 24 26H16.5C16.2239 26 16 25.7761 16 25.5V19.1621C16 18.886 15.7761 18.6621 15.5 18.6621H9.5C9.22386 18.6621 9 18.886 9 19.1621V25.5C9 25.7761 8.77614 26 8.5 26H1C0.447716 26 7.6797e-07 25.5523 0 25V8.73242C0.000150997 8.39965 0.166222 8.08902 0.442383 7.90332L11.9424 0.169922Z"/>
</mask>
<path d="M11.9424 0.169922C12.2796 -0.0566734 12.7204 -0.0566735 13.0576 0.169922L24.5576 7.90332C24.8338 8.08902 24.9998 8.39965 25 8.73242V25C25 25.5523 24.5523 26 24 26H16.5C16.2239 26 16 25.7761 16 25.5V19.1621C16 18.886 15.7761 18.6621 15.5 18.6621H9.5C9.22386 18.6621 9 18.886 9 19.1621V25.5C9 25.7761 8.77614 26 8.5 26H1C0.447716 26 7.6797e-07 25.5523 0 25V8.73242C0.000150997 8.39965 0.166222 8.08902 0.442383 7.90332L11.9424 0.169922Z" fill="#363B48"/>
<path d="M11.9424 0.169922L11.1059 -1.07516L11.1053 -1.07481L11.9424 0.169922ZM13.0576 0.169922L13.8947 -1.07481L13.8941 -1.07516L13.0576 0.169922ZM24.5576 7.90332L23.7206 9.14805L23.7206 9.14807L24.5576 7.90332ZM25 8.73242H26.5V8.73174L25 8.73242ZM25 25L26.5 25V25H25ZM1 26L0.999999 27.5H1V26ZM0 25H-1.5V25L0 25ZM0 8.73242L-1.5 8.73174V8.73242H0ZM0.442383 7.90332L1.2794 9.14807L1.27943 9.14805L0.442383 7.90332ZM11.9424 0.169922L12.7789 1.415C12.6103 1.5283 12.3897 1.5283 12.2211 1.415L13.0576 0.169922L13.8941 -1.07516C13.051 -1.64165 11.949 -1.64165 11.1059 -1.07516L11.9424 0.169922ZM13.0576 0.169922L12.2206 1.41465L23.7206 9.14805L24.5576 7.90332L25.3947 6.65859L13.8947 -1.07481L13.0576 0.169922ZM24.5576 7.90332L23.7206 9.14807C23.5839 9.05616 23.5001 8.90116 23.5 8.7331L25 8.73242L26.5 8.73174C26.4996 7.89814 26.0836 7.12189 25.3946 6.65857L24.5576 7.90332ZM25 8.73242H23.5V25H25H26.5V8.73242H25ZM25 25L23.5 25C23.5 24.7239 23.7239 24.5 24 24.5V26V27.5C25.3807 27.5 26.5 26.3807 26.5 25L25 25ZM24 26V24.5H16.5V26V27.5H24V26ZM16 25.5H17.5V19.1621H16H14.5V25.5H16ZM15.5 18.6621V17.1621H9.5V18.6621V20.1621H15.5V18.6621ZM9 19.1621H7.5V25.5H9H10.5V19.1621H9ZM8.5 26V24.5H1V26V27.5H8.5V26ZM1 26L1 24.5C1.27614 24.5 1.5 24.7239 1.5 25L0 25L-1.5 25C-1.5 26.3807 -0.380713 27.5 0.999999 27.5L1 26ZM0 25H1.5V8.73242H0H-1.5V25H0ZM0 8.73242L1.5 8.7331C1.49992 8.90116 1.41609 9.05616 1.2794 9.14807L0.442383 7.90332L-0.394632 6.65857C-1.08365 7.12189 -1.49962 7.89814 -1.5 8.73174L0 8.73242ZM0.442383 7.90332L1.27943 9.14805L12.7794 1.41465L11.9424 0.169922L11.1053 -1.07481L-0.394661 6.65859L0.442383 7.90332ZM9 25.5H7.5C7.5 24.9477 7.94771 24.5 8.5 24.5V26V27.5C9.60457 27.5 10.5 26.6046 10.5 25.5H9ZM9.5 18.6621V17.1621C8.39543 17.1621 7.5 18.0575 7.5 19.1621H9H10.5C10.5 19.7144 10.0523 20.1621 9.5 20.1621V18.6621ZM16 19.1621H17.5C17.5 18.0575 16.6046 17.1621 15.5 17.1621V18.6621V20.1621C14.9477 20.1621 14.5 19.7144 14.5 19.1621H16ZM16.5 26V24.5C17.0523 24.5 17.5 24.9477 17.5 25.5H16H14.5C14.5 26.6046 15.3954 27.5 16.5 27.5V26Z" fill="#363B48" mask="url(#path-1-inside-1_258_283)"/>
</svg>
