<svg width="366" height="140" viewBox="0 0 366 140" fill="none" xmlns="http://www.w3.org/2000/svg">
<g filter="url(#filter0_d_254_1513)">
<rect x="6" y="6" width="346" height="120" rx="20" fill="white"/>
</g>
<path d="M37.7988 44.7773C37.7881 47.2803 39.2061 49.708 42.375 50.7285L40.9355 52.877C38.7979 52.1572 37.3154 50.7607 36.4668 48.9775C35.5967 50.9326 34.0391 52.4688 31.7832 53.2422L30.2578 51.0723C33.5986 50.041 35.0273 47.4199 35.0488 44.7559V42.6289H37.7988V44.7773ZM33.3945 60.6328V54.3379H36.1875V58.4414H46.8223V60.6328H33.3945ZM43.3418 55.7559V41.4258H46.0918V47.0762H48.7344V49.3965H46.0918V55.7559H43.3418ZM66.2123 41.4258V60.9766H63.5912V51.1797H61.937V60.0742H59.3373V54.4775L57.7905 56.5293C55.975 55.5732 54.8041 53.9512 54.1059 51.9639C53.4614 54.252 52.312 56.1211 50.4428 57.2383L48.7455 55.1328C51.7211 53.457 52.7094 49.998 52.7202 46.2598V45.6367H49.4116V43.4453H58.3705V45.6367H55.3842V46.2598C55.3842 49.665 56.394 52.9092 59.3373 54.4346V41.7051H61.937V48.9453H63.5912V41.4258H66.2123ZM88.7288 41.4473V55.7129H85.9788V41.4473H88.7288ZM72.2933 50.8789C75.5696 49.7832 76.9984 47.0654 76.9984 44.4121V42.5215H79.8558V44.4121C79.8343 47.001 81.22 49.5254 84.432 50.5566L83.0355 52.7051C80.8226 51.9746 79.3079 50.5137 78.4378 48.6553C77.557 50.6533 75.9993 52.2646 73.7113 53.0488L72.2933 50.8789ZM75.6234 60.6328V54.3379H78.3948V58.4414H89.2445V60.6328H75.6234ZM102.082 43.4668V45.6152H98.1287C98.1609 47.624 99.6218 49.665 102.769 50.4707L101.502 52.5762C99.2673 52.0176 97.7097 50.7822 96.8181 49.1924C95.9695 50.9971 94.4011 52.4258 92.0916 53.0918L90.8025 50.9648C93.9285 50.0625 95.3787 47.8281 95.4002 45.6152H91.4685V43.4668H95.4002V41.3398H98.1716V43.4668H102.082ZM94.0037 57.2383C94.0037 54.8965 96.5818 53.5752 100.728 53.5645C104.896 53.5752 107.464 54.8965 107.474 57.2383C107.464 59.6123 104.896 60.9873 100.728 60.9766C96.5818 60.9873 94.0037 59.6123 94.0037 57.2383ZM96.7322 57.2383C96.7322 58.3125 98.1394 58.8926 100.728 58.8926C103.371 58.8926 104.735 58.3125 104.746 57.2383C104.735 56.1963 103.371 55.6699 100.728 55.6699C98.1394 55.6699 96.7322 56.1963 96.7322 57.2383ZM101.502 48.8594V46.668H104.681V41.4258H107.41V53.2422H104.681V48.8594H101.502ZM129.561 41.4258V48.9238H132.333V51.1797H129.561V60.9336H126.811V41.4258H129.561ZM113.921 55.4551C118.55 53.1348 121.043 50.0195 121.558 45.6582H115.038V43.4238H124.34C124.319 49.2676 122.042 54.3271 115.467 57.5605L113.921 55.4551ZM149.08 41.4258V61.0195H146.309V41.4258H149.08ZM133.289 49.7617C133.278 45.4971 135.459 42.8008 138.467 42.8008C141.41 42.8008 143.602 45.4971 143.602 49.7617C143.602 54.0586 141.41 56.7441 138.467 56.7441C135.459 56.7441 133.278 54.0586 133.289 49.7617ZM135.932 49.7617C135.921 52.6729 136.941 54.2627 138.467 54.252C139.949 54.2627 140.948 52.6729 140.959 49.7617C140.948 46.8613 139.949 45.2715 138.467 45.2715C136.941 45.2715 135.921 46.8613 135.932 49.7617ZM167.224 50.4707V52.6621H153.388V43.0586H167.074V45.2715H156.095V50.4707H167.224ZM151.283 58.5918V56.3359H169.179V58.5918H151.283Z" fill="#363B48"/>
<path d="M34.6084 79.0557C34.6021 80.96 35.8525 82.9277 37.6045 83.6768L36.9443 84.6162C35.605 84.0259 34.5386 82.769 34.0117 81.252C33.4849 82.877 32.4185 84.2607 31.0918 84.9082L30.3936 83.9561C32.1074 83.1499 33.377 81.0171 33.3896 79.0557V77.8496H30.7871V76.8467H37.1982V77.8496H34.6084V79.0557ZM38.6328 87.0791V75.7041H39.8389V87.0791H38.6328ZM50.4841 76.2754V77.1387C50.4905 78.0273 50.4905 79.0557 50.1921 80.4268H51.8045V81.417H41.3943V80.4268H48.9734C49.2781 79.1001 49.2908 78.1289 49.2908 77.2656H42.7019V76.2754H50.4841ZM42.6638 86.9395V82.8643H50.4968V86.9395H42.6638ZM43.8445 85.9619H49.3035V83.8164H43.8445V85.9619ZM64.1448 75.7041V80.1094H65.9729V81.125H64.1448V87.0791H62.9387V75.7041H64.1448ZM55.7151 84.375V76.6562H56.9085V79.5762H59.9173V76.6562H61.1106V84.375H55.7151ZM56.9085 83.3848H59.9173V80.5283H56.9085V83.3848ZM76.669 84.7051V85.7207H66.2588V84.7051H70.8418V82.7119H67.5284V79.0938H74.2061V77.4941H67.503V76.5039H75.3995V80.0586H68.7217V81.7217H75.6661V82.7119H72.0352V84.7051H76.669ZM89.5806 75.7168V84.0449H88.3746V75.7168H89.5806ZM80.2115 81.4805C81.9952 80.8203 83.0489 79.1826 83.0552 77.4688V76.3389H84.2867V77.4688C84.2803 79.1318 85.334 80.6553 87.0923 81.2646L86.4703 82.2295C85.1563 81.7407 84.1851 80.7759 83.6773 79.5444C83.1758 80.8647 82.192 81.9185 80.8589 82.4326L80.2115 81.4805ZM82.1412 86.8379V83.2578H83.3599V85.8604H89.9234V86.8379H82.1412ZM95.1097 78.1289C95.1097 79.4683 96.2078 80.7188 97.9407 81.2012L97.3695 82.1406C96.0491 81.7661 95.0589 80.9536 94.5384 79.8999C94.0433 81.0742 93.053 82.0073 91.6946 82.4326L91.1234 81.5059C92.8499 80.9536 93.9163 79.5952 93.9163 78.1289V77.9893H91.4407V77.0244H93.9163V75.6533H95.1224V77.0244H97.5853V77.9893H95.1097V78.1289ZM92.9515 84.9463C92.9451 83.6133 94.4114 82.8579 96.7982 82.8516C99.1785 82.8579 100.638 83.6133 100.645 84.9463C100.638 86.2856 99.1785 87.0601 96.7982 87.0537C94.4114 87.0601 92.9451 86.2856 92.9515 84.9463ZM94.1448 84.9463C94.1385 85.6826 95.1287 86.1206 96.7982 86.127C98.4676 86.1206 99.4451 85.6826 99.4515 84.9463C99.4451 84.21 98.4676 83.791 96.7982 83.791C95.1287 83.791 94.1385 84.21 94.1448 84.9463ZM97.2298 79.8809V78.8906H99.4007V75.7041H100.607V82.5977H99.4007V79.8809H97.2298ZM110.96 75.7041V80.3125H112.788V81.3154H110.96V87.0791H109.767V75.7041H110.96ZM102.035 78.4717V77.4814H104.841V75.8564H106.047V77.4814H108.776V78.4717H102.035ZM102.619 81.9502C102.619 80.4014 103.813 79.3096 105.45 79.3096C107.082 79.3096 108.275 80.4014 108.281 81.9502C108.275 83.5117 107.082 84.5972 105.45 84.6035C103.813 84.5972 102.619 83.5117 102.619 81.9502ZM103.774 81.9502C103.768 82.9404 104.479 83.6006 105.45 83.5879C106.415 83.6006 107.12 82.9404 107.126 81.9502C107.12 80.979 106.415 80.3062 105.45 80.2998C104.479 80.3062 103.768 80.979 103.774 81.9502ZM122.278 79.0303V79.9951H114.445V76.1104H115.639V79.0303H122.278ZM113.061 82.3945V81.4297H123.472V82.3945H113.061ZM114.356 86.8125V83.4736H115.562V85.8223H122.354V86.8125H114.356ZM132.232 82.7881C134.574 82.7881 136.002 83.5752 136.002 84.9209C136.002 86.2856 134.574 87.0728 132.232 87.0791C129.864 87.0728 128.411 86.2856 128.411 84.9209C128.411 83.5752 129.864 82.7881 132.232 82.7881ZM127.408 81.6963V76.415H128.588V78.0527H131.572V76.415H132.765V81.6963H127.408ZM128.588 80.7314H131.572V79.0049H128.588V80.7314ZM129.617 84.9209C129.61 85.6826 130.588 86.1143 132.232 86.1143C133.863 86.1143 134.828 85.6826 134.822 84.9209C134.828 84.1655 133.863 83.7402 132.232 83.7402C130.588 83.7402 129.61 84.1655 129.617 84.9209ZM134.695 82.4961V75.7041H135.901V78.4844H137.551V79.5127H135.901V82.4961H134.695ZM139.691 76.2881V77.9512H142.534V76.2881H143.728V78.4336H146.216V75.7041H147.422V81.9121H146.216V79.4365H143.728V81.5312H138.484V76.2881H139.691ZM139.691 80.5537H142.534V78.8906H139.691V80.5537ZM140.008 86.9141V82.4453H141.201V83.7275H146.216V82.4453H147.409V86.9141H140.008ZM141.201 85.9365H146.216V84.667H141.201V85.9365ZM162.238 84.667V85.6699H151.828V84.667H156.411V82.3311H153.021V76.4785H154.227V78.4336H159.813V76.4785H161.006V82.3311H157.604V84.667H162.238ZM154.227 81.3535H159.813V79.4111H154.227V81.3535ZM172.261 75.7041V87.0791H171.042V75.7041H172.261ZM162.917 84.0322C165.939 82.5913 167.418 80.541 167.653 77.8877H163.463V76.9229H168.871C168.871 80.2554 167.456 83.1372 163.552 85.0098L162.917 84.0322Z" fill="#0C8CFF"/>
<rect x="252" y="36.541" width="59.1033" height="64.6443" rx="11" fill="#C8E1F9"/>
<rect x="252" y="31" width="59.1033" height="64.6443" rx="11" fill="#F1F7FF"/>
<path d="M276.934 49.4707H300.483" stroke="#8BB9F1" stroke-width="4" stroke-linecap="round"/>
<path d="M276.934 63.3223H300.483" stroke="#8BB9F1" stroke-width="4" stroke-linecap="round"/>
<path d="M276.934 77.1738H300.483" stroke="#8BB9F1" stroke-width="4" stroke-linecap="round"/>
<path d="M260.311 50.7102L262.818 53.217L268.834 46.6992" stroke="#8BB9F1" stroke-width="2" stroke-linecap="round" stroke-linejoin="round"/>
<path d="M260.311 64.5637L262.818 67.0706L268.834 60.5527" stroke="#8BB9F1" stroke-width="2" stroke-linecap="round" stroke-linejoin="round"/>
<path d="M260.311 78.4153L262.818 80.9221L268.834 74.4043" stroke="#8BB9F1" stroke-width="2" stroke-linecap="round" stroke-linejoin="round"/>
<circle cx="310.642" cy="82.2548" r="15.4111" fill="#3FA3FF" stroke="#3FA3FF" stroke-width="1.5"/>
<path d="M303.837 83.1054L308.09 87.3584L318.297 76.3008" stroke="white" stroke-width="3" stroke-linecap="round" stroke-linejoin="round"/>
<defs>
<filter id="filter0_d_254_1513" x="0" y="0" width="366" height="140" filterUnits="userSpaceOnUse" color-interpolation-filters="sRGB">
<feFlood flood-opacity="0" result="BackgroundImageFix"/>
<feColorMatrix in="SourceAlpha" type="matrix" values="0 0 0 0 0 0 0 0 0 0 0 0 0 0 0 0 0 0 127 0" result="hardAlpha"/>
<feOffset dx="4" dy="4"/>
<feGaussianBlur stdDeviation="5"/>
<feComposite in2="hardAlpha" operator="out"/>
<feColorMatrix type="matrix" values="0 0 0 0 0.641989 0 0 0 0 0.657274 0 0 0 0 0.773006 0 0 0 0.12 0"/>
<feBlend mode="normal" in2="BackgroundImageFix" result="effect1_dropShadow_254_1513"/>
<feBlend mode="normal" in="SourceGraphic" in2="effect1_dropShadow_254_1513" result="shape"/>
</filter>
</defs>
</svg>
