<svg width="25" height="26" viewBox="0 0 25 26" fill="none" xmlns="http://www.w3.org/2000/svg">
<mask id="path-1-inside-1_258_642" fill="white">
<path d="M11.9424 0.169914C12.2796 -0.0566379 12.7204 -0.0566379 13.0576 0.169914L24.5576 7.90331C24.8339 8.0891 25 8.40045 25 8.73339V25C25 25.5523 24.5523 26 24 26H16.5C16.2239 26 16 25.7761 16 25.5V19.1621C16 18.886 15.7761 18.6621 15.5 18.6621H9.5C9.22386 18.6621 9 18.886 9 19.1621V25.5C9 25.7761 8.77614 26 8.5 26H1C0.447716 26 0 25.5523 0 25V8.73339C0 8.40045 0.166096 8.0891 0.442383 7.90331L11.9424 0.169914Z"/>
</mask>
<path d="M11.9424 0.169914L11.1059 -1.07521L11.1053 -1.07482L11.9424 0.169914ZM13.0576 0.169914L13.8947 -1.07482L13.8941 -1.07521L13.0576 0.169914ZM24.5576 7.90331L23.7206 9.14804L23.7206 9.14806L24.5576 7.90331ZM1 26L0.999999 27.5H1V26ZM0.442383 7.90331L1.2794 9.14806L1.27943 9.14804L0.442383 7.90331ZM11.9424 0.169914L12.7788 1.41504C12.6102 1.52832 12.3898 1.52832 12.2212 1.41504L13.0576 0.169914L13.8941 -1.07521C13.051 -1.6416 11.949 -1.6416 11.1059 -1.07521L11.9424 0.169914ZM13.0576 0.169914L12.2206 1.41465L23.7206 9.14804L24.5576 7.90331L25.3947 6.65858L13.8947 -1.07482L13.0576 0.169914ZM24.5576 7.90331L23.7206 9.14806C23.5831 9.05562 23.5 8.90067 23.5 8.73339H25H26.5C26.5 7.90022 26.0847 7.12257 25.3946 6.65856L24.5576 7.90331ZM25 8.73339H23.5V25H25H26.5V8.73339H25ZM25 25H23.5C23.5 24.7239 23.7239 24.5 24 24.5V26V27.5C25.3807 27.5 26.5 26.3807 26.5 25H25ZM24 26V24.5H16.5V26V27.5H24V26ZM16 25.5H17.5V19.1621H16H14.5V25.5H16ZM15.5 18.6621V17.1621H9.5V18.6621V20.1621H15.5V18.6621ZM9 19.1621H7.5V25.5H9H10.5V19.1621H9ZM8.5 26V24.5H1V26V27.5H8.5V26ZM1 26L1 24.5C1.27614 24.5 1.5 24.7238 1.5 25H0H-1.5C-1.5 26.3807 -0.380711 27.5 0.999999 27.5L1 26ZM0 25H1.5V8.73339H0H-1.5V25H0ZM0 8.73339H1.5C1.5 8.90067 1.41687 9.05562 1.2794 9.14806L0.442383 7.90331L-0.394632 6.65856C-1.08468 7.12257 -1.5 7.90022 -1.5 8.73339H0ZM0.442383 7.90331L1.27943 9.14804L12.7794 1.41465L11.9424 0.169914L11.1053 -1.07482L-0.394661 6.65858L0.442383 7.90331ZM9 25.5H7.5C7.5 24.9477 7.94771 24.5 8.5 24.5V26V27.5C9.60457 27.5 10.5 26.6046 10.5 25.5H9ZM9.5 18.6621V17.1621C8.39543 17.1621 7.5 18.0575 7.5 19.1621H9H10.5C10.5 19.7144 10.0523 20.1621 9.5 20.1621V18.6621ZM16 19.1621H17.5C17.5 18.0575 16.6046 17.1621 15.5 17.1621V18.6621V20.1621C14.9477 20.1621 14.5 19.7144 14.5 19.1621H16ZM16.5 26V24.5C17.0523 24.5 17.5 24.9477 17.5 25.5H16H14.5C14.5 26.6046 15.3954 27.5 16.5 27.5V26Z" fill="#B2B2B2" mask="url(#path-1-inside-1_258_642)"/>
</svg>
