<svg width="366" height="140" viewBox="0 0 366 140" fill="none" xmlns="http://www.w3.org/2000/svg">
<g filter="url(#filter0_d_254_1532)">
<rect x="6" y="6" width="346" height="120" rx="20" fill="white"/>
</g>
<path d="M37.779 47.2935C37.7638 50.7956 39.2604 54.328 42.3978 55.8474L40.7417 58.0276C38.6526 56.9945 37.232 55.0649 36.4192 52.7099C35.5684 55.2396 34.0566 57.3059 31.8384 58.4074L30.1595 56.1816C33.4641 54.6623 35.029 50.9247 35.0366 47.2935V44.3688H37.779V47.2935ZM43.2638 62.4261V42.857H46.0062V50.4005H48.893V52.7175H46.0062V62.4261H43.2638ZM56.3755 44.7714V52.2617H52.3416V55.7258C53.9217 55.6878 55.4715 55.5663 57.2567 55.2852L57.4618 57.4958C55.1296 57.9061 53.2076 57.9896 50.9818 57.9972H49.7056V50.1119H53.709V46.9592H49.6828V44.7714H56.3755ZM57.2871 54.7382V52.5276H59.4141V49.8764H57.2871V47.6885H59.4141V43.1913H62.0046V61.4689H59.4141V54.7382H57.2871ZM63.4632 62.4261V42.857H66.0536V62.4261H63.4632ZM82.4966 44.0117C82.4966 49.1243 79.268 52.6644 73.5401 54.2597L72.4538 52.125C76.6927 50.9855 79.1161 48.828 79.5567 46.192H73.5173V44.0117H82.4966ZM75.8723 62.183V54.6015H88.8398V62.183H75.8723ZM78.5615 60.0331H86.1202V56.7514H78.5615V60.0331ZM82.6257 49.77V47.529H86.105V42.8874H88.8398V53.819H86.105V49.77H82.6257ZM97.1883 46.2603C97.1807 48.4406 98.2595 50.5601 100.85 51.6008L99.3838 53.6975C97.7277 53.029 96.5806 51.8363 95.8817 50.355C95.16 52.0414 93.9294 53.4468 92.1138 54.2065L90.6476 52.0946C93.4128 50.9095 94.5143 48.471 94.5219 46.2603V44.0041H97.1883V46.2603ZM94.218 57.7845V55.5891H107.733V62.4261H105.005V57.7845H94.218ZM100.949 54.6243V43.1989H103.494V47.6429H105.134V42.8874H107.733V54.7231H105.134V49.884H103.494V54.6243H100.949Z" fill="#363B48"/>
<path d="M39.8389 75.5732V81.4258H38.6455V75.5732H39.8389ZM30.457 80.4102C32.2344 79.8198 33.3198 78.3281 33.3262 76.7539V75.8779H34.5576V76.7539C34.5513 78.2773 35.6431 79.6611 37.3887 80.207L36.792 81.1465C35.4653 80.7148 34.4688 79.8198 33.9546 78.6646C33.4404 79.9087 32.4248 80.8989 31.0664 81.3623L30.457 80.4102ZM32.374 82.9238V81.9717H39.8516V84.8154H33.5801V85.8691H40.2324V86.834H32.4121V83.9014H38.6582V82.9238H32.374ZM51.157 75.5732V86.9482H50.0017V75.5732H51.157ZM41.2293 83.8125C42.8416 82.8413 43.6604 80.772 43.6668 78.7471V77.833H41.572V76.8555H46.7771V77.833H44.822V78.7471C44.822 80.6895 45.6091 82.6382 47.2087 83.5586L46.4851 84.4473C45.3997 83.7998 44.657 82.6382 44.2571 81.2671C43.8508 82.7524 43.0764 84.022 41.9656 84.7139L41.2293 83.8125ZM45.9392 80.5879V79.5977H47.7039V75.8145H48.8464V86.377H47.7039V80.5879H45.9392ZM59.2317 78.4678C59.219 80.48 60.3933 82.543 62.0882 83.3682L61.3391 84.333C60.1013 83.6855 59.1429 82.416 58.6414 80.8989C58.1336 82.5112 57.137 83.876 55.8421 84.5488L55.093 83.5713C56.8387 82.7334 58.0193 80.5498 58.0257 78.4678V76.5254H59.2317V78.4678ZM62.9387 86.9482V75.5732H64.1448V80.1055H65.9729V81.1338H64.1448V86.9482H62.9387ZM70.5371 76.7793V80.8545H67.7823V83.2476C68.8995 83.2349 69.9786 83.1714 71.2735 82.9492L71.375 83.9395C69.877 84.1997 68.69 84.2441 67.3506 84.2441H66.6143V79.8896H69.3819V77.7568H66.6016V76.7793H70.5371ZM71.1465 82.3018V81.3115H72.5684V79.4707H71.1465V78.4932H72.5684V75.7891H73.711V86.3643H72.5684V82.3018H71.1465ZM74.8662 86.9482V75.5732H76.0215V86.9482H74.8662ZM87.6316 80.791V81.7178H77.2215V80.791H87.6316ZM78.4529 83.3809V82.5176H86.3494V85.0186H79.6717V85.958H86.7049V86.8086H78.4656V84.2188H85.1561V83.3809H78.4529ZM78.5291 76.7158V75.8652H86.324V78.3281H79.7479V79.1914H86.5145V80.042H78.5545V77.5283H85.118V76.7158H78.5291ZM101.495 81.5527V82.5049H91.098V81.5527H95.6937V80.5625H92.4564V75.8779H100.226V76.8301H93.6751V77.7568H99.9339V78.6582H93.6751V79.623H100.302V80.5625H96.8997V81.5527H101.495ZM92.3548 85.0947C92.3548 83.9014 93.7703 83.2476 96.303 83.2539C98.7977 83.2476 100.22 83.9014 100.226 85.0947C100.22 86.2944 98.7977 86.9292 96.303 86.9229C93.7703 86.9292 92.3548 86.2944 92.3548 85.0947ZM93.5609 85.0947C93.5545 85.7104 94.5067 86.0215 96.303 86.0088C98.074 86.0215 99.0198 85.7104 99.0198 85.0947C99.0198 84.479 98.074 84.1553 96.303 84.1553C94.5067 84.1553 93.5545 84.479 93.5609 85.0947ZM107.723 77.4521V78.4297H102.073V77.4521H104.308V75.9033H105.501V77.4521H107.723ZM102.441 81.7305C102.435 80.2007 103.476 79.1152 104.904 79.1152C106.345 79.1152 107.374 80.2007 107.38 81.7305C107.374 83.2856 106.345 84.3774 104.904 84.3711C103.476 84.3774 102.435 83.2856 102.441 81.7305ZM103.508 81.7305C103.502 82.6953 104.086 83.3428 104.904 83.3428C105.723 83.3428 106.314 82.6953 106.314 81.7305C106.314 80.7847 105.723 80.1245 104.904 80.1182C104.086 80.1245 103.502 80.7847 103.508 81.7305ZM108.243 86.415V75.8271H109.386V80.3086H110.693V75.5732H111.836V86.9482H110.693V81.2988H109.386V86.415H108.243ZM120.025 77.2871C120.025 78.5757 121.066 79.8643 122.754 80.3721L122.183 81.3242C120.888 80.9243 119.93 80.0864 119.435 79.0391C118.921 80.1943 117.918 81.1528 116.585 81.5908L115.988 80.6387C117.708 80.0674 118.819 78.6646 118.819 77.2744V77.0967H116.343V76.1191H122.475V77.0967H120.025V77.2871ZM118.019 82.9111V81.9463H125.459V84.79H119.251V85.8691H125.865V86.8213H118.045V83.876H124.265V82.9111H118.019ZM122.145 79.0264V78.0488H124.265V75.5732H125.459V81.4258H124.265V79.0264H122.145ZM130.861 79.2295C130.861 80.9814 131.933 82.835 133.628 83.6475L132.943 84.5615C131.705 83.9775 130.772 82.7905 130.289 81.4004C129.788 82.9048 128.798 84.1616 127.496 84.7646L126.824 83.8379C128.557 83.0444 129.674 81.1021 129.68 79.2295V78.4805H127.166V77.5156H129.667V75.8018H130.886V77.5156H133.362V78.4805H130.861V79.2295ZM134.619 86.9482V75.5732H135.825V80.1562H137.653V81.1719H135.825V86.9482H134.619ZM148.336 80.791V81.7178H137.926V80.791H148.336ZM139.157 83.3809V82.5176H147.054V85.0186H140.376V85.958H147.409V86.8086H139.17V84.2188H145.86V83.3809H139.157ZM139.234 76.7158V75.8652H147.028V78.3281H140.452V79.1914H147.219V80.042H139.259V77.5283H145.822V76.7158H139.234ZM161.248 75.5732V86.9736H160.042V75.5732H161.248ZM152.221 80.4102C152.221 77.979 153.446 76.4302 155.167 76.4238C156.855 76.4302 158.099 77.979 158.099 80.4102C158.099 82.8667 156.855 84.4155 155.167 84.4092C153.446 84.4155 152.221 82.8667 152.221 80.4102ZM153.389 80.4102C153.383 82.2192 154.107 83.3301 155.167 83.3301C156.208 83.3301 156.931 82.2192 156.931 80.4102C156.931 78.6265 156.208 77.5093 155.167 77.5029C154.107 77.5093 153.383 78.6265 153.389 80.4102ZM168.427 77.4521V78.4297H162.778V77.4521H165.012V75.9033H166.205V77.4521H168.427ZM163.146 81.7305C163.14 80.2007 164.181 79.1152 165.609 79.1152C167.05 79.1152 168.078 80.2007 168.084 81.7305C168.078 83.2856 167.05 84.3774 165.609 84.3711C164.181 84.3774 163.14 83.2856 163.146 81.7305ZM164.212 81.7305C164.206 82.6953 164.79 83.3428 165.609 83.3428C166.428 83.3428 167.018 82.6953 167.018 81.7305C167.018 80.7847 166.428 80.1245 165.609 80.1182C164.79 80.1245 164.206 80.7847 164.212 81.7305ZM168.948 86.415V75.8271H170.09V80.3086H171.398V75.5732H172.54V86.9482H171.398V81.2988H170.09V86.415H168.948ZM179.402 77.4521V78.4297H173.753V77.4521H175.987V75.9033H177.181V77.4521H179.402ZM174.121 81.7305C174.115 80.2007 175.156 79.1152 176.584 79.1152C178.025 79.1152 179.053 80.2007 179.06 81.7305C179.053 83.2856 178.025 84.3774 176.584 84.3711C175.156 84.3774 174.115 83.2856 174.121 81.7305ZM175.188 81.7305C175.181 82.6953 175.765 83.3428 176.584 83.3428C177.403 83.3428 177.993 82.6953 177.993 81.7305C177.993 80.7847 177.403 80.1245 176.584 80.1182C175.765 80.1245 175.181 80.7847 175.188 81.7305ZM179.923 86.415V75.8271H181.066V80.3086H182.373V75.5732H183.516V86.9482H182.373V81.2988H181.066V86.415H179.923ZM195.164 84.5234V85.5264H184.754V84.5234H187.242V81.5527C186.309 81.0386 185.738 80.2261 185.744 79.2041C185.738 77.4141 187.496 76.2397 189.934 76.2334C192.377 76.2397 194.136 77.4141 194.136 79.2041C194.136 80.207 193.59 81.0132 192.676 81.5273V84.5234H195.164ZM186.912 79.2041C186.912 80.4229 188.15 81.2163 189.934 81.2227C191.705 81.2163 192.961 80.4229 192.968 79.2041C192.961 77.979 191.705 77.1982 189.934 77.1982C188.15 77.1982 186.912 77.979 186.912 79.2041ZM188.435 84.5234H191.457V81.9971C190.994 82.105 190.479 82.1621 189.934 82.1621C189.4 82.1621 188.893 82.105 188.435 81.9971V84.5234Z" fill="#0C8CFF"/>
<rect x="254.894" y="41.2207" width="74.1065" height="47.6945" rx="12" fill="#B2DAFF"/>
<path d="M271.824 96.5257C270.53 97.7802 268.366 96.8539 268.418 95.0677L268.766 82.9372C268.807 81.5241 270.278 80.5899 271.583 81.1485L280.022 84.7602C281.327 85.3188 281.635 87.0146 280.611 88.007L271.824 96.5257Z" fill="#B2DAFF"/>
<path d="M299.266 55.6191H319.394" stroke="#8BB9F1" stroke-width="4" stroke-linecap="round"/>
<path d="M299.266 65.5176H319.394" stroke="#8BB9F1" stroke-width="4" stroke-linecap="round"/>
<rect width="6.35562" height="23.5796" rx="3.17781" transform="matrix(0.736764 -0.67615 0.688206 0.725515 279.596 71.6152)" fill="#637A9C"/>
<rect width="11.8033" height="23.5796" rx="3" transform="matrix(0.736764 -0.67615 0.688206 0.725515 282.582 78.7207)" fill="#7997C2"/>
<ellipse cx="268.16" cy="53.3702" rx="25.1596" ry="24.7472" fill="#7997C2"/>
<ellipse cx="268.159" cy="53.3693" rx="19.6702" ry="19.3478" fill="#E4F3FE"/>
<defs>
<filter id="filter0_d_254_1532" x="0" y="0" width="366" height="140" filterUnits="userSpaceOnUse" color-interpolation-filters="sRGB">
<feFlood flood-opacity="0" result="BackgroundImageFix"/>
<feColorMatrix in="SourceAlpha" type="matrix" values="0 0 0 0 0 0 0 0 0 0 0 0 0 0 0 0 0 0 127 0" result="hardAlpha"/>
<feOffset dx="4" dy="4"/>
<feGaussianBlur stdDeviation="5"/>
<feComposite in2="hardAlpha" operator="out"/>
<feColorMatrix type="matrix" values="0 0 0 0 0.641989 0 0 0 0 0.657274 0 0 0 0 0.773006 0 0 0 0.12 0"/>
<feBlend mode="normal" in2="BackgroundImageFix" result="effect1_dropShadow_254_1532"/>
<feBlend mode="normal" in="SourceGraphic" in2="effect1_dropShadow_254_1532" result="shape"/>
</filter>
</defs>
</svg>
