<?xml version="1.0" encoding="UTF-8"?>
<svg id="_레이어_1" data-name="레이어_1" xmlns="http://www.w3.org/2000/svg" version="1.1" viewBox="0 0 800 800">
  <!-- Generator: Adobe Illustrator 29.3.1, SVG Export Plug-In . SVG Version: 2.1.0 Build 151)  -->
  <defs>
    <style>
      .st0 {
        fill: #fff;
      }
    </style>
  </defs>
  <path id="Path_10" class="st0" d="M400,0C179.1,0,0,179.1,0,400s179.1,400,400,400,400-179.1,400-400C799.7,179.2,620.8.3,400,0ZM767.1,383.7h-163.6c-1.1-59.5-12.3-118.4-33-174.3,34.6-16.3,66.7-37.5,95.2-63,61.5,64.2,97.5,148.5,101.4,237.3h0ZM416.3,46.8c24.7,20.3,46.8,43.6,65.8,69.3,17.7,23.8,32.9,49.3,45.3,76.2-35.7,13.2-73.1,20.7-111.1,22.4V46.8ZM454.6,36.6c69.6,10.5,134.7,40.8,187.5,87.3-25.4,22.3-53.8,41-84.3,55.5-24.6-54-59.7-102.5-103.2-142.8h0ZM319.6,116c18.6-25.1,40.2-47.9,64.2-67.9v166.5c-37.5-1.6-74.5-9-109.7-21.8,12.5-27.1,27.7-52.8,45.5-76.7ZM243.5,180.1c-31-14.6-59.9-33.5-85.7-56.1,53.3-47,119.1-77.4,189.4-87.6-43.8,40.5-79.1,89.4-103.8,143.7h0ZM383.7,247.1v136.6h-153c1.2-55,11.6-109.4,30.7-160.9,39.2,14.4,80.5,22.6,122.2,24.3h0ZM383.7,416.3v134.3c-40.8,1.6-81.1,9.5-119.5,23.3-20.4-50.2-31.7-103.5-33.5-157.6h153ZM383.7,583.2v165.4c-43.7-41.6-79.6-90.7-106.2-144.9,34.2-12.1,70-19,106.2-20.5h0ZM352.7,764.4c-72.9-9.4-141.2-40.6-196.1-89.4,27-23.9,57.3-43.8,90.1-58.8,26.5,55.1,62.4,105.3,106,148.2h0ZM416.3,750.1v-167c36.7,1.6,73,8.7,107.6,21-26.9,54.7-63.3,104.1-107.6,145.9h0ZM554.7,616.8c32.2,15,62.1,34.6,88.7,58.2-54.4,48.4-122.1,79.4-194.2,89.1,43.4-42.7,79-92.5,105.5-147.3h0ZM416.3,550.7v-134.4h154.6c-1.8,54.3-13.2,107.8-33.7,158.1-38.8-14.1-79.6-22.2-120.9-23.8h0ZM416.3,383.8v-136.6c42.3-1.7,84-10.1,123.6-24.8,19.3,51.7,29.7,106.3,31,161.5h-154.6ZM134.4,146.5c28.9,25.8,61.5,47.3,96.6,63.7-20.6,55.6-31.7,114.3-32.8,173.6H32.9c3.9-88.8,39.9-173.1,101.4-237.2ZM32.9,416.3h165.3c1.7,58.3,13.6,115.9,35.3,170.1-36.6,16.8-70.4,39-100.4,65.9-60.8-64-96.3-147.8-100.2-236ZM666.8,652.3c-29.5-26.6-62.9-48.6-98.9-65.3,21.9-54.4,33.9-112.2,35.6-170.7h163.6c-3.9,88.2-39.5,172-100.3,236Z"/>
</svg>