<svg width="25" height="26" viewBox="0 0 25 26" fill="none" xmlns="http://www.w3.org/2000/svg">
<mask id="path-1-inside-1_258_600" fill="white">
<path d="M0 22C0 18.134 3.13401 15 7 15H18C21.866 15 25 18.134 25 22V24C25 25.1046 24.1046 26 23 26H1C0.447716 26 0 25.5523 0 25V22Z"/>
</mask>
<path d="M0 22C0 18.134 3.13401 15 7 15H18C21.866 15 25 18.134 25 22V24C25 25.1046 24.1046 26 23 26H1C0.447716 26 0 25.5523 0 25V22Z" fill="#363B48" stroke="#363B48" stroke-width="3" mask="url(#path-1-inside-1_258_600)"/>
<circle cx="12" cy="6" r="5.25" fill="#363B48" stroke="#363B48" stroke-width="1.5"/>
</svg>
