<svg width="16" height="17" viewBox="0 0 16 17" fill="none" xmlns="http://www.w3.org/2000/svg">
<path d="M10.2621 6.15517C10.0299 6.15214 9.80796 6.05852 9.64371 5.89427C9.47947 5.73002 9.38585 5.50813 9.38281 5.27586V0H3.22764C2.60575 0 2.00934 0.247044 1.5696 0.686784C1.12986 1.12652 0.882813 1.72294 0.882812 2.34483L0.882813 14.6552C0.882813 15.2771 1.12986 15.8735 1.5696 16.3132C2.00934 16.753 2.60575 17 3.22764 17H13.1932C13.815 17 14.4115 16.753 14.8512 16.3132C15.2909 15.8735 15.538 15.2771 15.538 14.6552V6.15517H10.2621Z" fill="#9B9B9B"/>
<path d="M11.2699 4.10331V0.351587C11.267 0.293301 11.2824 0.235582 11.3139 0.186421C11.3453 0.13726 11.3912 0.0990905 11.4453 0.0771964C11.4994 0.0553023 11.559 0.0507671 11.6158 0.0642187C11.6726 0.0776704 11.7238 0.108443 11.7623 0.152277L15.5374 3.89228C15.58 3.93327 15.6092 3.98618 15.6212 4.04405C15.6331 4.10193 15.6273 4.16207 15.6045 4.21659C15.5817 4.27111 15.5429 4.31745 15.4933 4.34955C15.4437 4.38164 15.3855 4.39797 15.3264 4.39641H11.563C11.4852 4.39641 11.4107 4.36553 11.3557 4.31057C11.3007 4.2556 11.2699 4.18105 11.2699 4.10331Z" fill="#9B9B9B"/>
</svg>
