<svg width="18" height="17" viewBox="0 0 18 17" fill="none" xmlns="http://www.w3.org/2000/svg">
<path d="M15.538 16.9998H3.22761C1.93261 16.9998 0.882812 15.95 0.882812 14.655V2.3448C0.882812 1.0498 1.93261 0 3.22761 0H15.538C16.833 0 17.8828 1.0498 17.8828 2.3448V14.655C17.8828 15.95 16.833 16.9998 15.538 16.9998Z" fill="#0C8CFF"/>
<path fill-rule="evenodd" clip-rule="evenodd" d="M9.38222 4.21094C9.82632 4.21094 10.1863 4.57095 10.1863 5.01504V11.9839C10.1863 12.428 9.82632 12.788 9.38222 12.788C8.93813 12.788 8.57812 12.428 8.57812 11.9839V5.01504C8.57812 4.57095 8.93813 4.21094 9.38222 4.21094Z" fill="white"/>
<path fill-rule="evenodd" clip-rule="evenodd" d="M5.09375 8.49941C5.09375 8.05532 5.45376 7.69531 5.89785 7.69531H12.8667C13.3108 7.69531 13.6708 8.05532 13.6708 8.49941C13.6708 8.9435 13.3108 9.30351 12.8667 9.30351H5.89785C5.45376 9.30351 5.09375 8.9435 5.09375 8.49941Z" fill="white"/>
</svg>
