<svg width="179" height="179" viewBox="0 0 179 179" fill="none" xmlns="http://www.w3.org/2000/svg">
<g filter="url(#filter0_d_582_4484)">
<rect x="8" y="8" width="155" height="155" rx="20" fill="white"/>
</g>
<path d="M32.9375 34.0938C32.9375 34.8802 33.0703 35.6536 33.3359 36.4141C33.6068 37.1693 34.0104 37.849 34.5469 38.4531C35.0833 39.0573 35.7344 39.5208 36.5 39.8438L35.4219 41.4062C34.6042 41.0625 33.9036 40.5573 33.3203 39.8906C32.737 39.224 32.2786 38.4453 31.9453 37.5547C31.6172 38.5234 31.1562 39.375 30.5625 40.1094C29.9688 40.8385 29.2656 41.3906 28.4531 41.7656L27.3125 40.1875C28.0729 39.849 28.7214 39.3568 29.2578 38.7109C29.7995 38.0651 30.2057 37.3411 30.4766 36.5391C30.7526 35.7318 30.8906 34.9167 30.8906 34.0938V33.2188H27.875V31.5938H35.9062V33.2188H32.9375V34.0938ZM39.3281 44.4375H37.3125V30.2188H39.3281V44.4375ZM52.9969 40.9688H50.9969V39.8438H48.2781V38.4844H50.9969V30.2344H52.9969V40.9688ZM53.3094 44.1875H42.7156V39.9375H44.7V38.0469C43.7312 38.0885 42.5437 38.1094 41.1375 38.1094L40.9031 36.5312C42.7365 36.5208 44.3849 36.4896 45.8484 36.4375C47.312 36.3854 48.7052 36.276 50.0281 36.1094L50.1375 37.5312C49.0542 37.7135 47.9083 37.849 46.7 37.9375V40.6406H44.7V42.5938H53.3094V44.1875ZM45.5281 30.7188C46.2104 30.7135 46.8198 30.8177 47.3562 31.0312C47.8927 31.2448 48.312 31.5469 48.6141 31.9375C48.9214 32.3229 49.075 32.7656 49.075 33.2656C49.075 33.7604 48.924 34.1979 48.6219 34.5781C48.3198 34.9583 47.8979 35.2526 47.3562 35.4609C46.8198 35.6641 46.2104 35.7656 45.5281 35.7656C44.8302 35.7656 44.2104 35.6641 43.6687 35.4609C43.1271 35.2526 42.7052 34.9609 42.4031 34.5859C42.101 34.2057 41.95 33.7656 41.95 33.2656C41.95 32.7656 42.0984 32.3229 42.3953 31.9375C42.6974 31.5469 43.1193 31.2448 43.6609 31.0312C44.2078 30.8177 44.8302 30.7135 45.5281 30.7188ZM45.5281 32.1719C45.0125 32.1719 44.601 32.2682 44.2937 32.4609C43.9865 32.6536 43.8354 32.9219 43.8406 33.2656C43.8354 33.6042 43.9839 33.8672 44.2859 34.0547C44.5932 34.237 45.0073 34.3281 45.5281 34.3281C46.0177 34.3281 46.4135 34.2344 46.7156 34.0469C47.0229 33.8594 47.1792 33.599 47.1844 33.2656C47.1792 32.9219 47.0229 32.6536 46.7156 32.4609C46.4135 32.2682 46.0177 32.1719 45.5281 32.1719ZM66.6969 40.8594H64.8062V30.2188H66.6969V40.8594ZM63.8219 40.4375H61.9312V35.0938H60.1969V33.4688H61.9312V30.4375H63.8219V40.4375ZM67.0562 44.1875H57.0562V39.6094H59.0562V42.5938H67.0562V44.1875ZM58.9625 33.0312C58.9625 33.9167 59.1682 34.724 59.5797 35.4531C59.9911 36.1771 60.6292 36.7396 61.4937 37.1406L60.3844 38.6719C59.3062 38.1615 58.5146 37.3255 58.0094 36.1641C57.749 36.8047 57.4 37.3698 56.9625 37.8594C56.5302 38.349 56.0094 38.7344 55.4 39.0156L54.3062 37.5C54.926 37.1979 55.4391 36.8099 55.8453 36.3359C56.2516 35.8568 56.5484 35.3333 56.7359 34.7656C56.9286 34.1979 57.025 33.6198 57.025 33.0312V31.1719H58.9625V33.0312ZM80.0062 44.4688H78.0375V36.8438H75.5375V35.2344H78.0375V30.2188H80.0062V44.4688ZM75.3031 33.0156H70.6469V35.375H74.7875V36.9375H70.6469V39.625C71.7198 39.6146 72.6651 39.5859 73.4828 39.5391C74.3005 39.487 75.126 39.3958 75.9594 39.2656L76.1625 40.8594C75.1729 41.0104 74.1885 41.1146 73.2094 41.1719C72.2302 41.224 71.0896 41.25 69.7875 41.25H68.6625V31.4062H75.3031V33.0156ZM96.9062 38.6562H94.9219V35.2969H92.7031V33.6875H94.9219V30.2188H96.9062V38.6562ZM92.0469 38.9688C93.0573 38.974 93.9271 39.0859 94.6562 39.3047C95.3906 39.5182 95.9557 39.8307 96.3516 40.2422C96.7474 40.6536 96.9479 41.1458 96.9531 41.7188C96.9479 42.2865 96.7474 42.776 96.3516 43.1875C95.9557 43.599 95.3906 43.9115 94.6562 44.125C93.9219 44.3438 93.0521 44.4531 92.0469 44.4531C91.0417 44.4531 90.1719 44.3438 89.4375 44.125C88.7031 43.9115 88.138 43.599 87.7422 43.1875C87.3516 42.776 87.1562 42.2865 87.1562 41.7188C87.1562 41.1458 87.3516 40.6536 87.7422 40.2422C88.138 39.8307 88.7005 39.5182 89.4297 39.3047C90.1641 39.0859 91.0365 38.974 92.0469 38.9688ZM92.0469 40.5C90.1094 40.5 89.1406 40.9062 89.1406 41.7188C89.1406 42.125 89.3854 42.4297 89.875 42.6328C90.3698 42.8359 91.0938 42.9375 92.0469 42.9375C93 42.9375 93.724 42.8359 94.2188 42.6328C94.7188 42.4245 94.9688 42.1198 94.9688 41.7188C94.9688 40.9062 93.9948 40.5 92.0469 40.5ZM93.125 32.6719H90.2969C90.3125 33.2448 90.4401 33.7969 90.6797 34.3281C90.9245 34.8542 91.2865 35.3281 91.7656 35.75C92.25 36.1719 92.849 36.5 93.5625 36.7344L92.5781 38.2969C91.8177 38.0521 91.1615 37.6875 90.6094 37.2031C90.0625 36.7135 89.6302 36.138 89.3125 35.4766C88.9844 36.2266 88.5312 36.8776 87.9531 37.4297C87.375 37.9766 86.6771 38.3906 85.8594 38.6719L84.8281 37.0938C85.5781 36.8438 86.2057 36.4896 86.7109 36.0312C87.2214 35.5677 87.6016 35.0469 87.8516 34.4688C88.1068 33.8906 88.2448 33.2917 88.2656 32.6719H85.4062V31.0781H93.125V32.6719ZM111.466 42.7812H98.45V41.1562H103.934V38.5312H99.825V31.125H101.825V33.3281H108.028V31.125H110.012V38.5312H105.919V41.1562H111.466V42.7812ZM108.028 36.9375V34.9219H101.825V36.9375H108.028Z" fill="black"/>
<path d="M92.4629 98.8467C92.4629 95.533 95.1492 92.8467 98.4629 92.8467H134.614C137.928 92.8467 140.614 95.533 140.614 98.8467V142.147C140.614 144.357 138.823 146.147 136.614 146.147H96.4629C94.2537 146.147 92.4629 144.357 92.4629 142.147V98.8467Z" fill="#E6F3FF"/>
<path d="M92.4629 94.5293C92.4629 92.3202 94.2538 90.5293 96.4629 90.5293H136.614C138.823 90.5293 140.614 92.3202 140.614 94.5293V101.344H92.4629V94.5293Z" fill="#3095FE"/>
<path d="M88 105.091C88 93.4427 97.4427 84 109.091 84H123.909C135.557 84 145 93.4427 145 105.091C145 106.698 143.698 108 142.091 108H90.9091C89.3024 108 88 106.698 88 105.091Z" fill="#3095FE"/>
<path d="M108.514 129.29C108.514 127.081 110.305 125.29 112.514 125.29H119.62C121.829 125.29 123.62 127.081 123.62 129.29V146.147H108.514V129.29Z" fill="#8CC2FE"/>
<path d="M107.568 127.29C107.568 126.185 108.464 125.29 109.568 125.29H116.066V146.147H107.568V127.29Z" fill="#429CFD"/>
<path d="M117.955 125.29H124.452C125.557 125.29 126.452 126.185 126.452 127.29V146.147H117.955V125.29Z" fill="#429CFD"/>
<circle cx="117" cy="97" r="4" fill="white"/>
<path d="M116.396 100V96.2881H117.408V100H116.396ZM116.349 95.29C116.349 95.0029 116.598 94.7739 116.902 94.7705C117.203 94.7739 117.453 95.0029 117.449 95.29C117.453 95.5703 117.203 95.8027 116.902 95.8027C116.598 95.8027 116.349 95.5703 116.349 95.29Z" fill="#3095FE"/>
<rect x="115" y="113" width="4" height="7" rx="2" fill="#6CAEFB"/>
<rect x="129" y="113" width="4" height="7" rx="2" fill="#6CAEFB"/>
<rect x="101" y="113" width="4" height="7" rx="2" fill="#6CAEFB"/>
<defs>
<filter id="filter0_d_582_4484" x="0" y="0" width="179" height="179" filterUnits="userSpaceOnUse" color-interpolation-filters="sRGB">
<feFlood flood-opacity="0" result="BackgroundImageFix"/>
<feColorMatrix in="SourceAlpha" type="matrix" values="0 0 0 0 0 0 0 0 0 0 0 0 0 0 0 0 0 0 127 0" result="hardAlpha"/>
<feMorphology radius="2" operator="dilate" in="SourceAlpha" result="effect1_dropShadow_582_4484"/>
<feOffset dx="4" dy="4"/>
<feGaussianBlur stdDeviation="5"/>
<feComposite in2="hardAlpha" operator="out"/>
<feColorMatrix type="matrix" values="0 0 0 0 0.617188 0 0 0 0 0.617188 0 0 0 0 0.617188 0 0 0 0.1 0"/>
<feBlend mode="normal" in2="BackgroundImageFix" result="effect1_dropShadow_582_4484"/>
<feBlend mode="normal" in="SourceGraphic" in2="effect1_dropShadow_582_4484" result="shape"/>
</filter>
</defs>
</svg>
