<svg width="311" height="64" viewBox="0 0 311 64" fill="none" xmlns="http://www.w3.org/2000/svg">
<path d="M96 25L103 32L96 39" stroke="#363B48" stroke-width="1.5" stroke-linecap="round" stroke-linejoin="round"/>
<path d="M209 25L216 32L209 39" stroke="#363B48" stroke-width="1.5" stroke-linecap="round" stroke-linejoin="round"/>
<rect width="85" height="64" rx="8" fill="#E0EEFF"/>
<rect x="113" width="85" height="64" rx="8" fill="#E0EEFF"/>
<rect x="226" width="85" height="64" rx="8" fill="#E0EEFF"/>
<path d="M26.6016 24.8535V25.7988H17.75V24.8535H26.6016ZM18.6631 22.3506C18.6631 21.1904 20.0381 20.4707 22.165 20.4707C24.2974 20.4707 25.6616 21.1904 25.667 22.3506C25.6616 23.5269 24.2974 24.2305 22.165 24.2305C20.0381 24.2305 18.6631 23.5269 18.6631 22.3506ZM18.7812 28.1943C18.7812 27.0557 20.0435 26.4272 22.165 26.4326C24.2544 26.4272 25.522 27.0557 25.5273 28.1943C25.522 29.3276 24.2544 29.9614 22.165 29.9561C20.0435 29.9614 18.7812 29.3276 18.7812 28.1943ZM19.9092 22.3506C19.8984 22.9736 20.7471 23.3013 22.165 23.2959C23.583 23.3013 24.4316 22.9736 24.4316 22.3506C24.4316 21.7329 23.583 21.4053 22.165 21.4053C20.7471 21.4053 19.8984 21.7329 19.9092 22.3506ZM19.9951 28.1943C19.9897 28.7476 20.7524 29.0376 22.165 29.0322C23.5562 29.0376 24.3242 28.7476 24.335 28.1943C24.3242 27.625 23.5562 27.335 22.165 27.335C20.7524 27.335 19.9897 27.625 19.9951 28.1943ZM29.5234 25.7773V26.8945H33.8311V25.7773H35.0127V29.8379H28.3525V25.7773H29.5234ZM27.2568 25.0576V24.1016H33.627C33.8311 23.0757 33.8525 22.3022 33.8525 21.6201H28.3525V20.6641H35.0449V21.416C35.0503 22.1572 35.0503 22.9629 34.8086 24.1016H36.1299V25.0576H27.2568ZM29.5234 28.8711H33.8311V27.8184H29.5234V28.8711ZM44.9062 20.2451V29.9668H43.7139V25.0039H41.834V24.0371H43.7139V20.2451H44.9062ZM36.7422 27.1953C38.2568 26.5078 39.1162 24.8535 39.1162 23.3281V22.8232H37.0322V21.8672H39.127V20.4492H40.3193V21.8672H42.3496V22.8232H40.3086V23.3281C40.3032 24.7944 41.1841 26.3628 42.7148 27.0449L42.0703 27.958C40.9639 27.4854 40.1528 26.5132 39.7231 25.353C39.2988 26.583 38.4985 27.6196 37.3867 28.1191L36.7422 27.1953ZM54.3379 20.2451V29.9561H53.1455V20.2451H54.3379ZM46.3672 27.1953C47.9141 26.5132 48.8057 24.8804 48.8057 23.3281V22.8232H46.668V21.8672H48.8057V20.4492H49.9873V21.8672H52.082V22.8232H49.998V23.3281C49.9927 24.8052 50.9004 26.3896 52.4688 27.0449L51.8135 27.958C50.7017 27.4854 49.8638 26.5186 49.418 25.3477C48.9829 26.5884 48.145 27.625 47.0117 28.1191L46.3672 27.1953ZM63.5654 20.8467V24.8857H58.8818V20.8467H63.5654ZM59.4619 29.0107C61.3257 28.8496 62.5181 28.0225 62.6255 27.249H59.8594V26.3467H62.6523V25.498H63.8555V26.3467H66.6592V27.249H63.8877C63.9951 28.001 65.166 28.8228 67.0244 29.0107L66.6162 29.9238C65.0425 29.7573 63.8501 29.1396 63.2593 28.334C62.6631 29.1504 61.4546 29.752 59.8701 29.9238L59.4619 29.0107ZM60.0635 23.9512H62.3838V21.792H60.0635V23.9512ZM65.2734 25.7773V20.2451H66.4551V25.7773H65.2734ZM24.1362 34.8359V36.2324H26.3062V34.8359H27.4878V35.7383H29.4429V34.2451H30.6353V40.0781H29.4429V38.6816H27.4878V39.4551H22.9438V34.8359H24.1362ZM24.0503 42.1084C24.0396 40.9268 25.3018 40.25 27.3481 40.25C29.4053 40.25 30.6621 40.9268 30.6675 42.1084C30.6621 43.2686 29.4053 43.9453 27.3481 43.9453C25.3018 43.9453 24.0396 43.2686 24.0503 42.1084ZM24.1362 38.5205H26.3062V37.167H24.1362V38.5205ZM25.2319 42.1084C25.2266 42.6992 26 43.0215 27.3481 43.0215C28.707 43.0215 29.4751 42.6992 29.4751 42.1084C29.4751 41.4854 28.707 41.1685 27.3481 41.1631C26 41.1685 25.2266 41.4854 25.2319 42.1084ZM27.4878 37.7148H29.4429V36.6836H27.4878V37.7148ZM40.1528 34.2559V41.6035H38.9497V40.7549H37.0483V39.917H38.9497V34.2559H40.1528ZM31.9673 38.6172C33.7559 38.6064 36.1675 38.5903 38.23 38.3271L38.2944 39.1865C37.4941 39.3208 36.667 39.4067 35.8452 39.4658V41.335H34.6528V39.5303C33.7451 39.5679 32.8804 39.5732 32.1177 39.5732L31.9673 38.6172ZM32.7085 36.3291C32.7085 35.3032 33.6968 34.605 35.1362 34.6104C36.5488 34.605 37.5425 35.3032 37.5532 36.3291C37.5425 37.3711 36.5488 38.0317 35.1362 38.0371C33.6968 38.0317 32.7085 37.3711 32.7085 36.3291ZM33.2563 43.7627V40.8945H34.4487V42.7959H40.3784V43.7627H33.2563ZM33.8364 36.3291C33.8364 36.8555 34.3574 37.1616 35.1362 37.167C35.8774 37.1616 36.4092 36.8555 36.4146 36.3291C36.4092 35.8027 35.8774 35.4858 35.1362 35.4912C34.3574 35.4858 33.8364 35.8027 33.8364 36.3291ZM52.4956 35.2871V36.2539H44.5679V35.2871H47.9517V34.2236H49.1333V35.2871H52.4956ZM44.1274 41.4961V40.5186H53.0005V41.4961H49.1333V43.9668H47.9517V41.4961H44.1274ZM45.2554 38.3379C45.2554 37.2744 46.4907 36.6943 48.5425 36.6943C50.5942 36.6943 51.8296 37.2744 51.8296 38.3379C51.8296 39.396 50.5942 39.9814 48.5425 39.9814C46.4907 39.9814 45.2554 39.396 45.2554 38.3379ZM46.5015 38.3379C46.4961 38.8374 47.1997 39.0952 48.5425 39.0898C49.8799 39.0952 50.5889 38.8374 50.5942 38.3379C50.5889 37.8438 49.8799 37.5859 48.5425 37.5859C47.1997 37.5859 46.4961 37.8438 46.5015 38.3379ZM58.6401 37.6719V38.9395H62.4858V39.8955H53.6343V38.9395H57.4585V37.6719H58.6401ZM54.1177 37.2852C56.1211 37.0327 57.437 35.9316 57.437 34.7715V34.4062H58.6509V34.7715C58.6509 35.9585 59.9561 37.0327 61.981 37.2852L61.519 38.2197C59.9292 37.978 58.6562 37.2583 58.0386 36.2378C57.4155 37.2529 56.1479 37.978 54.5474 38.2197L54.1177 37.2852ZM54.6655 42.2373C54.6655 41.147 55.9277 40.5239 58.0493 40.5293C60.1548 40.5239 61.4062 41.147 61.4116 42.2373C61.4062 43.3384 60.1548 43.9453 58.0493 43.9453C55.9277 43.9453 54.6655 43.3384 54.6655 42.2373ZM55.8794 42.2373C55.874 42.769 56.6206 43.043 58.0493 43.043C59.4512 43.043 60.2085 42.769 60.2192 42.2373C60.2085 41.7056 59.4512 41.4424 58.0493 41.4424C56.6206 41.4424 55.874 41.7056 55.8794 42.2373Z" fill="black"/>
<path d="M131.421 27.7969V28.7744H122.548V27.7969H124.6V25.3423C123.827 24.8965 123.359 24.1982 123.365 23.3389C123.359 21.792 124.874 20.7715 126.963 20.7715C129.063 20.7715 130.589 21.792 130.583 23.3389C130.589 24.1875 130.132 24.8696 129.38 25.3154V27.7969H131.421ZM124.536 23.3389C124.53 24.3325 125.513 24.9663 126.963 24.9609C128.408 24.9663 129.413 24.3325 129.413 23.3389C129.413 22.3291 128.408 21.7114 126.963 21.7168C125.513 21.7114 124.53 22.3291 124.536 23.3389ZM125.782 27.7969H128.167V25.772C127.796 25.8525 127.393 25.8955 126.963 25.8955C126.544 25.8955 126.147 25.8525 125.782 25.7773V27.7969ZM141.036 21.5449V22.5225H139.714V23.6289H141.036V24.6172H139.714V25.9492H138.522V20.2451H139.714V21.5449H141.036ZM132.163 23.124C132.157 21.7544 133.285 20.793 134.784 20.8037C136.277 20.793 137.394 21.7544 137.405 23.124C137.394 24.4883 136.277 25.4497 134.784 25.4551C133.285 25.4497 132.157 24.4883 132.163 23.124ZM133.269 28.0654C133.269 26.8784 134.547 26.1802 136.556 26.1748C138.549 26.1802 139.806 26.8784 139.811 28.0654C139.806 29.2417 138.549 29.9453 136.556 29.9453C134.547 29.9453 133.269 29.2417 133.269 28.0654ZM133.333 23.124C133.328 23.9297 133.946 24.4399 134.784 24.4453C135.611 24.4399 136.229 23.9297 136.234 23.124C136.229 22.3237 135.611 21.7974 134.784 21.8027C133.946 21.7974 133.328 22.3237 133.333 23.124ZM134.461 28.0654C134.461 28.6777 135.224 28.9893 136.556 28.9893C137.883 28.9893 138.629 28.6777 138.629 28.0654C138.629 27.4585 137.883 27.1309 136.556 27.1309C135.224 27.1309 134.461 27.4585 134.461 28.0654ZM143.829 25.7773V26.8945H148.136V25.7773H149.318V29.8379H142.658V25.7773H143.829ZM141.562 25.0576V24.1016H147.932C148.136 23.0757 148.158 22.3022 148.158 21.6201H142.658V20.6641H149.35V21.416C149.355 22.1572 149.355 22.9629 149.114 24.1016H150.435V25.0576H141.562ZM143.829 28.8711H148.136V27.8184H143.829V28.8711ZM153.722 20.9541C154.598 20.9541 155.323 21.4429 155.758 22.2969H158.03V20.2451H159.211V29.9668H158.03V26.293H155.844C155.419 27.2598 154.657 27.8184 153.722 27.8184C152.261 27.8184 151.225 26.4917 151.23 24.3809C151.225 22.2861 152.261 20.9541 153.722 20.9541ZM152.379 24.3809C152.374 25.874 152.922 26.7388 153.722 26.7441C154.528 26.7388 155.07 25.874 155.076 24.3809C155.07 22.8984 154.528 22.0283 153.722 22.0283C152.922 22.0283 152.374 22.8984 152.379 24.3809ZM156.096 23.2744C156.166 23.6128 156.204 23.9834 156.204 24.3809C156.204 24.7139 156.177 25.0308 156.123 25.3262H158.03V23.2744H156.096ZM168.665 20.2559V27.3457H167.461V20.2559H168.665ZM160.586 25.0576C162.16 24.5044 162.966 23.1348 162.96 21.7383V20.793H164.196V21.7383C164.19 23.0918 164.985 24.3701 166.527 24.8857L165.915 25.8311C164.808 25.4443 164.019 24.6709 163.589 23.6772C163.159 24.7407 162.354 25.5894 161.209 26.0029L160.586 25.0576ZM162.241 29.7627V26.6689H163.444V28.7959H168.933V29.7627H162.241ZM173.574 22.3184C173.568 23.3818 174.401 24.4292 175.926 24.8428L175.368 25.7666C174.25 25.4604 173.445 24.8105 172.999 23.9673C172.575 24.918 171.769 25.6699 170.609 26.0137L170.05 25.0898C171.57 24.6279 172.381 23.4893 172.381 22.3184V22.2646H170.351V21.3193H172.381V20.2021H173.584V21.3193H175.604V22.2646H173.574V22.3184ZM171.629 28.1191C171.619 26.9644 172.886 26.3145 174.927 26.3145C176.979 26.3145 178.241 26.9644 178.247 28.1191C178.241 29.2739 176.979 29.9453 174.927 29.9453C172.886 29.9453 171.619 29.2739 171.629 28.1191ZM172.811 28.1191C172.806 28.6938 173.579 29.0215 174.927 29.0215C176.302 29.0215 177.054 28.6938 177.054 28.1191C177.054 27.5391 176.302 27.2329 174.927 27.2275C173.579 27.2329 172.806 27.5391 172.811 28.1191ZM175.314 23.876V22.9092H177.022V20.2451H178.214V26.1211H177.022V23.876H175.314ZM183.177 22.5762C183.172 24.3809 184.037 26.1533 185.583 26.8301L184.864 27.7861C183.768 27.249 182.995 26.2178 182.581 24.9448C182.157 26.2876 181.362 27.4048 180.245 27.9688L179.493 27.002C181.077 26.2607 181.958 24.3916 181.963 22.5762V21.0293H183.177V22.5762ZM184.509 24.3486V23.3818H186.55V20.2451H187.732V29.9668H186.55V24.3486H184.509ZM132.925 35.9316C132.925 37.1294 133.693 38.3057 135.224 38.8105L134.623 39.7344C133.532 39.3691 132.764 38.644 132.34 37.7363C131.91 38.73 131.104 39.5195 129.971 39.9062L129.337 38.9824C130.9 38.4614 131.722 37.2046 131.722 35.9316V35.8135H129.67V34.8574H134.945V35.8135H132.925V35.9316ZM130.637 41.5068V40.5508H137.104V43.9561H135.912V41.5068H130.637ZM135.912 40.0996V34.2451H137.104V36.6729H138.458V37.6719H137.104V40.0996H135.912ZM142.507 35.6416C142.502 36.9629 143.275 38.1714 144.795 38.6494L144.151 39.584C143.093 39.208 142.352 38.499 141.938 37.5806C141.508 38.6387 140.697 39.4712 139.521 39.8848L138.887 38.918C140.493 38.3916 141.299 37.0972 141.304 35.6953V34.7715H142.507V35.6416ZM140.499 42.0869C140.488 40.9053 141.75 40.2124 143.796 40.2178C145.854 40.2124 147.11 40.9053 147.116 42.0869C147.11 43.2686 145.854 43.9453 143.796 43.9453C141.75 43.9453 140.488 43.2686 140.499 42.0869ZM141.68 42.0869C141.675 42.6777 142.448 43.0054 143.796 43.0107C145.155 43.0054 145.923 42.6777 145.923 42.0869C145.923 41.4746 145.155 41.147 143.796 41.1416C142.448 41.147 141.675 41.4746 141.68 42.0869ZM143.958 37.1025V36.125H145.891V34.2451H147.083V39.96H145.891V37.1025H143.958ZM156.247 34.8467V38.8857H151.563V34.8467H156.247ZM152.143 43.0107C154.007 42.8496 155.199 42.0225 155.307 41.249H152.541V40.3467H155.333V39.498H156.537V40.3467H159.34V41.249H156.569C156.676 42.001 157.847 42.8228 159.706 43.0107L159.297 43.9238C157.724 43.7573 156.531 43.1396 155.94 42.334C155.344 43.1504 154.136 43.752 152.551 43.9238L152.143 43.0107ZM152.745 37.9512H155.065V35.792H152.745V37.9512ZM157.955 39.7773V34.2451H159.136V39.7773H157.955ZM171.543 34.2451V43.9561H170.405V34.2451H171.543ZM163.014 41.1953C164.416 40.3413 165.034 38.5903 165.034 36.8984V36.2539H163.347V35.2871H167.751V36.2539H166.183V36.8984C166.183 38.5366 166.769 40.1802 168.16 40.9805L167.451 41.8613C166.554 41.3296 165.958 40.4058 165.619 39.2993C165.275 40.4971 164.658 41.5176 163.745 42.0869L163.014 41.1953ZM167.042 38.5957V37.6289H168.439V34.4277H169.567V43.4834H168.439V38.5957H167.042ZM181.523 38.4453V39.3262H177.699V40.0352H180.438V42.3125H174.917V42.9785H180.707V43.8701H173.746V41.4961H179.267V40.8945H173.735V40.0352H176.517V39.3262H172.714V38.4453H181.523ZM173.101 37.2314C175.019 37.1348 176.146 36.6191 176.394 35.9316H173.563V35.04H176.517V34.2236H177.699V35.04H180.674V35.9316H177.822C178.059 36.6191 179.187 37.1348 181.125 37.2314L180.771 38.123C179.025 38.0156 177.72 37.543 177.108 36.7588C176.496 37.543 175.196 38.0156 173.434 38.123L173.101 37.2314Z" fill="black"/>
<path d="M248.59 20.8037V21.6094C248.595 22.4258 248.595 23.3657 248.37 24.5957H249.675V25.5732H240.802V24.5957H247.156C247.381 23.4248 247.397 22.5601 247.397 21.7705H241.897V20.8037H248.59ZM241.951 29.752V26.4971H243.133V28.7852H248.869V29.752H241.951ZM259.182 27.8398V28.8281H250.309V27.8398H254.133V26.2607H251.361V23.0811H256.947V21.8779H251.34V20.9111H258.129V24.0264H252.554V25.2832H258.354V26.2607H255.314V27.8398H259.182ZM268.667 25.1328V26.0889H259.815V25.1328H263.629V24.1982H260.965V20.4814H262.146V21.4482H266.336V20.4814H267.518V24.1982H264.832V25.1328H268.667ZM260.793 27.8076V26.8623H267.582V29.9561H266.39V27.8076H260.793ZM262.146 23.2422H266.336V22.3398H262.146V23.2422ZM272.985 23.0059C272.985 24.5957 273.92 26.2715 275.488 26.9268L274.833 27.8721C273.684 27.3726 272.846 26.3574 272.4 25.1221C271.954 26.4541 271.1 27.5713 269.967 28.1084L269.279 27.1738C270.81 26.4648 271.766 24.6548 271.771 23.0059V22.1895H269.634V21.2012H275.112V22.1895H272.985V23.0059ZM276.197 29.9561V20.2451H277.4V29.9561H276.197ZM283.201 26.3145C285.312 26.3198 286.644 26.9858 286.649 28.1406C286.644 29.2686 285.312 29.9453 283.201 29.9453C281.112 29.9453 279.764 29.2686 279.764 28.1406C279.764 26.9858 281.112 26.3198 283.201 26.3145ZM278.851 25.6162V24.6494H282.267V22.8877H283.448V24.6494H287.659V25.6162H278.851ZM279.86 21.6523V20.707H286.585V21.5127C286.59 22.2808 286.59 23.0972 286.316 24.0908L285.135 23.9834C285.376 23.0435 285.393 22.356 285.393 21.6523H279.86ZM280.967 28.1406C280.956 28.71 281.799 29.0215 283.201 29.0215C284.608 29.0215 285.457 28.71 285.468 28.1406C285.457 27.5498 284.608 27.2168 283.201 27.2168C281.799 27.2168 280.956 27.5498 280.967 28.1406ZM295.995 20.2451V22.9736H297.359V23.9619H295.995V27.2705H294.803V20.2451H295.995ZM288.744 25.627V21.0508H293.095V22.0068H289.926V24.6494C291.752 24.6494 292.767 24.5903 293.922 24.3486L294.051 25.3154C292.778 25.5679 291.65 25.627 289.528 25.627H288.744ZM289.775 29.7627V26.5293H290.968V28.7959H296.382V29.7627H289.775ZM251.034 34.2559V39.7451H249.831V34.2559H251.034ZM242.945 38.6064C244.519 38.1069 245.335 36.8447 245.33 35.5664V34.6211H246.565V35.5664C246.56 36.8071 247.387 37.9619 248.907 38.4453L248.327 39.3584C247.204 39.0093 246.398 38.2949 245.958 37.3657C245.523 38.3647 244.701 39.165 243.536 39.5518L242.945 38.6064ZM244.588 43.8379V40.2285H251.034V43.8379H244.588ZM245.77 42.8711H249.863V41.1738H245.77V42.8711ZM255.921 36.5762C255.911 38.311 256.781 40.062 258.285 40.7871L257.554 41.7432C256.501 41.2114 255.744 40.1855 255.331 38.9502C254.906 40.2715 254.111 41.3672 253 41.9258L252.269 40.9697C253.832 40.2285 254.724 38.3701 254.729 36.5762V35.0293H255.921V36.5762ZM258.865 43.9561V34.2451H260.057V38.0479H261.55V39.0684H260.057V43.9561H258.865ZM269.747 34.8467V38.8857H265.063V34.8467H269.747ZM265.643 43.0107C267.507 42.8496 268.699 42.0225 268.807 41.249H266.041V40.3467H268.833V39.498H270.037V40.3467H272.84V41.249H270.069C270.176 42.001 271.347 42.8228 273.206 43.0107L272.797 43.9238C271.224 43.7573 270.031 43.1396 269.44 42.334C268.844 43.1504 267.636 43.752 266.051 43.9238L265.643 43.0107ZM266.245 37.9512H268.565V35.792H266.245V37.9512ZM271.455 39.7773V34.2451H272.636V39.7773H271.455ZM284.818 34.2451V39.165H283.625V38.3164H281.284V37.4033H283.625V36.4473H281.407C280.806 37.9297 279.382 38.8965 277.234 39.3799L276.815 38.4023C279.098 37.9243 280.236 36.9199 280.403 35.6309H277.352V34.6641H281.735C281.735 34.9702 281.708 35.2603 281.665 35.5342H283.625V34.2451H284.818ZM278.426 40.4863V39.541H284.818V42.0977H279.629V42.9033H285.076V43.8594H278.437V41.2061H283.625V40.4863H278.426ZM294.325 34.2451V40.0137H293.132V37.6396H291.478V36.6621H293.132V34.2451H294.325ZM286.161 39.0469C287.724 38.5098 288.545 37.2046 288.545 35.9209V35.8457H286.526V34.8789H291.768V35.8457H289.759V35.9102C289.759 37.0918 290.543 38.2842 292.047 38.7891L291.446 39.7344C290.366 39.3691 289.604 38.6279 289.174 37.7148C288.75 38.7461 287.938 39.584 286.784 39.9922L286.161 39.0469ZM287.74 42.1084C287.729 40.9429 288.991 40.2607 291.038 40.2607C293.095 40.2607 294.352 40.9429 294.357 42.1084C294.352 43.2739 293.095 43.9507 291.038 43.9561C288.991 43.9507 287.729 43.2739 287.74 42.1084ZM288.921 42.1084C288.916 42.71 289.689 43.0376 291.038 43.0322C292.396 43.0376 293.165 42.71 293.165 42.1084C293.165 41.5015 292.396 41.1738 291.038 41.1738C289.689 41.1738 288.916 41.5015 288.921 42.1084Z" fill="black"/>
</svg>
