<svg width="334" height="120" viewBox="0 0 334 120" fill="none" xmlns="http://www.w3.org/2000/svg">
<rect x="0.5" y="0.5" width="333" height="119" rx="7.5" fill="#E0EEFF" stroke="black"/>
<path d="M22.9541 20.5947H22.2236L22.2881 18.9297L20.8701 19.8213L20.5049 19.1875L21.9873 18.4141L20.5049 17.6299L20.8701 16.9961L22.2881 17.8877L22.2236 16.2227H22.9541L22.8896 17.8877L24.3076 16.9961L24.6729 17.6299L23.2012 18.4141L24.6729 19.1875L24.3076 19.8213L22.8896 18.9297L22.9541 20.5947ZM28.1963 15.7715C29.4746 15.7661 30.4521 16.5127 30.6348 17.6084H32.6328V15.3203H33.4814V20.4443H32.6328V18.3066H30.6401C30.4736 19.4346 29.4907 20.1865 28.1963 20.1865C26.7407 20.1865 25.7095 19.2842 25.7148 17.9736C25.7095 16.6792 26.7407 15.7661 28.1963 15.7715ZM26.5205 17.9736C26.5205 18.8438 27.2134 19.4722 28.1963 19.4775C29.1577 19.4722 29.8506 18.8438 29.8506 17.9736C29.8506 17.0928 29.1577 16.4805 28.1963 16.4912C27.2134 16.4805 26.5205 17.0928 26.5205 17.9736ZM27.3262 24.7412V20.9277H28.1748V22.1416H32.6328V20.9277H33.4814V24.7412H27.3262ZM28.1748 24.0537H32.6328V22.8184H28.1748V24.0537ZM43.8047 20.874V21.5723H39.8193V24.8701H38.9922V21.5723H35.0605V20.874H43.8047ZM36.1885 19.5742V15.8574H42.666V19.5742H36.1885ZM37.0156 18.9082H41.8281V16.5449H37.0156V18.9082ZM47.7686 16.8672C47.7686 18.167 48.7568 19.3594 50.1426 19.832L49.6807 20.498C48.6279 20.1113 47.7954 19.3218 47.3765 18.3228C46.9683 19.4561 46.1143 20.3315 44.9971 20.7666L44.5459 20.0898C45.9746 19.5581 46.936 18.2798 46.9414 16.8027V15.8145H47.7686V16.8672ZM45.8135 23.1084C45.8188 22.0181 47.0166 21.3789 48.9824 21.3789C50.9429 21.3789 52.1299 22.0181 52.1299 23.1084C52.1299 24.2202 50.9429 24.8486 48.9824 24.8486C47.0166 24.8486 45.8188 24.2202 45.8135 23.1084ZM46.6621 23.1084C46.6514 23.7852 47.543 24.1772 48.9824 24.1826C50.4272 24.1772 51.3081 23.7852 51.3135 23.1084C51.3081 22.4585 50.4272 22.0557 48.9824 22.0557C47.543 22.0557 46.6514 22.4585 46.6621 23.1084ZM51.2061 21.1318V15.3203H52.0439V17.8125H53.4834V18.5215H52.0439V21.1318H51.2061ZM65.0527 15.3203V24.8701H64.2363V19.9072H62.9365V24.3867H62.1309V15.5244H62.9365V19.1875H64.2363V15.3203H65.0527ZM56.749 22.249C58.124 21.4917 58.8599 19.8696 58.8545 17.9307V17.168H56.9746V16.459H61.4434V17.168H59.6709V17.9307C59.6709 19.6763 60.396 21.2178 61.7549 21.916L61.25 22.5713C60.2886 22.0449 59.6226 21.105 59.2842 19.9395C58.9565 21.2661 58.2798 22.3081 57.2754 22.8936L56.749 22.249ZM71.1221 16.9746V17.6621H66.3311V16.9746H68.3184V15.6104H69.1562V16.9746H71.1221ZM66.6748 20.4766C66.6748 19.209 67.5396 18.312 68.7266 18.3066C69.9297 18.312 70.7891 19.209 70.7998 20.4766C70.7891 21.7603 69.9297 22.6626 68.7266 22.668C67.5396 22.6626 66.6748 21.7603 66.6748 20.4766ZM67.4268 20.4766C67.4268 21.3252 67.9692 21.9321 68.7266 21.9268C69.4893 21.9321 70.0479 21.3252 70.0479 20.4766C70.0479 19.6387 69.4893 19.0264 68.7266 19.0156C67.9692 19.0264 67.4268 19.6387 67.4268 20.4766ZM71.6162 24.3975V15.5566H72.4111V19.3486H73.6787V15.3203H74.4844V24.8701H73.6787V20.0469H72.4111V24.3975H71.6162Z" fill="black"/>
<path d="M23.0186 36.7715C24.2969 36.7661 25.2744 37.5127 25.457 38.6084H27.4551V36.3203H28.3037V41.4443H27.4551V39.3066H25.4624C25.2959 40.4346 24.313 41.1865 23.0186 41.1865C21.563 41.1865 20.5317 40.2842 20.5371 38.9736C20.5317 37.6792 21.563 36.7661 23.0186 36.7715ZM21.3428 38.9736C21.3428 39.8438 22.0356 40.4722 23.0186 40.4775C23.98 40.4722 24.6729 39.8438 24.6729 38.9736C24.6729 38.0928 23.98 37.4805 23.0186 37.4912C22.0356 37.4805 21.3428 38.0928 21.3428 38.9736ZM22.1484 45.7412V41.9277H22.9971V43.1416H27.4551V41.9277H28.3037V45.7412H22.1484ZM22.9971 45.0537H27.4551V43.8184H22.9971V45.0537ZM38.627 41.874V42.5723H34.6416V45.8701H33.8145V42.5723H29.8828V41.874H38.627ZM31.0107 40.5742V36.8574H37.4883V40.5742H31.0107ZM31.8379 39.9082H36.6504V37.5449H31.8379V39.9082ZM42.2793 36.9434C43.7456 36.9541 44.8198 37.8564 44.8252 39.1885C44.8198 40.3862 43.9497 41.2349 42.709 41.396V43.0181C43.6006 42.9805 44.4976 42.916 45.3301 42.8086L45.3838 43.4424C43.3589 43.7861 41.103 43.8076 39.4219 43.7969L39.2822 43.0879C40.0503 43.0825 40.9365 43.0771 41.8604 43.0503V41.396C40.5928 41.2456 39.728 40.3916 39.7334 39.1885C39.728 37.8564 40.7861 36.9541 42.2793 36.9434ZM40.5605 39.1885C40.5498 40.0854 41.2749 40.7085 42.2793 40.7031C43.2676 40.7085 43.9873 40.0854 43.998 39.1885C43.9873 38.2915 43.2676 37.6792 42.2793 37.6738C41.2749 37.6792 40.5498 38.2915 40.5605 39.1885ZM45.9424 45.8701V36.3203H46.7803V40.2627H48.3379V40.9932H46.7803V45.8701H45.9424ZM59.875 36.3203V45.8701H59.0586V40.9072H57.7588V45.3867H56.9531V36.5244H57.7588V40.1875H59.0586V36.3203H59.875ZM51.5713 43.249C52.9463 42.4917 53.6821 40.8696 53.6768 38.9307V38.168H51.7969V37.459H56.2656V38.168H54.4932V38.9307C54.4932 40.6763 55.2183 42.2178 56.5771 42.916L56.0723 43.5713C55.1108 43.0449 54.4448 42.105 54.1064 40.9395C53.7788 42.2661 53.1021 43.3081 52.0977 43.8936L51.5713 43.249ZM65.9443 37.9746V38.6621H61.1533V37.9746H63.1406V36.6104H63.9785V37.9746H65.9443ZM61.4971 41.4766C61.4971 40.209 62.3618 39.312 63.5488 39.3066C64.752 39.312 65.6113 40.209 65.6221 41.4766C65.6113 42.7603 64.752 43.6626 63.5488 43.668C62.3618 43.6626 61.4971 42.7603 61.4971 41.4766ZM62.249 41.4766C62.249 42.3252 62.7915 42.9321 63.5488 42.9268C64.3115 42.9321 64.8701 42.3252 64.8701 41.4766C64.8701 40.6387 64.3115 40.0264 63.5488 40.0156C62.7915 40.0264 62.249 40.6387 62.249 41.4766ZM66.4385 45.3975V36.5566H67.2334V40.3486H68.501V36.3203H69.3066V45.8701H68.501V41.0469H67.2334V45.3975H66.4385ZM76.6436 38.8877C76.6436 40.5688 77.7554 42.3037 79.1143 42.9697L78.5986 43.6465C77.5459 43.0986 76.665 41.9653 76.2407 40.6387C75.8164 42.0459 74.9141 43.2544 73.8398 43.8291L73.3027 43.1523C74.6992 42.4648 75.8057 40.6333 75.8164 38.8877V37.1475H76.6436V38.8877ZM79.9951 45.8701V36.3203H80.833V40.1982H82.4336V40.9287H80.833V45.8701H79.9951ZM90.8232 36.3203V45.8916H89.9746V36.3203H90.8232ZM83.3037 40.3916C83.3091 38.3613 84.3188 37.0669 85.7422 37.0615C87.1602 37.0669 88.186 38.3613 88.1807 40.3916C88.186 42.4272 87.1602 43.7163 85.7422 43.7109C84.3188 43.7163 83.3091 42.4272 83.3037 40.3916ZM84.1201 40.3916C84.1201 41.9438 84.7861 42.9644 85.7422 42.959C86.7036 42.9644 87.3643 41.9438 87.3643 40.3916C87.3643 38.8394 86.7036 37.8188 85.7422 37.8135C84.7861 37.8188 84.1201 38.8394 84.1201 40.3916ZM100.642 36.3203V45.8701H99.8252V36.3203H100.642ZM92.5742 40.4453C92.5796 38.415 93.3853 37.1313 94.626 37.126C95.7861 37.1313 96.5703 38.2485 96.6777 40.0479H97.9131V36.5244H98.7188V45.3867H97.9131V40.7461H96.6831C96.6025 42.6045 95.8022 43.77 94.626 43.7646C93.3853 43.77 92.5796 42.4756 92.5742 40.4453ZM93.3691 40.4453C93.3584 41.9922 93.8525 42.9697 94.626 42.959C95.4048 42.9697 95.8989 41.9922 95.8936 40.4453C95.8989 38.8931 95.4048 37.9209 94.626 37.9209C93.8525 37.9209 93.3584 38.8931 93.3691 40.4453ZM107.914 37.8672C107.914 39.167 108.902 40.3594 110.288 40.832L109.826 41.498C108.773 41.1113 107.941 40.3218 107.522 39.3228C107.114 40.4561 106.26 41.3315 105.143 41.7666L104.691 41.0898C106.12 40.5581 107.082 39.2798 107.087 37.8027V36.8145H107.914V37.8672ZM105.959 44.1084C105.964 43.0181 107.162 42.3789 109.128 42.3789C111.088 42.3789 112.275 43.0181 112.275 44.1084C112.275 45.2202 111.088 45.8486 109.128 45.8486C107.162 45.8486 105.964 45.2202 105.959 44.1084ZM106.808 44.1084C106.797 44.7852 107.688 45.1772 109.128 45.1826C110.573 45.1772 111.454 44.7852 111.459 44.1084C111.454 43.4585 110.573 43.0557 109.128 43.0557C107.688 43.0557 106.797 43.4585 106.808 44.1084ZM111.352 42.1318V36.3203H112.189V38.8125H113.629V39.5215H112.189V42.1318H111.352ZM121.707 36.3203V38.8125H123.136V39.5215H121.707V42.0244H120.858V36.3203H121.707ZM114.671 41.2402V37.0508H118.914V37.749H115.498V40.5527C117.432 40.542 118.543 40.4829 119.827 40.2197L119.913 40.918C118.576 41.1865 117.432 41.2402 115.412 41.2402H114.671ZM115.466 44.0225C115.471 42.8784 116.685 42.2124 118.635 42.207C120.584 42.2124 121.782 42.8784 121.782 44.0225C121.782 45.1826 120.584 45.8486 118.635 45.8486C116.685 45.8486 115.471 45.1826 115.466 44.0225ZM116.293 44.0225C116.298 44.7314 117.195 45.1665 118.635 45.1719C120.063 45.1665 120.971 44.7314 120.966 44.0225C120.971 43.3188 120.063 42.8945 118.635 42.9053C117.195 42.8945 116.298 43.3188 116.293 44.0225ZM134.383 36.3311V43.3135H133.545V36.3311H134.383ZM126.724 39.3389C126.718 37.9639 127.798 37.0024 129.227 36.9971C130.655 37.0024 131.724 37.9639 131.729 39.3389C131.724 40.73 130.655 41.6968 129.227 41.6914C127.798 41.6968 126.718 40.73 126.724 39.3389ZM127.551 39.3389C127.54 40.2896 128.26 40.9502 129.227 40.9502C130.177 40.9502 130.902 40.2896 130.902 39.3389C130.902 38.4043 130.177 37.7383 129.227 37.7383C128.26 37.7383 127.54 38.4043 127.551 39.3389ZM128.217 45.666V42.6045H129.055V44.957H134.684V45.666H128.217ZM141.301 37.3838V37.8779C141.295 38.6353 141.295 39.8975 141.021 41.6699L140.173 41.5947C140.436 39.9941 140.458 38.834 140.452 38.0713H136.445V37.3838H141.301ZM135.908 43.0664C136.537 43.061 137.235 43.0557 137.971 43.0396V40.1123H138.798V43.0127C139.856 42.9751 140.941 42.9053 141.935 42.7871L141.978 43.4209C139.969 43.7324 137.724 43.7754 136.016 43.7646L135.908 43.0664ZM142.536 45.8701V36.3203H143.374V40.3164H144.921V41.0469H143.374V45.8701H142.536ZM150.808 37.0615V37.5664C150.802 38.1948 150.802 39.1455 150.561 40.3916L149.712 40.3271C149.943 39.1885 149.964 38.3774 149.975 37.7705H146.049V37.0615H150.808ZM145.458 41.2832C146.076 41.2832 146.774 41.2778 147.51 41.2563V39.1777H148.348V41.2295C149.406 41.1865 150.501 41.1113 151.495 40.9717L151.549 41.5947C149.545 41.9385 147.247 41.9761 145.544 41.9814L145.458 41.2832ZM146.93 45.666V42.8623H147.778V44.957H153.311V45.666H146.93ZM152.14 43.5068V36.3203H152.999V39.4355H154.396V40.1553H152.999V43.5068H152.14ZM163.193 36.3203V45.8701H162.388V36.3203H163.193ZM155.008 43.1953C157.086 41.9653 158.128 40.2412 158.295 38.2432H155.438V37.5449H159.133C159.133 38.0337 159.09 38.5171 159.004 38.9844H160.454V36.5781H161.26V45.3867H160.454V42.0781H158.682V41.3799H160.454V39.6826H158.837C158.375 41.2993 157.328 42.728 155.523 43.8076L155.008 43.1953ZM171.916 36.3203V40.209H173.463V40.918H171.916V45.8701H171.078V36.3203H171.916ZM164.59 43.3887C167.055 42.1641 168.398 40.3218 168.591 38.0605H165.03V37.3516H169.445C169.44 40.0532 168.172 42.5186 165.062 44.0547L164.59 43.3887ZM184.678 36.3311V43.3135H183.84V36.3311H184.678ZM177.019 39.3389C177.013 37.9639 178.093 37.0024 179.521 36.9971C180.95 37.0024 182.019 37.9639 182.024 39.3389C182.019 40.73 180.95 41.6968 179.521 41.6914C178.093 41.6968 177.013 40.73 177.019 39.3389ZM177.846 39.3389C177.835 40.2896 178.555 40.9502 179.521 40.9502C180.472 40.9502 181.197 40.2896 181.197 39.3389C181.197 38.4043 180.472 37.7383 179.521 37.7383C178.555 37.7383 177.835 38.4043 177.846 39.3389ZM178.512 45.666V42.6045H179.35V44.957H184.979V45.666H178.512ZM194.217 36.3203V42.0137H193.368V39.5107H191.445V38.8125H193.368V36.3203H194.217ZM186.343 41.251C187.761 40.7407 188.771 39.4463 188.771 38.082V37.7275H186.611V37.0186H191.757V37.7275H189.619V38.0713C189.619 39.3174 190.575 40.5044 191.972 40.9824L191.531 41.6592C190.462 41.2725 189.63 40.4668 189.216 39.4839C188.808 40.6011 187.922 41.4927 186.783 41.9277L186.343 41.251ZM187.847 44.0869C187.841 42.9644 189.061 42.3091 191.048 42.3145C193.03 42.3091 194.249 42.9644 194.249 44.0869C194.249 45.2148 193.03 45.8594 191.048 45.8701C189.061 45.8594 187.841 45.2148 187.847 44.0869ZM188.685 44.0869C188.679 44.7798 189.582 45.1987 191.048 45.1934C192.509 45.1987 193.411 44.7798 193.411 44.0869C193.411 43.3887 192.509 42.9697 191.048 42.9697C189.582 42.9697 188.679 43.3887 188.685 44.0869ZM201.5 40.4453V41.1436H199.405V43.0234C200.34 42.9858 201.28 42.9214 202.166 42.8193L202.23 43.4531C200.114 43.7593 197.805 43.8022 195.979 43.7969L195.86 43.0879C196.693 43.0879 197.617 43.0825 198.567 43.0557V41.1436H196.591V37.2334H201.457V37.9209H197.418V40.4453H201.5ZM202.8 45.8916V36.3203H203.638V45.8916H202.8ZM213.037 39.2207V39.8975H206.495V36.6748H207.333V39.2207H213.037ZM205.303 41.8848V41.1973H214.047V41.8848H205.303ZM206.441 45.6338V42.8623H207.279V44.9355H213.091V45.6338H206.441ZM225.788 36.3203V45.8701H224.972V40.9072H223.672V45.3867H222.866V36.5244H223.672V40.1875H224.972V36.3203H225.788ZM217.484 43.249C218.859 42.4917 219.595 40.8696 219.59 38.9307V38.168H217.71V37.459H222.179V38.168H220.406V38.9307C220.406 40.6763 221.131 42.2178 222.49 42.916L221.985 43.5713C221.024 43.0449 220.358 42.105 220.02 40.9395C219.692 42.2661 219.015 43.3081 218.011 43.8936L217.484 43.249ZM231.857 37.9746V38.6621H227.066V37.9746H229.054V36.6104H229.892V37.9746H231.857ZM227.41 41.4766C227.41 40.209 228.275 39.312 229.462 39.3066C230.665 39.312 231.524 40.209 231.535 41.4766C231.524 42.7603 230.665 43.6626 229.462 43.668C228.275 43.6626 227.41 42.7603 227.41 41.4766ZM228.162 41.4766C228.162 42.3252 228.705 42.9321 229.462 42.9268C230.225 42.9321 230.783 42.3252 230.783 41.4766C230.783 40.6387 230.225 40.0264 229.462 40.0156C228.705 40.0264 228.162 40.6387 228.162 41.4766ZM232.352 45.3975V36.5566H233.146V40.3486H234.414V36.3203H235.22V45.8701H234.414V41.0469H233.146V45.3975H232.352ZM245.328 40.7568V41.4229H236.584V40.7568H245.328ZM237.637 42.8193V42.1855H244.232V44.2158H238.496V45.1289H244.544V45.7412H237.647V43.6357H243.395V42.8193H237.637ZM237.69 37.2227V36.6104H244.2V38.5869H238.561V39.4248H244.372V40.0371H237.723V38.0068H243.352V37.2227H237.69ZM257.563 40.918V41.6162H248.862V40.918H257.563ZM249.55 45.1611C251.279 44.9141 252.789 43.9688 252.794 42.6797V42.3682H253.653V42.6797C253.648 43.9688 255.163 44.9141 256.897 45.1611L256.575 45.8271C255.125 45.5908 253.793 44.9087 253.224 43.856C252.649 44.9087 251.322 45.5908 249.872 45.8271L249.55 45.1611ZM249.679 40.0264V36.793H252.955V37.4805H250.538V39.3389C251.36 39.3281 252.176 39.269 253.084 39.0596L253.181 39.7578C252.101 39.9941 251.188 40.0264 250.227 40.0264H249.679ZM253.492 40.0264V36.793H256.726V37.4805H254.341V39.3389H256.812V40.0264H253.492ZM265.835 36.3203V38.8662H267.274V39.5859H265.835V42.0781H264.997V36.3203H265.835ZM258.391 38.0391V37.3408H260.818V36.2451H261.656V37.3408H264.084V38.0391H258.391ZM258.938 40.209C258.933 39.1885 259.852 38.5117 261.237 38.5117C262.607 38.5117 263.525 39.1885 263.536 40.209C263.525 41.2456 262.607 41.917 261.237 41.917C259.852 41.917 258.933 41.2456 258.938 40.209ZM259.744 40.209C259.739 40.8589 260.335 41.2617 261.237 41.2725C262.129 41.2617 262.73 40.8589 262.741 40.209C262.73 39.5859 262.129 39.167 261.237 39.167C260.335 39.167 259.739 39.5859 259.744 40.209ZM259.809 45.7412V42.626H265.835V45.7412H259.809ZM260.636 45.0537H264.997V43.3027H260.636V45.0537ZM268.886 45.0645C268.51 45.0591 268.188 44.7476 268.198 44.3662C268.188 43.9902 268.51 43.6787 268.886 43.6787C269.267 43.6787 269.579 43.9902 269.573 44.3662C269.579 44.7476 269.267 45.0591 268.886 45.0645ZM27.9814 59.9004V60.6416C27.9814 61.4473 27.9814 62.4141 27.729 63.7139H29.1309V64.4229H20.3867V63.7139H26.8911C27.1489 62.3926 27.1489 61.4526 27.1436 60.6416V60.5879H21.4932V59.9004H27.9814ZM21.5469 68.6553V65.4971H22.3848V67.9463H28.2715V68.6553H21.5469ZM38.6377 66.9795V67.6885H29.8936V66.9795H33.8252V65.1748H30.9893V62.2314H36.7041V60.7275H30.9678V60.0293H37.5312V62.9189H31.8271V64.4766H37.7568V65.1748H34.6523V66.9795H38.6377ZM42.6338 62.2529C42.623 63.7837 43.7295 65.4702 45.1152 66.1309L44.6318 66.7969C43.5576 66.2705 42.6499 65.1426 42.2202 63.8481C41.7798 65.25 40.8237 66.4854 39.7549 67.0332L39.2393 66.3672C40.6143 65.6958 41.7959 63.8804 41.8066 62.2529V61.0068H39.583V60.3086H44.7822V61.0068H42.6338V62.2529ZM45.9531 68.8701V59.3203H46.791V63.1875H48.3916V63.9072H46.791V68.8701H45.9531ZM56.2979 59.3203V63.209H57.8447V63.918H56.2979V68.8701H55.46V59.3203H56.2979ZM48.9717 66.3887C51.437 65.1641 52.7798 63.3218 52.9731 61.0605H49.4121V60.3516H53.8271C53.8218 63.0532 52.5542 65.5186 49.4443 67.0547L48.9717 66.3887ZM63.8066 59.7715C65.085 59.7661 66.0625 60.5127 66.2451 61.6084H68.2432V59.3203H69.0918V64.4443H68.2432V62.3066H66.2505C66.084 63.4346 65.1011 64.1865 63.8066 64.1865C62.3511 64.1865 61.3198 63.2842 61.3252 61.9736C61.3198 60.6792 62.3511 59.7661 63.8066 59.7715ZM62.1309 61.9736C62.1309 62.8438 62.8237 63.4722 63.8066 63.4775C64.7681 63.4722 65.4609 62.8438 65.4609 61.9736C65.4609 61.0928 64.7681 60.4805 63.8066 60.4912C62.8237 60.4805 62.1309 61.0928 62.1309 61.9736ZM62.9365 68.7412V64.9277H63.7852V66.1416H68.2432V64.9277H69.0918V68.7412H62.9365ZM63.7852 68.0537H68.2432V66.8184H63.7852V68.0537ZM79.415 64.874V65.5723H75.4297V68.8701H74.6025V65.5723H70.6709V64.874H79.415ZM71.7988 63.5742V59.8574H78.2764V63.5742H71.7988ZM72.626 62.9082H77.4385V60.5449H72.626V62.9082ZM83.3789 60.8672C83.3789 62.167 84.3672 63.3594 85.7529 63.832L85.291 64.498C84.2383 64.1113 83.4058 63.3218 82.9868 62.3228C82.5786 63.4561 81.7246 64.3315 80.6074 64.7666L80.1562 64.0898C81.585 63.5581 82.5464 62.2798 82.5518 60.8027V59.8145H83.3789V60.8672ZM81.4238 67.1084C81.4292 66.0181 82.627 65.3789 84.5928 65.3789C86.5532 65.3789 87.7402 66.0181 87.7402 67.1084C87.7402 68.2202 86.5532 68.8486 84.5928 68.8486C82.627 68.8486 81.4292 68.2202 81.4238 67.1084ZM82.2725 67.1084C82.2617 67.7852 83.1533 68.1772 84.5928 68.1826C86.0376 68.1772 86.9185 67.7852 86.9238 67.1084C86.9185 66.4585 86.0376 66.0557 84.5928 66.0557C83.1533 66.0557 82.2617 66.4585 82.2725 67.1084ZM86.8164 65.1318V59.3203H87.6543V61.8125H89.0938V62.5215H87.6543V65.1318H86.8164ZM95.6572 61.8877C95.6572 63.5688 96.769 65.3037 98.1279 65.9697L97.6123 66.6465C96.5596 66.0986 95.6787 64.9653 95.2544 63.6387C94.8301 65.0459 93.9277 66.2544 92.8535 66.8291L92.3164 66.1523C93.7129 65.4648 94.8193 63.6333 94.8301 61.8877V60.1475H95.6572V61.8877ZM99.0088 68.8701V59.3203H99.8467V63.1982H101.447V63.9287H99.8467V68.8701H99.0088ZM109.622 60.2871V61.2432C109.611 62.4141 109.611 63.7246 109.268 65.6475L108.408 65.5508C108.768 63.7246 108.768 62.3872 108.773 61.2432V60.9854H102.887V60.2871H109.622ZM101.963 67.5166V66.8184H105.379V63.4023H106.206V66.8184H110.664V67.5166H101.963ZM122.276 63.7568V64.4443H118.817V60.2334H122.158V60.9209H119.666V63.7568H122.276ZM114.23 67.6455V66.9473H118.151V64.9277H118.979V66.9473H122.975V67.6455H114.23ZM114.993 64.4443V60.2334H118.237V60.9316H115.831V63.7461C116.637 63.7407 117.437 63.6816 118.323 63.4775L118.398 64.1865C117.351 64.4229 116.47 64.4497 115.52 64.4443H114.993ZM131.461 62.2207V62.8975H124.919V59.6748H125.757V62.2207H131.461ZM123.727 64.8848V64.1973H132.471V64.8848H123.727ZM124.865 68.6338V65.8623H125.703V67.9355H131.515V68.6338H124.865ZM138.637 59.7715C139.915 59.7661 140.893 60.5127 141.075 61.6084H143.073V59.3203H143.922V64.4443H143.073V62.3066H141.081C140.914 63.4346 139.931 64.1865 138.637 64.1865C137.181 64.1865 136.15 63.2842 136.155 61.9736C136.15 60.6792 137.181 59.7661 138.637 59.7715ZM136.961 61.9736C136.961 62.8438 137.654 63.4722 138.637 63.4775C139.598 63.4722 140.291 62.8438 140.291 61.9736C140.291 61.0928 139.598 60.4805 138.637 60.4912C137.654 60.4805 136.961 61.0928 136.961 61.9736ZM137.767 68.7412V64.9277H138.615V66.1416H143.073V64.9277H143.922V68.7412H137.767ZM138.615 68.0537H143.073V66.8184H138.615V68.0537ZM154.245 64.874V65.5723H150.26V68.8701H149.433V65.5723H145.501V64.874H154.245ZM146.629 63.5742V59.8574H153.106V63.5742H146.629ZM147.456 62.9082H152.269V60.5449H147.456V62.9082ZM158.209 60.8672C158.209 62.167 159.197 63.3594 160.583 63.832L160.121 64.498C159.068 64.1113 158.236 63.3218 157.817 62.3228C157.409 63.4561 156.555 64.3315 155.438 64.7666L154.986 64.0898C156.415 63.5581 157.376 62.2798 157.382 60.8027V59.8145H158.209V60.8672ZM156.254 67.1084C156.259 66.0181 157.457 65.3789 159.423 65.3789C161.383 65.3789 162.57 66.0181 162.57 67.1084C162.57 68.2202 161.383 68.8486 159.423 68.8486C157.457 68.8486 156.259 68.2202 156.254 67.1084ZM157.103 67.1084C157.092 67.7852 157.983 68.1772 159.423 68.1826C160.868 68.1772 161.749 67.7852 161.754 67.1084C161.749 66.4585 160.868 66.0557 159.423 66.0557C157.983 66.0557 157.092 66.4585 157.103 67.1084ZM161.646 65.1318V59.3203H162.484V61.8125H163.924V62.5215H162.484V65.1318H161.646ZM175.16 59.3203V64.2832H174.333V59.3203H175.16ZM167.426 63.6279C168.849 63.1553 169.87 61.9844 169.875 60.6738V60.5664H167.641V59.8682H172.926V60.5664H170.724V60.6738C170.729 61.9146 171.744 63.0103 173.184 63.4346L172.765 64.0898C171.637 63.7354 170.74 62.978 170.315 62.0005C169.902 63.0693 168.989 63.9019 167.823 64.2939L167.426 63.6279ZM168.962 65.4111V64.7451H175.171V67.0225H169.811V68.0859H175.515V68.7627H168.983V66.3887H174.333V65.4111H168.962ZM178.114 59.9111V61.4473H180.778V59.9111H181.605V60.8887H183.861V59.3203H184.71V65.1104H183.861V63.5527H181.605V64.4014H177.276V59.9111H178.114ZM178.114 63.7139H180.778V62.124H178.114V63.7139ZM178.34 67.0869C178.334 65.9482 179.554 65.3037 181.541 65.293C183.523 65.3037 184.742 65.9482 184.742 67.0869C184.742 68.2041 183.523 68.8486 181.541 68.8486C179.554 68.8486 178.334 68.2041 178.34 67.0869ZM179.178 67.0869C179.172 67.7744 180.075 68.1826 181.541 68.1826C183.002 68.1826 183.904 67.7744 183.904 67.0869C183.904 66.3726 183.002 65.9644 181.541 65.959C180.075 65.9644 179.172 66.3726 179.178 67.0869ZM181.605 62.8545H183.861V61.5762H181.605V62.8545ZM190.65 59.9434C192.643 59.9487 194.142 60.9907 194.142 62.5645C194.142 64.1543 192.643 65.1963 190.65 65.1855C188.658 65.1963 187.159 64.1543 187.159 62.5645C187.159 60.9907 188.658 59.9487 190.65 59.9434ZM186.3 67.6025V66.8936H195.044V67.6025H186.3ZM187.965 62.5645C187.954 63.7246 189.109 64.498 190.65 64.498C192.181 64.498 193.325 63.7246 193.325 62.5645C193.325 61.4204 192.181 60.6255 190.65 60.6309C189.109 60.6255 187.954 61.4204 187.965 62.5645ZM204.551 66.9795V67.6885H195.807V66.9795H199.738V65.1748H196.902V62.2314H202.617V60.7275H196.881V60.0293H203.444V62.9189H197.74V64.4766H203.67V65.1748H200.565V66.9795H204.551ZM216.808 64.9922V65.6797H212.822V68.8701H211.995V65.6797H208.063V64.9922H216.808ZM209.181 63.832V59.7178H210.019V61.0391H214.831V59.7178H215.68V63.832H209.181ZM210.019 63.1445H214.831V61.7266H210.019V63.1445ZM220.771 60.8672C220.771 62.167 221.76 63.3594 223.146 63.832L222.684 64.498C221.631 64.1113 220.798 63.3218 220.379 62.3228C219.971 63.4561 219.117 64.3315 218 64.7666L217.549 64.0898C218.978 63.5581 219.939 62.2798 219.944 60.8027V59.8145H220.771V60.8672ZM218.816 67.1084C218.822 66.0181 220.02 65.3789 221.985 65.3789C223.946 65.3789 225.133 66.0181 225.133 67.1084C225.133 68.2202 223.946 68.8486 221.985 68.8486C220.02 68.8486 218.822 68.2202 218.816 67.1084ZM219.665 67.1084C219.654 67.7852 220.546 68.1772 221.985 68.1826C223.43 68.1772 224.311 67.7852 224.316 67.1084C224.311 66.4585 223.43 66.0557 221.985 66.0557C220.546 66.0557 219.654 66.4585 219.665 67.1084ZM224.209 65.1318V59.3203H225.047V61.8125H226.486V62.5215H225.047V65.1318H224.209ZM228.656 67.2803L227.818 70.2021H227.023L227.614 67.2803H228.656ZM240.537 59.3203V64.2832H239.71V59.3203H240.537ZM232.803 63.6279C234.226 63.1553 235.247 61.9844 235.252 60.6738V60.5664H233.018V59.8682H238.303V60.5664H236.101V60.6738C236.106 61.9146 237.121 63.0103 238.561 63.4346L238.142 64.0898C237.014 63.7354 236.117 62.978 235.692 62.0005C235.279 63.0693 234.366 63.9019 233.2 64.2939L232.803 63.6279ZM234.339 65.4111V64.7451H240.548V67.0225H235.188V68.0859H240.892V68.7627H234.36V66.3887H239.71V65.4111H234.339ZM243.491 59.9111V61.4473H246.155V59.9111H246.982V60.8887H249.238V59.3203H250.087V65.1104H249.238V63.5527H246.982V64.4014H242.653V59.9111H243.491ZM243.491 63.7139H246.155V62.124H243.491V63.7139ZM243.717 67.0869C243.711 65.9482 244.931 65.3037 246.918 65.293C248.9 65.3037 250.119 65.9482 250.119 67.0869C250.119 68.2041 248.9 68.8486 246.918 68.8486C244.931 68.8486 243.711 68.2041 243.717 67.0869ZM244.555 67.0869C244.549 67.7744 245.452 68.1826 246.918 68.1826C248.379 68.1826 249.281 67.7744 249.281 67.0869C249.281 66.3726 248.379 65.9644 246.918 65.959C245.452 65.9644 244.549 66.3726 244.555 67.0869ZM246.982 62.8545H249.238V61.5762H246.982V62.8545ZM253.245 67.2803L252.407 70.2021H251.612L252.203 67.2803H253.245ZM260.485 61.1357C260.491 62.3872 261.425 63.5044 262.827 63.9609L262.43 64.627C261.329 64.2617 260.496 63.5044 260.083 62.543C259.674 63.6387 258.793 64.4927 257.649 64.9062L257.22 64.2295C258.648 63.7461 259.647 62.5161 259.658 61.1357V60.7275H257.478V60.0293H262.634V60.7275H260.485V61.1357ZM258.487 67.0869C258.493 65.9858 259.69 65.3467 261.656 65.3467C263.617 65.3467 264.804 65.9858 264.804 67.0869C264.804 68.2041 263.617 68.8486 261.656 68.8486C259.69 68.8486 258.493 68.2041 258.487 67.0869ZM259.336 67.0869C259.325 67.7744 260.217 68.1772 261.656 68.1719C263.101 68.1772 263.982 67.7744 263.987 67.0869C263.982 66.4209 263.101 66.0234 261.656 66.0234C260.217 66.0234 259.325 66.4209 259.336 67.0869ZM263.88 65.0889V59.3203H264.718V61.7588H266.157V62.4678H264.718V65.0889H263.88ZM271.528 60.9746V61.6621H266.737V60.9746H268.725V59.6104H269.562V60.9746H271.528ZM267.081 64.4766C267.081 63.209 267.946 62.312 269.133 62.3066C270.336 62.312 271.195 63.209 271.206 64.4766C271.195 65.7603 270.336 66.6626 269.133 66.668C267.946 66.6626 267.081 65.7603 267.081 64.4766ZM267.833 64.4766C267.833 65.3252 268.375 65.9321 269.133 65.9268C269.896 65.9321 270.454 65.3252 270.454 64.4766C270.454 63.6387 269.896 63.0264 269.133 63.0156C268.375 63.0264 267.833 63.6387 267.833 64.4766ZM272.022 68.3975V59.5566H272.817V63.3486H274.085V59.3203H274.891V68.8701H274.085V64.0469H272.817V68.3975H272.022ZM283.656 59.3203V63.209H285.203V63.918H283.656V68.8701H282.818V59.3203H283.656ZM276.33 66.3887C278.795 65.1641 280.138 63.3218 280.332 61.0605H276.771V60.3516H281.186C281.18 63.0532 279.913 65.5186 276.803 67.0547L276.33 66.3887ZM289.769 59.7285V61.1035H292.551V59.7285H293.389V63.8857H288.941V59.7285H289.769ZM289.769 63.1982H292.551V61.7588H289.769V63.1982ZM289.908 65.3896V64.7129H295.999V67.0225H290.757V68.0752H296.354V68.7627H289.93V66.3779H295.161V65.3896H289.908ZM295.161 64.2617V59.3203H295.999V61.3936H297.438V62.1025H295.999V64.2617H295.161ZM300.887 61.2217C300.892 62.2798 301.628 63.3486 302.853 63.8105L302.412 64.4551C301.494 64.1006 300.833 63.4185 300.489 62.5967C300.14 63.5044 299.453 64.3154 298.513 64.7236L298.051 64.0684C299.308 63.5205 300.076 62.2852 300.081 61.2217V59.9219H300.887V61.2217ZM299.791 67.1514C299.78 66.0718 301.005 65.438 302.992 65.4434C304.969 65.438 306.199 66.0718 306.204 67.1514C306.199 68.2202 304.969 68.8486 302.992 68.8486C301.005 68.8486 299.78 68.2202 299.791 67.1514ZM300.629 67.1514C300.618 67.8013 301.526 68.1987 302.992 68.1934C304.442 68.1987 305.355 67.8013 305.366 67.1514C305.355 66.4907 304.442 66.0933 302.992 66.0879C301.526 66.0933 300.618 66.4907 300.629 67.1514ZM303.282 64.9277V59.5137H304.077V61.8984H305.345V59.3311H306.15V65.2285H305.345V62.5967H304.077V64.9277H303.282ZM27.7773 75.3203V79.2627H29.3779V79.9609H27.7773V84.8701H26.9395V75.3203H27.7773ZM20.333 77.5547V76.8564H22.793V75.4385H23.6309V76.8564H26.0156V77.5547H20.333ZM20.8809 80.541C20.8755 79.252 21.8638 78.3496 23.2227 78.3496C24.5708 78.3496 25.5537 79.252 25.5645 80.541C25.5537 81.8354 24.5708 82.7324 23.2227 82.7324C21.8638 82.7324 20.8755 81.8354 20.8809 80.541ZM21.6865 80.541C21.6812 81.4111 22.3311 82.0234 23.2227 82.0127C24.1035 82.0234 24.748 81.4111 24.7588 80.541C24.748 79.6763 24.1035 79.0532 23.2227 79.0586C22.3311 79.0532 21.6812 79.6763 21.6865 80.541ZM37.7998 75.3203V84.8701H36.9619V79.8643H34.6846V79.166H36.9619V75.3203H37.7998ZM29.9043 82.3779C32.4878 81.1265 33.6855 79.2842 33.8574 77.0498H30.3232V76.3623H34.7061C34.7007 79.0693 33.5566 81.4702 30.3662 83.0547L29.9043 82.3779ZM48.3379 79.1338V79.8428H46.791V84.8701H45.9531V75.3203H46.791V79.1338H48.3379ZM39.7979 82.4424V76.2656H40.6357V81.7334C42.0322 81.7334 43.4556 81.626 45.0293 81.293L45.1367 82.0127C43.4878 82.3457 42.0054 82.4424 40.5605 82.4424H39.7979ZM59.7139 79.7568V80.4443H56.2549V76.2334H59.5957V76.9209H57.1035V79.7568H59.7139ZM51.668 83.6455V82.9473H55.5889V80.9277H56.416V82.9473H60.4121V83.6455H51.668ZM52.4307 80.4443V76.2334H55.6748V76.9316H53.2686V79.7461C54.0742 79.7407 54.8745 79.6816 55.7607 79.4775L55.8359 80.1865C54.7886 80.4229 53.9077 80.4497 52.957 80.4443H52.4307ZM68.8984 78.2207V78.8975H62.3564V75.6748H63.1943V78.2207H68.8984ZM61.1641 80.8848V80.1973H69.9082V80.8848H61.1641ZM62.3027 84.6338V81.8623H63.1406V83.9355H68.9521V84.6338H62.3027ZM76.6436 77.8877C76.6436 79.5688 77.7554 81.3037 79.1143 81.9697L78.5986 82.6465C77.5459 82.0986 76.665 80.9653 76.2407 79.6387C75.8164 81.0459 74.9141 82.2544 73.8398 82.8291L73.3027 82.1523C74.6992 81.4648 75.8057 79.6333 75.8164 77.8877V76.1475H76.6436V77.8877ZM79.9951 84.8701V75.3203H80.833V79.1982H82.4336V79.9287H80.833V84.8701H79.9951ZM87.7725 76.0508V80.1436H83.3574V76.0508H87.7725ZM84.1846 83.0762C84.1899 81.959 85.4038 81.293 87.3535 81.293C89.3032 81.293 90.501 81.959 90.501 83.0762C90.501 84.2041 89.3032 84.8594 87.3535 84.8701C85.4038 84.8594 84.1899 84.2041 84.1846 83.0762ZM84.1846 79.4668H86.9561V76.7383H84.1846V79.4668ZM85.0332 83.0762C85.0225 83.7744 85.9141 84.1772 87.3535 84.1826C88.7983 84.1772 89.6792 83.7744 89.6846 83.0762C89.6792 82.3887 88.7983 81.9805 87.3535 81.9805C85.9141 81.9805 85.0225 82.3887 85.0332 83.0762ZM89.5771 80.9707V75.3203H90.415V77.7158H91.8545V78.4141H90.415V80.9707H89.5771ZM93.0469 81.0352C93.0576 79.0103 93.6055 77.3237 94.5938 75.8896H95.4102C94.6851 76.9478 94.0083 79.123 94.0029 81.0352C94.0083 82.9526 94.6851 85.1226 95.4102 86.1914H94.5938C93.6055 84.752 93.0576 83.0654 93.0469 81.0352ZM103.864 76.2871V77.2432C103.854 78.4141 103.854 79.7246 103.51 81.6475L102.65 81.5508C103.01 79.7246 103.01 78.3872 103.016 77.2432V76.9854H97.1289V76.2871H103.864ZM96.2051 83.5166V82.8184H99.6211V79.4023H100.448V82.8184H104.906V83.5166H96.2051ZM108.838 76.0186C110.336 76.0239 111.4 76.937 111.405 78.2637C111.4 79.5957 110.336 80.5034 108.838 80.5088C107.329 80.5034 106.254 79.5957 106.26 78.2637C106.254 76.937 107.329 76.0239 108.838 76.0186ZM105.766 82.0664C107.527 82.0718 109.96 82.0557 112.071 81.7441L112.136 82.3672C109.95 82.7754 107.603 82.7861 105.884 82.7861L105.766 82.0664ZM107.087 78.2637C107.082 79.1553 107.817 79.7676 108.838 79.7676C109.848 79.7676 110.583 79.1553 110.578 78.2637C110.583 77.3774 109.848 76.7598 108.838 76.7598C107.817 76.7598 107.082 77.3774 107.087 78.2637ZM112.705 84.8916V75.3203H113.543V84.8916H112.705ZM116.787 83.2803L115.949 86.2021H115.154L115.745 83.2803H116.787ZM124.027 78.2529C124.017 79.7837 125.123 81.4702 126.509 82.1309L126.025 82.7969C124.951 82.2705 124.043 81.1426 123.614 79.8481C123.173 81.25 122.217 82.4854 121.148 83.0332L120.633 82.3672C122.008 81.6958 123.189 79.8804 123.2 78.2529V77.0068H120.977V76.3086H126.176V77.0068H124.027V78.2529ZM127.347 84.8701V75.3203H128.185V79.1875H129.785V79.9072H128.185V84.8701H127.347ZM135.07 76.9746V77.6621H130.279V76.9746H132.267V75.6104H133.104V76.9746H135.07ZM130.623 80.4766C130.623 79.209 131.488 78.312 132.675 78.3066C133.878 78.312 134.737 79.209 134.748 80.4766C134.737 81.7603 133.878 82.6626 132.675 82.668C131.488 82.6626 130.623 81.7603 130.623 80.4766ZM131.375 80.4766C131.375 81.3252 131.917 81.9321 132.675 81.9268C133.438 81.9321 133.996 81.3252 133.996 80.4766C133.996 79.6387 133.438 79.0264 132.675 79.0156C131.917 79.0264 131.375 79.6387 131.375 80.4766ZM135.564 84.3975V75.5566H136.359V79.3486H137.627V75.3203H138.433V84.8701H137.627V80.0469H136.359V84.3975H135.564ZM147.918 75.3203V81.3682H147.112V78.6289H145.834V81.0244H145.039V75.5137H145.834V77.9307H147.112V75.3203H147.918ZM139.754 77.1465V76.4697H141.795V75.3955H142.633V76.4697H144.652V77.1465H139.754ZM140.173 79.2949C140.167 78.2959 141.011 77.6567 142.214 77.6621C143.422 77.6567 144.26 78.2959 144.266 79.2949C144.26 80.2778 143.422 80.917 142.214 80.917C141.011 80.917 140.167 80.2778 140.173 79.2949ZM140.925 79.2949C140.925 79.8804 141.451 80.2832 142.214 80.2832C142.977 80.2832 143.503 79.8804 143.503 79.2949C143.503 78.688 142.977 78.2852 142.214 78.2852C141.451 78.2852 140.925 78.688 140.925 79.2949ZM141.559 83.2051C141.548 82.1309 142.746 81.5293 144.76 81.5293C146.769 81.5293 147.966 82.1309 147.972 83.2051C147.966 84.2524 146.769 84.8486 144.76 84.8486C142.746 84.8486 141.548 84.2524 141.559 83.2051ZM142.396 83.2051C142.386 83.8228 143.272 84.1987 144.76 84.1934C146.242 84.1987 147.123 83.8228 147.134 83.2051C147.123 82.5498 146.242 82.1846 144.76 82.1953C143.272 82.1846 142.386 82.5498 142.396 83.2051ZM152.462 75.793C153.891 75.7822 154.917 76.5718 154.911 77.7373C154.917 78.9028 153.891 79.6978 152.462 79.6924C151.033 79.6978 150.013 78.9028 150.013 77.7373C150.013 76.5718 151.033 75.7822 152.462 75.793ZM149.293 80.5088C151.087 80.5142 153.542 80.4766 155.663 80.165L155.717 80.7988C154.804 80.9653 153.858 81.0674 152.935 81.1265V84.5801H152.097V81.1748C151.125 81.2178 150.206 81.2231 149.411 81.2285L149.293 80.5088ZM150.84 77.7373C150.829 78.4839 151.511 78.9995 152.462 78.9941C153.423 78.9995 154.111 78.4839 154.105 77.7373C154.111 76.9961 153.423 76.4697 152.462 76.4805C151.511 76.4697 150.829 76.9961 150.84 77.7373ZM156.361 84.8809V75.3311H157.188V84.8809H156.361ZM167.759 79.1338V79.8428H166.212V84.8701H165.374V75.3203H166.212V79.1338H167.759ZM159.219 82.4424V76.2656H160.057V81.7334C161.453 81.7334 162.876 81.626 164.45 81.293L164.558 82.0127C162.909 82.3457 161.426 82.4424 159.981 82.4424H159.219ZM172.41 75.8682V77.3936H175.074V75.8682H175.901V77.748H178.157V75.3203H179.006V80.8633H178.157V78.457H175.901V80.3262H171.572V75.8682H172.41ZM172.41 79.6387H175.074V78.0703H172.41V79.6387ZM172.765 84.7412V81.3359H179.006V84.7412H172.765ZM173.603 84.0537H178.179V82.0127H173.603V84.0537ZM184.184 77.0605C184.173 78.2744 185.215 79.3379 186.654 79.7461L186.246 80.4121C185.107 80.0737 184.205 79.3433 183.77 78.3818C183.34 79.4238 182.4 80.2026 181.219 80.5625L180.8 79.9072C182.266 79.4775 183.324 78.3711 183.324 77.0605V76.9424H181.122V76.2549H186.396V76.9424H184.184V77.0605ZM180.649 82.1416C181.434 82.1416 182.363 82.1362 183.335 82.104V80.1543H184.194V82.0718C185.124 82.0234 186.069 81.9429 186.955 81.8086L187.02 82.4424C184.833 82.8398 182.486 82.8452 180.768 82.8506L180.649 82.1416ZM187.589 84.8916V75.3203H188.427V84.8916H187.589ZM198.213 75.3203V81.3682H197.407V78.6289H196.129V81.0244H195.334V75.5137H196.129V77.9307H197.407V75.3203H198.213ZM190.049 77.1465V76.4697H192.09V75.3955H192.928V76.4697H194.947V77.1465H190.049ZM190.468 79.2949C190.462 78.2959 191.306 77.6567 192.509 77.6621C193.717 77.6567 194.555 78.2959 194.561 79.2949C194.555 80.2778 193.717 80.917 192.509 80.917C191.306 80.917 190.462 80.2778 190.468 79.2949ZM191.22 79.2949C191.22 79.8804 191.746 80.2832 192.509 80.2832C193.271 80.2832 193.798 79.8804 193.798 79.2949C193.798 78.688 193.271 78.2852 192.509 78.2852C191.746 78.2852 191.22 78.688 191.22 79.2949ZM191.854 83.2051C191.843 82.1309 193.041 81.5293 195.055 81.5293C197.063 81.5293 198.261 82.1309 198.267 83.2051C198.261 84.2524 197.063 84.8486 195.055 84.8486C193.041 84.8486 191.843 84.2524 191.854 83.2051ZM192.691 83.2051C192.681 83.8228 193.567 84.1987 195.055 84.1934C196.537 84.1987 197.418 83.8228 197.429 83.2051C197.418 82.5498 196.537 82.1846 195.055 82.1953C193.567 82.1846 192.681 82.5498 192.691 83.2051ZM202.757 75.793C204.186 75.7822 205.211 76.5718 205.206 77.7373C205.211 78.9028 204.186 79.6978 202.757 79.6924C201.328 79.6978 200.308 78.9028 200.308 77.7373C200.308 76.5718 201.328 75.7822 202.757 75.793ZM199.588 80.5088C201.382 80.5142 203.836 80.4766 205.958 80.165L206.012 80.7988C205.099 80.9653 204.153 81.0674 203.229 81.1265V84.5801H202.392V81.1748C201.419 81.2178 200.501 81.2231 199.706 81.2285L199.588 80.5088ZM201.135 77.7373C201.124 78.4839 201.806 78.9995 202.757 78.9941C203.718 78.9995 204.406 78.4839 204.4 77.7373C204.406 76.9961 203.718 76.4697 202.757 76.4805C201.806 76.4697 201.124 76.9961 201.135 77.7373ZM206.656 84.8809V75.3311H207.483V84.8809H206.656ZM219.923 79.7568V80.4443H216.464V76.2334H219.805V76.9209H217.312V79.7568H219.923ZM211.877 83.6455V82.9473H215.798V80.9277H216.625V82.9473H220.621V83.6455H211.877ZM212.64 80.4443V76.2334H215.884V76.9316H213.478V79.7461C214.283 79.7407 215.083 79.6816 215.97 79.4775L216.045 80.1865C214.998 80.4229 214.117 80.4497 213.166 80.4443H212.64ZM229.107 78.2207V78.8975H222.565V75.6748H223.403V78.2207H229.107ZM221.373 80.8848V80.1973H230.117V80.8848H221.373ZM222.512 84.6338V81.8623H223.35V83.9355H229.161V84.6338H222.512ZM241.182 76.3408V77.2969C241.182 78.5 241.182 79.8589 240.827 81.9375L239.968 81.8516C240.354 79.8965 240.354 78.4678 240.354 77.2969V77.0391H234.597V76.3408H241.182ZM233.651 83.4629V82.7646H242.353V83.4629H233.651ZM251.075 75.3311V81.7979H250.227V78.7256H248.132V78.0166H250.227V75.3311H251.075ZM243.319 80.498C245.602 79.7944 247.015 78.4678 247.192 76.7705H243.792V76.083H248.089C248.083 78.5322 246.44 80.2939 243.695 81.1748L243.319 80.498ZM244.318 84.1719C246.01 83.8765 247.552 82.8076 247.562 81.4004V80.96H248.39V81.4004C248.395 82.7915 249.92 83.8389 251.602 84.1396L251.247 84.8164C249.84 84.5479 248.54 83.8013 247.976 82.6841C247.396 83.812 246.085 84.5586 244.662 84.8379L244.318 84.1719ZM260.539 75.3203V84.8916H259.69V75.3203H260.539ZM253.02 79.3916C253.025 77.3613 254.035 76.0669 255.458 76.0615C256.876 76.0669 257.902 77.3613 257.896 79.3916C257.902 81.4272 256.876 82.7163 255.458 82.7109C254.035 82.7163 253.025 81.4272 253.02 79.3916ZM253.836 79.3916C253.836 80.9438 254.502 81.9644 255.458 81.959C256.419 81.9644 257.08 80.9438 257.08 79.3916C257.08 77.8394 256.419 76.8188 255.458 76.8135C254.502 76.8188 253.836 77.8394 253.836 79.3916ZM272.807 75.3311V82.582H271.958V81.5938H269.981V80.9814H271.958V75.3311H272.807ZM264.879 79.7568C266.657 79.7461 269.052 79.73 271.099 79.4775L271.152 80.0898C270.304 80.2241 269.407 80.3101 268.531 80.3638V82.249H267.683V80.4067C266.716 80.4443 265.797 80.4443 264.997 80.4443L264.879 79.7568ZM265.652 77.3828C265.647 76.3784 266.603 75.7178 268.016 75.7178C269.417 75.7178 270.374 76.3784 270.379 77.3828C270.374 78.4033 269.417 79.0371 268.016 79.0371C266.603 79.0371 265.647 78.4033 265.652 77.3828ZM266.254 84.666V81.873H267.103V83.957H273.043V84.666H266.254ZM266.458 77.3828C266.447 78.0059 267.081 78.4087 268.016 78.4141C268.923 78.4087 269.568 78.0059 269.573 77.3828C269.568 76.7705 268.923 76.3516 268.016 76.3623C267.081 76.3516 266.447 76.7705 266.458 77.3828ZM282.324 75.3311V82.3135H281.486V75.3311H282.324ZM274.665 78.3389C274.66 76.9639 275.739 76.0024 277.168 75.9971C278.597 76.0024 279.666 76.9639 279.671 78.3389C279.666 79.73 278.597 80.6968 277.168 80.6914C275.739 80.6968 274.66 79.73 274.665 78.3389ZM275.492 78.3389C275.481 79.2896 276.201 79.9502 277.168 79.9502C278.119 79.9502 278.844 79.2896 278.844 78.3389C278.844 77.4043 278.119 76.7383 277.168 76.7383C276.201 76.7383 275.481 77.4043 275.492 78.3389ZM276.158 84.666V81.6045H276.996V83.957H282.625V84.666H276.158ZM291.82 75.3203V84.8916H290.972V75.3203H291.82ZM284.301 79.3916C284.306 77.3613 285.316 76.0669 286.739 76.0615C288.157 76.0669 289.183 77.3613 289.178 79.3916C289.183 81.4272 288.157 82.7163 286.739 82.7109C285.316 82.7163 284.306 81.4272 284.301 79.3916ZM285.117 79.3916C285.117 80.9438 285.783 81.9644 286.739 81.959C287.701 81.9644 288.361 80.9438 288.361 79.3916C288.361 77.8394 287.701 76.8188 286.739 76.8135C285.783 76.8188 285.117 77.8394 285.117 79.3916ZM301.907 79.4453V80.1436H299.812V82.0234C300.747 81.9858 301.687 81.9214 302.573 81.8193L302.638 82.4531C300.521 82.7593 298.212 82.8022 296.386 82.7969L296.268 82.0879C297.1 82.0879 298.024 82.0825 298.975 82.0557V80.1436H296.998V76.2334H301.864V76.9209H297.825V79.4453H301.907ZM303.207 84.8916V75.3203H304.045V84.8916H303.207ZM308.288 76.0615C309.588 76.0669 310.528 77.1841 310.657 78.9727H312.8V75.3203H313.638V84.8916H312.8V79.6709H310.667C310.576 81.5454 309.62 82.7163 308.288 82.7109C306.875 82.7163 305.887 81.4272 305.893 79.3916C305.887 77.3613 306.875 76.0669 308.288 76.0615ZM306.698 79.3916C306.704 80.9438 307.348 81.9644 308.288 81.959C309.223 81.9644 309.878 80.9438 309.878 79.3916C309.878 77.8394 309.223 76.8188 308.288 76.8135C307.348 76.8188 306.704 77.8394 306.698 79.3916ZM21.6221 91.7285V93.1035H24.4043V91.7285H25.2422V95.8857H20.7949V91.7285H21.6221ZM21.6221 95.1982H24.4043V93.7588H21.6221V95.1982ZM21.7617 97.3896V96.7129H27.8525V99.0225H22.6104V100.075H28.207V100.763H21.7832V98.3779H27.0146V97.3896H21.7617ZM27.0146 96.2617V91.3203H27.8525V93.3936H29.292V94.1025H27.8525V96.2617H27.0146ZM32.7402 93.2217C32.7456 94.2798 33.4814 95.3486 34.7061 95.8105L34.2656 96.4551C33.3472 96.1006 32.6865 95.4185 32.3428 94.5967C31.9937 95.5044 31.3062 96.3154 30.3662 96.7236L29.9043 96.0684C31.1611 95.5205 31.9292 94.2852 31.9346 93.2217V91.9219H32.7402V93.2217ZM31.6445 99.1514C31.6338 98.0718 32.8584 97.438 34.8457 97.4434C36.8223 97.438 38.0522 98.0718 38.0576 99.1514C38.0522 100.22 36.8223 100.849 34.8457 100.849C32.8584 100.849 31.6338 100.22 31.6445 99.1514ZM32.4824 99.1514C32.4717 99.8013 33.3794 100.199 34.8457 100.193C36.2959 100.199 37.209 99.8013 37.2197 99.1514C37.209 98.4907 36.2959 98.0933 34.8457 98.0879C33.3794 98.0933 32.4717 98.4907 32.4824 99.1514ZM35.1357 96.9277V91.5137H35.9307V93.8984H37.1982V91.3311H38.0039V97.2285H37.1982V94.5967H35.9307V96.9277H35.1357ZM46.8662 91.3311V94.4785H48.3057V95.1875H46.8662V98.4854H46.0283V91.3311H46.8662ZM39.4219 93.1895V92.502H41.8496V91.3311H42.6875V92.502H45.1152V93.1895H39.4219ZM39.9697 95.499C39.9644 94.4141 40.8882 93.7158 42.2686 93.7158C43.6328 93.7158 44.5566 94.4141 44.5674 95.499C44.5566 96.5732 43.6328 97.2661 42.2686 97.2607C40.8882 97.2661 39.9644 96.5732 39.9697 95.499ZM40.7754 95.499C40.77 96.1704 41.3662 96.6055 42.2686 96.5947C43.1602 96.6055 43.7617 96.1704 43.7725 95.499C43.7617 94.8169 43.1602 94.3765 42.2686 94.3818C41.3662 94.3765 40.77 94.8169 40.7754 95.499ZM40.8936 100.666V97.916H41.7207V99.957H47.3066V100.666H40.8936ZM59.585 91.3311V97.0674H58.7363V95.7783H56.2012V95.0801H58.7363V93.791H56.2979C55.6694 95.3271 54.1978 96.439 52.1514 97.0459L51.7969 96.3799C54.1011 95.6978 55.5459 94.4033 55.7124 92.749H52.2803V92.04H56.6309C56.6309 92.416 56.5879 92.7759 56.5073 93.1143H58.7363V91.3311H59.585ZM53.2686 98.9902C53.2632 97.8516 54.5039 97.1641 56.459 97.1641C58.3926 97.1641 59.6387 97.8516 59.6387 98.9902C59.6387 100.134 58.3926 100.827 56.459 100.827C54.5039 100.827 53.2632 100.134 53.2686 98.9902ZM54.0957 98.9902C54.1011 99.71 55.0195 100.145 56.459 100.14C57.877 100.145 58.7954 99.71 58.8008 98.9902C58.7954 98.2705 57.877 97.8354 56.459 97.8408C55.0195 97.8354 54.1011 98.2705 54.0957 98.9902ZM69.9082 96.7988V97.5078H65.9229V100.87H65.0957V97.5078H61.1641V96.7988H69.9082ZM62.1523 93.8125C62.1577 92.5181 63.5059 91.7124 65.5146 91.707C67.5181 91.7124 68.877 92.5181 68.877 93.8125C68.877 95.0854 67.5181 95.8911 65.5146 95.8857C63.5059 95.8911 62.1577 95.0854 62.1523 93.8125ZM63.0225 93.8125C63.0117 94.6611 64.0269 95.209 65.5146 95.209C67.0024 95.209 68.0122 94.6611 68.0176 93.8125C68.0122 92.9478 67.0024 92.3945 65.5146 92.3945C64.0269 92.3945 63.0117 92.9478 63.0225 93.8125ZM78.4053 94.2207V94.8975H71.8633V91.6748H72.7012V94.2207H78.4053ZM70.6709 96.8848V96.1973H79.415V96.8848H70.6709ZM71.8096 100.634V97.8623H72.6475V99.9355H78.459V100.634H71.8096ZM91.1133 91.3203V100.87H90.3076V91.3203H91.1133ZM82.8311 98.3242C84.1631 97.5293 84.9419 95.7837 84.9365 94.0488V93.1465H83.0996V92.4482H87.5039V93.1465H85.7529V94.0488C85.7529 95.6978 86.4995 97.3467 87.8154 98.1094L87.2998 98.7324C86.3599 98.1685 85.6938 97.1372 85.3608 95.9233C85.0171 97.2393 84.3242 98.3618 83.3682 98.958L82.8311 98.3242ZM86.7734 95.4561V94.7686H88.3848V91.5566H89.1797V100.376H88.3848V95.4561H86.7734ZM95.582 91.9434C97.0806 91.9541 98.144 92.8564 98.1494 94.1885C98.144 95.3916 97.2739 96.2456 96.001 96.396V98.0234C96.9463 97.9751 97.9131 97.8945 98.8154 97.7549L98.8799 98.3779C96.6938 98.7861 94.3467 98.7915 92.6279 98.7969L92.5098 98.0879C93.2886 98.0879 94.1963 98.0879 95.1523 98.0557V96.396C93.874 96.2402 92.9985 95.3916 93.0039 94.1885C92.9985 92.8564 94.0728 91.9541 95.582 91.9434ZM93.8311 94.1885C93.8257 95.0747 94.5615 95.6978 95.582 95.6924C96.5918 95.6978 97.3276 95.0747 97.3223 94.1885C97.3276 93.2915 96.5918 92.6846 95.582 92.6846C94.5615 92.6846 93.8257 93.2915 93.8311 94.1885ZM99.4492 100.892V91.3203H100.287V100.892H99.4492ZM109.429 91.3203V93.8662H110.868V94.5859H109.429V97.0781H108.591V91.3203H109.429ZM101.984 93.0391V92.3408H104.412V91.2451H105.25V92.3408H107.678V93.0391H101.984ZM102.532 95.209C102.527 94.1885 103.445 93.5117 104.831 93.5117C106.201 93.5117 107.119 94.1885 107.13 95.209C107.119 96.2456 106.201 96.917 104.831 96.917C103.445 96.917 102.527 96.2456 102.532 95.209ZM103.338 95.209C103.333 95.8589 103.929 96.2617 104.831 96.2725C105.723 96.2617 106.324 95.8589 106.335 95.209C106.324 94.5859 105.723 94.167 104.831 94.167C103.929 94.167 103.333 94.5859 103.338 95.209ZM103.402 100.741V97.626H109.429V100.741H103.402ZM104.229 100.054H108.591V98.3027H104.229V100.054ZM113.854 97.0352C113.844 99.0654 113.296 100.752 112.308 102.191H111.491C112.216 101.123 112.893 98.9526 112.898 97.0352C112.893 95.123 112.216 92.9478 111.491 91.8896H112.308C113.296 93.3237 113.844 95.0103 113.854 97.0352ZM119.569 91.4922C121.691 91.4922 122.937 92.0776 122.942 93.1357C122.937 94.2207 121.691 94.8062 119.569 94.8115C117.437 94.8062 116.186 94.2207 116.186 93.1357C116.186 92.0776 117.437 91.4922 119.569 91.4922ZM115.219 96.1436V95.4561H123.92V96.1436H115.219ZM116.271 97.6152V96.9707H122.803V99.1084H117.131V100.097H123.093V100.763H116.293V98.4854H121.976V97.6152H116.271ZM117.066 93.1357C117.056 93.8018 117.985 94.167 119.569 94.167C121.154 94.167 122.078 93.8018 122.083 93.1357C122.078 92.5073 121.154 92.1313 119.569 92.126C117.985 92.1313 117.056 92.5073 117.066 93.1357ZM134.877 91.3203V95.2627H136.478V95.9609H134.877V100.87H134.039V91.3203H134.877ZM127.433 93.5547V92.8564H129.893V91.4385H130.73V92.8564H133.115V93.5547H127.433ZM127.98 96.541C127.975 95.252 128.963 94.3496 130.322 94.3496C131.67 94.3496 132.653 95.252 132.664 96.541C132.653 97.8354 131.67 98.7324 130.322 98.7324C128.963 98.7324 127.975 97.8354 127.98 96.541ZM128.786 96.541C128.781 97.4111 129.431 98.0234 130.322 98.0127C131.203 98.0234 131.848 97.4111 131.858 96.541C131.848 95.6763 131.203 95.0532 130.322 95.0586C129.431 95.0532 128.781 95.6763 128.786 96.541ZM145.168 91.3203V100.87H144.362V91.3203H145.168ZM137.004 98.1953C139.077 96.9653 140.119 95.2412 140.28 93.2432H137.412V92.5449H141.118C141.118 93.4849 140.968 94.3926 140.64 95.2412H142.354V91.5781H143.159V100.387H142.354V95.9287H140.329C139.754 97.0405 138.83 98.0234 137.498 98.8076L137.004 98.1953ZM154.814 93.8447V94.5107H152.892V95.4829C153.794 95.4399 154.702 95.3755 155.545 95.2734L155.588 95.8643C153.547 96.1812 151.243 96.2402 149.433 96.2402L149.314 95.5635C150.152 95.5635 151.087 95.5527 152.043 95.5151V94.5107H150.195V91.7393H154.707V92.3945H151.065V93.8447H154.814ZM150.808 97.583V96.9062H157.146V99.1191H151.667V100.075H157.489V100.763H150.829V98.4746H156.318V97.583H150.808ZM156.308 96.4766V91.3311H157.146V96.4766H156.308ZM169.445 91.3311V97.0674H168.597V95.7783H166.062V95.0801H168.597V93.791H166.158C165.53 95.3271 164.058 96.439 162.012 97.0459L161.657 96.3799C163.961 95.6978 165.406 94.4033 165.573 92.749H162.141V92.04H166.491C166.491 92.416 166.448 92.7759 166.368 93.1143H168.597V91.3311H169.445ZM163.129 98.9902C163.124 97.8516 164.364 97.1641 166.319 97.1641C168.253 97.1641 169.499 97.8516 169.499 98.9902C169.499 100.134 168.253 100.827 166.319 100.827C164.364 100.827 163.124 100.134 163.129 98.9902ZM163.956 98.9902C163.961 99.71 164.88 100.145 166.319 100.14C167.737 100.145 168.656 99.71 168.661 98.9902C168.656 98.2705 167.737 97.8354 166.319 97.8408C164.88 97.8354 163.961 98.2705 163.956 98.9902ZM179.769 96.7988V97.5078H175.783V100.87H174.956V97.5078H171.024V96.7988H179.769ZM172.013 93.8125C172.018 92.5181 173.366 91.7124 175.375 91.707C177.378 91.7124 178.737 92.5181 178.737 93.8125C178.737 95.0854 177.378 95.8911 175.375 95.8857C173.366 95.8911 172.018 95.0854 172.013 93.8125ZM172.883 93.8125C172.872 94.6611 173.887 95.209 175.375 95.209C176.863 95.209 177.873 94.6611 177.878 93.8125C177.873 92.9478 176.863 92.3945 175.375 92.3945C173.887 92.3945 172.872 92.9478 172.883 93.8125ZM181.552 100.064C181.176 100.059 180.854 99.7476 180.864 99.3662C180.854 98.9902 181.176 98.6787 181.552 98.6787C181.933 98.6787 182.245 98.9902 182.239 99.3662C182.245 99.7476 181.933 100.059 181.552 100.064Z" fill="#363B48"/>
</svg>
