<svg width="352" height="153" viewBox="0 0 352 153" fill="none" xmlns="http://www.w3.org/2000/svg">
<g filter="url(#filter0_d_582_3934)">
<rect x="8" y="8" width="328" height="129" rx="20" fill="white"/>
</g>
<path d="M315 67L321 73L315 79" stroke="#363B48" stroke-linecap="round" stroke-linejoin="round"/>
<path d="M48.369 45.7443V47.7239H32.5185V45.7443H36.0535V41.4888C34.7136 40.6808 33.9056 39.4485 33.9123 37.9201C33.9056 35.119 36.6528 33.2673 40.41 33.2673C44.1673 33.2673 46.9415 35.119 46.9415 37.9201C46.9415 39.4283 46.1537 40.6404 44.8474 41.4484V45.7443H48.369ZM36.3027 37.9201C36.3027 39.6236 37.9321 40.6673 40.41 40.674C42.8677 40.6673 44.5376 39.6236 44.5444 37.9201C44.5376 36.1828 42.8677 35.1728 40.41 35.1863C37.9321 35.1728 36.3027 36.1828 36.3027 37.9201ZM38.4574 45.7443H42.3897V42.3709C41.7702 42.4853 41.1103 42.5527 40.41 42.5527C39.7232 42.5527 39.0701 42.4921 38.4574 42.3709V45.7443ZM65.3634 34.5803V36.5532H63.1212V38.3375H65.3634V40.3374H63.1212V42.5527H60.6837V32.4121H63.1212V34.5803H65.3634ZM49.4927 37.5632C49.4792 35.0988 51.5329 33.3615 54.2398 33.3683C56.9264 33.3615 58.9599 35.0988 58.9734 37.5632C58.9599 40.0142 56.9264 41.7581 54.2398 41.7648C51.5329 41.7581 49.4792 40.0142 49.4927 37.5632ZM51.4993 46.3436C51.4925 44.1889 53.8156 42.9028 57.4314 42.9028C61.0069 42.9028 63.2828 44.1889 63.2828 46.3436C63.2828 48.4781 61.0069 49.7574 57.4314 49.7507C53.8156 49.7574 51.4925 48.4781 51.4993 46.3436ZM51.8696 37.5632C51.8561 38.9166 52.8796 39.7112 54.2398 39.7112C55.573 39.7112 56.5965 38.9166 56.6032 37.5632C56.5965 36.2367 55.5797 35.4018 54.2398 35.4085C52.8796 35.4018 51.8561 36.2367 51.8696 37.5632ZM53.93 46.3436C53.9233 47.3603 55.1622 47.8249 57.4314 47.8249C59.6871 47.8249 60.8857 47.3603 60.8857 46.3436C60.8857 45.3268 59.6871 44.8286 57.4314 44.8218C55.1622 44.8286 53.9233 45.3268 53.93 46.3436ZM75.0011 42.2833V44.135H82.2194V42.2833H84.6232V49.5622H72.6108V42.2833H75.0011ZM70.7187 41.1386V39.2061H81.876C82.2126 37.5228 82.2598 36.23 82.2732 35.0651H72.6579V33.1191H84.6973V34.5129C84.6973 35.826 84.6973 37.2333 84.2865 39.2061H86.5692V41.1386H70.7187ZM75.0011 47.596H82.2194V45.9867H75.0011V47.596ZM92.3457 33.6376C93.9011 33.6376 95.1939 34.4927 95.9885 35.9808H99.7861V32.4121H102.19V49.7978H99.7861V43.3001H96.1635C95.3959 45.0171 94.0223 46.0002 92.3457 46.0002C89.7129 46.0002 87.8343 43.6165 87.841 39.8054C87.8343 36.0347 89.7129 33.6376 92.3457 33.6376ZM90.1708 39.8054C90.1641 42.3978 91.0529 43.7983 92.3457 43.7983C93.652 43.7983 94.5206 42.3978 94.5273 39.8054C94.5206 37.24 93.652 35.8327 92.3457 35.8327C91.0529 35.8327 90.1641 37.24 90.1708 39.8054ZM96.6618 37.9403C96.7696 38.5126 96.8302 39.1388 96.8302 39.8054C96.8302 40.3508 96.7898 40.8693 96.7157 41.3541H99.7861V37.9403H96.6618ZM123.423 32.4391V45.0912H120.985V32.4391H123.423ZM108.852 40.8087C111.767 39.8324 113.026 37.4218 113.033 35.0584V33.3885H115.551V35.0584C115.538 37.3612 116.77 39.6034 119.618 40.5124L118.379 42.4247C116.42 41.7716 115.073 40.4788 114.306 38.8223C113.531 40.6067 112.144 42.0342 110.117 42.7277L108.852 40.8087ZM111.808 49.4544V43.8589H114.265V47.495H123.881V49.4544H111.808ZM135.643 34.2301V36.1424H132.155C132.175 37.9201 133.482 39.7246 136.269 40.4451L135.131 42.317C133.158 41.812 131.778 40.7212 130.984 39.3139C130.229 40.9164 128.842 42.1823 126.789 42.7681L125.651 40.8693C128.425 40.0748 129.711 38.1086 129.731 36.1424H126.243V34.2301H129.731V32.3515H132.182V34.2301H135.643ZM128.499 46.4446C128.492 44.364 130.775 43.1923 134.451 43.1923C138.141 43.1923 140.417 44.364 140.424 46.4446C140.417 48.5387 138.141 49.7574 134.451 49.7507C130.775 49.7574 128.492 48.5387 128.499 46.4446ZM130.916 46.4446C130.909 47.394 132.155 47.899 134.451 47.9057C136.795 47.899 138.007 47.394 138.013 46.4446C138.007 45.5154 136.795 45.044 134.451 45.0508C132.155 45.044 130.909 45.5154 130.916 46.4446ZM135.131 39.0176V37.0717H137.953V32.4121H140.377V42.9028H137.953V39.0176H135.131ZM160.788 32.4121V39.058H163.239V41.0646H160.788V49.717H158.357V32.4121H160.788ZM146.931 44.8622C151.024 42.8018 153.226 40.0411 153.684 36.1761H147.907V34.1897H156.162C156.149 39.3745 154.122 43.8589 148.297 46.7206L146.931 44.8622ZM178.476 32.4121V49.7978H176.018V32.4121H178.476ZM164.477 39.8054C164.47 36.0347 166.41 33.6376 169.063 33.6376C171.682 33.6376 173.621 36.0347 173.628 39.8054C173.621 43.6165 171.682 46.0002 169.063 46.0002C166.41 46.0002 164.47 43.6165 164.477 39.8054ZM166.827 39.8054C166.814 42.3978 167.716 43.7983 169.063 43.7983C170.382 43.7983 171.278 42.3978 171.278 39.8054C171.278 37.24 170.382 35.8327 169.063 35.8327C167.716 35.8327 166.814 37.24 166.827 39.8054ZM194.945 40.4451V42.3911H182.69V33.8665H194.824V35.8327H185.087V40.4451H194.945ZM180.825 47.6431V45.6433H196.676V47.6431H180.825Z" fill="#363B48"/>
<path d="M81.9102 83.1611H93.3182V103.125H107.103" stroke="#B2B2B2" stroke-width="2" stroke-linecap="round" stroke-linejoin="round"/>
<path d="M173.176 83.1611H161.768V103.125H147.983" stroke="#B2B2B2" stroke-width="2" stroke-linecap="round" stroke-linejoin="round"/>
<rect x="32" y="73.6543" width="56.0897" height="18.0628" rx="3" fill="#DEECFF"/>
<rect x="99.498" y="94.5693" width="56.0897" height="18.0628" rx="3" fill="#8AC9FE"/>
<rect x="166.996" y="73.6543" width="56.0897" height="18.0628" rx="3" fill="#7997C2"/>
<path d="M38.6543 80.3086H82.3852" stroke="white" stroke-width="2" stroke-linecap="round" stroke-linejoin="round"/>
<path d="M38.6543 85.5381H82.3852" stroke="white" stroke-width="2" stroke-linecap="round" stroke-linejoin="round"/>
<path d="M173.65 80.7842H217.381" stroke="white" stroke-width="2" stroke-linecap="round" stroke-linejoin="round"/>
<path d="M173.65 86.0127H217.381" stroke="white" stroke-width="2" stroke-linecap="round" stroke-linejoin="round"/>
<path d="M106.152 101.224H149.883" stroke="white" stroke-width="2" stroke-linecap="round" stroke-linejoin="round"/>
<path d="M106.152 106.452H149.883" stroke="white" stroke-width="2" stroke-linecap="round" stroke-linejoin="round"/>
<circle cx="227.839" cy="83.1614" r="15.4114" fill="#3FA3FF" stroke="#3FA3FF" stroke-width="1.5"/>
<path d="M221.033 84.0118L225.286 88.2649L235.493 77.207" stroke="white" stroke-width="3" stroke-linecap="round" stroke-linejoin="round"/>
<defs>
<filter id="filter0_d_582_3934" x="0" y="0" width="352" height="153" filterUnits="userSpaceOnUse" color-interpolation-filters="sRGB">
<feFlood flood-opacity="0" result="BackgroundImageFix"/>
<feColorMatrix in="SourceAlpha" type="matrix" values="0 0 0 0 0 0 0 0 0 0 0 0 0 0 0 0 0 0 127 0" result="hardAlpha"/>
<feMorphology radius="2" operator="dilate" in="SourceAlpha" result="effect1_dropShadow_582_3934"/>
<feOffset dx="4" dy="4"/>
<feGaussianBlur stdDeviation="5"/>
<feComposite in2="hardAlpha" operator="out"/>
<feColorMatrix type="matrix" values="0 0 0 0 0.617188 0 0 0 0 0.617188 0 0 0 0 0.617188 0 0 0 0.1 0"/>
<feBlend mode="normal" in2="BackgroundImageFix" result="effect1_dropShadow_582_3934"/>
<feBlend mode="normal" in="SourceGraphic" in2="effect1_dropShadow_582_3934" result="shape"/>
</filter>
</defs>
</svg>
