<svg width="28" height="28" viewBox="0 0 28 28" fill="none" xmlns="http://www.w3.org/2000/svg">
<g filter="url(#filter0_d_872_1361)">
<circle cx="13" cy="13" r="12" fill="#627391"/>
</g>
<path d="M11.8006 12.7628L11.135 14.6223C11.0794 14.7776 11.2251 14.9296 11.3826 14.8807L13.4152 14.2498C13.4412 14.2417 13.4652 14.2285 13.4858 14.2108L18.8475 9.63027C18.9317 9.55838 18.9414 9.43182 18.8693 9.34788L17.6314 7.90682C17.559 7.82257 17.4318 7.81343 17.3481 7.88648L11.8574 12.6795C11.8317 12.702 11.8121 12.7306 11.8006 12.7628Z" stroke="white" stroke-linejoin="round"/>
<path d="M12.875 9H9C8.44772 9 8 9.44772 8 10V17C8 17.5523 8.44772 18 9 18H16C16.5523 18 17 17.5523 17 17V14.8269" stroke="white" stroke-linecap="round"/>
<defs>
<filter id="filter0_d_872_1361" x="0" y="0" width="28" height="28" filterUnits="userSpaceOnUse" color-interpolation-filters="sRGB">
<feFlood flood-opacity="0" result="BackgroundImageFix"/>
<feColorMatrix in="SourceAlpha" type="matrix" values="0 0 0 0 0 0 0 0 0 0 0 0 0 0 0 0 0 0 127 0" result="hardAlpha"/>
<feOffset dx="1" dy="1"/>
<feGaussianBlur stdDeviation="1"/>
<feComposite in2="hardAlpha" operator="out"/>
<feColorMatrix type="matrix" values="0 0 0 0 0.625808 0 0 0 0 0.625808 0 0 0 0 0.625808 0 0 0 0.25 0"/>
<feBlend mode="normal" in2="BackgroundImageFix" result="effect1_dropShadow_872_1361"/>
<feBlend mode="normal" in="SourceGraphic" in2="effect1_dropShadow_872_1361" result="shape"/>
</filter>
</defs>
</svg>
