<svg width="9" height="15" viewBox="0 0 9 15" fill="none" xmlns="http://www.w3.org/2000/svg">
<mask id="mask0_281_2594" style="mask-type:luminance" maskUnits="userSpaceOnUse" x="0" y="0" width="9" height="15">
<path fill-rule="evenodd" clip-rule="evenodd" d="M1.78161 14.3696L8.42627 7.99018C8.80062 7.63131 8.80062 7.03221 8.42627 6.67186L1.78161 0.293959C1.3741 -0.0973374 0.730787 -0.0973375 0.32328 0.293959C-0.10781 0.708099 -0.10781 1.39784 0.32328 1.81272L5.88838 7.15527C5.98933 7.2518 5.98933 7.41171 5.88838 7.50825L0.323279 12.8508C-0.107811 13.2649 -0.107811 13.9547 0.323278 14.3696C0.5274 14.5641 0.789738 14.6621 1.05208 14.6621C1.31515 14.6621 1.57749 14.5641 1.78161 14.3696Z" fill="white"/>
</mask>
<g mask="url(#mask0_281_2594)">
<path fill-rule="evenodd" clip-rule="evenodd" d="M1.78161 14.3696L8.42627 7.99018C8.80062 7.63131 8.80062 7.03221 8.42627 6.67186L1.78161 0.293959C1.3741 -0.0973374 0.730787 -0.0973375 0.32328 0.293959C-0.10781 0.708099 -0.10781 1.39784 0.32328 1.81272L5.88838 7.15527C5.98933 7.2518 5.98933 7.41171 5.88838 7.50825L0.323279 12.8508C-0.107811 13.2649 -0.107811 13.9547 0.323278 14.3696C0.5274 14.5641 0.789738 14.6621 1.05208 14.6621C1.31515 14.6621 1.57749 14.5641 1.78161 14.3696Z" fill="#CDD1D8"/>
<path fill-rule="evenodd" clip-rule="evenodd" d="M1.78161 14.3696L8.42627 7.99018C8.80062 7.63131 8.80062 7.03221 8.42627 6.67186L1.78161 0.293959C1.3741 -0.0973374 0.730787 -0.0973375 0.32328 0.293959C-0.10781 0.708099 -0.10781 1.39784 0.32328 1.81272L5.88838 7.15527C5.98933 7.2518 5.98933 7.41171 5.88838 7.50825L0.323279 12.8508C-0.107811 13.2649 -0.107811 13.9547 0.323278 14.3696C0.5274 14.5641 0.789738 14.6621 1.05208 14.6621C1.31515 14.6621 1.57749 14.5641 1.78161 14.3696Z" fill="#CDD1D8"/>
</g>
</svg>
