<svg width="15" height="15" viewBox="0 0 15 15" fill="none" xmlns="http://www.w3.org/2000/svg">
<path fill-rule="evenodd" clip-rule="evenodd" d="M10.4796 9.36214C10.7904 9.67286 10.7925 10.1711 10.4818 10.4829C10.1743 10.7904 9.67393 10.7925 9.36214 10.4807L7.49893 8.61857L5.63679 10.4807C5.325 10.7904 4.82786 10.7925 4.51714 10.4829C4.20857 10.1732 4.2075 9.675 4.51929 9.36214L6.38143 7.5L4.51929 5.63786C4.21071 5.32821 4.2075 4.83 4.51714 4.51821C4.82571 4.20857 5.32393 4.2075 5.63679 4.51821L7.49893 6.38036L9.36214 4.51821C9.67179 4.20964 10.1721 4.2075 10.4818 4.51821C10.7904 4.82679 10.7925 5.32393 10.4796 5.63786L8.61857 7.5L10.4796 9.36214ZM7.5 0C3.35893 0 0 3.35893 0 7.5C0 11.6411 3.35893 15 7.5 15C11.6421 15 15 11.6411 15 7.5C15 3.35893 11.6421 0 7.5 0Z" fill="#CDD1D8"/>
</svg>
