<svg width="79" height="20" viewBox="0 0 79 20" fill="none" xmlns="http://www.w3.org/2000/svg">
<path d="M3.75506 18.8843L0 1.13281H3.65238L7.17569 18.8843H3.75506ZM6.12251 18.8843L9.51673 1.13281H12.7584L9.33778 18.8843H6.12251ZM15.0232 18.8843L11.6025 1.13281H14.9205L18.3939 18.8843H15.0232ZM17.3378 18.8843L20.7848 1.13281H24.361L20.6059 18.8843H17.3378Z" fill="#0C8CFF"/>
<path d="M27.5 3.62891C26.969 3.62891 26.5319 3.4617 26.1887 3.12726C25.8454 2.79283 25.6753 2.35277 25.6753 1.80125C25.6753 1.24973 25.8454 0.815547 26.1887 0.489913C26.5319 0.164279 26.969 0 27.5 0C28.031 0 28.4476 0.164279 28.7996 0.489913C29.1517 0.815547 29.3277 1.25266 29.3277 1.80125C29.3277 2.34984 29.1517 2.79283 28.7996 3.12726C28.4476 3.4617 28.0163 3.62891 27.5 3.62891ZM25.775 18.8838V5.24828H29.1957V18.8838H25.775Z" fill="#0C8CFF"/>
<path d="M30.894 8.10231V5.24788H39.7947V8.10231H30.894ZM37.3011 19.2179C35.8607 19.2179 34.7283 18.8101 33.904 17.9945C33.0796 17.179 32.6689 15.9674 32.6689 14.3539V2.41692L36.0631 1.74805V13.9168C36.0631 14.6385 36.2479 15.1783 36.6176 15.5362C36.9872 15.897 37.5065 16.0759 38.1753 16.0759C38.501 16.0759 38.8002 16.0466 39.076 15.985C39.3488 15.9234 39.6334 15.8618 39.9238 15.7914V18.8776C39.5277 18.9803 39.1258 19.0624 38.7151 19.1211C38.3044 19.1797 37.8321 19.212 37.3011 19.212V19.2179Z" fill="#0C8CFF"/>
<path d="M41.8279 18.8842V0.490234H45.2485V18.8842H41.8279ZM50.4469 18.8842V11.0132C50.4469 10.0011 50.1976 9.23835 49.7018 8.72497C49.2031 8.21158 48.587 7.95342 47.8506 7.95342C47.1143 7.95342 46.4953 8.21158 45.9995 8.72497C45.5008 9.23835 45.2544 10.004 45.2544 11.0132H44.5092C44.5092 9.72533 44.7116 8.62816 45.1136 7.72167C45.5155 6.81224 46.0729 6.11696 46.7857 5.63878C47.4986 5.15766 48.3259 4.9171 49.2676 4.9171C50.1594 4.9171 50.9515 5.13419 51.6468 5.57424C52.342 6.01135 52.8848 6.63035 53.2808 7.42536C53.6739 8.22331 53.8734 9.18848 53.8734 10.3209V18.8871H50.4528L50.4469 18.8842Z" fill="#0C8CFF"/>
<path d="M57.033 18.8843V1.13281H60.6091V18.8843H57.033Z" fill="#0C8CFF"/>
<path d="M64.0032 18.8843V1.13281H67.4003V18.8843H64.0032ZM73.3673 18.8843L65.9834 1.13281H69.6358L77.0197 18.8843H73.3673ZM75.6057 18.8843V1.13281H78.9999V18.8843H75.6057Z" fill="#0C8CFF"/>
</svg>
