<svg width="79" height="89" viewBox="0 0 79 89" fill="none" xmlns="http://www.w3.org/2000/svg">
<path d="M9.01851 18.037C13.9993 18.037 18.037 13.9993 18.037 9.01851C18.037 4.03772 13.9993 0 9.01851 0C4.03773 0 0 4.03772 0 9.01851C0 13.9993 4.03773 18.037 9.01851 18.037Z" fill="#00D6A3"/>
<path d="M22.2676 29.7551H22.2377C21.192 24.8473 18.0041 20.5059 12.7038 20.5059C7.94887 20.5059 3.88604 25.0151 5.02459 29.7551L18.3366 88.1926H35.7385L28.0772 57.0923L22.2736 29.7581L22.2676 29.7551Z" fill="#0C8CFF"/>
<path d="M71.4138 21.1914C66.6588 21.1914 62.9166 24.2745 61.6792 29.7545L55.7947 57.1546L49.5626 29.7545C48.6068 25.5479 47.7859 22.1592 41.9493 22.1592C36.6431 22.1592 35.2498 25.7396 34.369 29.7545L29.8777 49.2507L37.7337 79.8807L41.9673 62.2841L48.1993 88.1921H65.6012L78.9132 29.7545H78.8953C79.7342 25.9583 75.3747 21.1914 71.4168 21.1914H71.4138Z" fill="#0C8CFF"/>
</svg>
