<svg width="15" height="14" viewBox="0 0 15 14" fill="none" xmlns="http://www.w3.org/2000/svg">
<path d="M14 5.79889C13.9936 5.94638 13.9126 6.11482 13.7556 6.24784C13.1268 6.77993 12.4977 7.31153 11.8683 7.84262C11.5744 8.09104 11.2801 8.33907 10.9854 8.58672C10.9433 8.62197 10.9326 8.65323 10.9456 8.70794C11.1718 9.66027 11.3962 10.613 11.6187 11.5661C11.6638 11.7577 11.7081 11.9495 11.7568 12.1404C11.8277 12.4231 11.7371 12.7025 11.5084 12.8606C11.2568 13.0345 10.9896 13.0458 10.7236 12.8938C9.87632 12.4086 9.03015 11.9215 8.18507 11.4324C7.98778 11.3188 7.78808 11.2079 7.59407 11.0902C7.52917 11.0508 7.48205 11.0505 7.41542 11.089C6.38773 11.6833 5.35779 12.274 4.33131 12.8681C4.11331 12.9941 3.89065 13.0415 3.64969 12.9462C3.33089 12.8202 3.16432 12.4973 3.24355 12.1617C3.46759 11.2119 3.69198 10.2621 3.91671 9.31236C3.964 9.11282 4.00629 8.91179 4.05755 8.71376C4.0724 8.65656 4.06204 8.6228 4.01699 8.58506C3.63082 8.26148 3.24562 7.93679 2.8614 7.61099C2.32304 7.15572 1.78261 6.70361 1.24736 6.24501C1.02885 6.05811 0.945995 5.8195 1.03558 5.54664C1.12516 5.27378 1.32538 5.10949 1.62399 5.0799C2.1532 5.02768 2.68327 4.98395 3.213 4.93723C3.73703 4.891 4.26106 4.84511 4.78509 4.79955C4.95976 4.78442 5.13444 4.76746 5.30929 4.75465C5.36556 4.75066 5.39559 4.72689 5.41665 4.6775C5.89132 3.60301 6.36679 2.52896 6.84306 1.45535C6.97459 1.15854 7.2095 0.99276 7.50811 1.00024C7.80672 1.00773 8.02213 1.14823 8.14054 1.41245C8.46279 2.13127 8.78091 2.85176 9.1004 3.57191C9.26299 3.93773 9.42593 4.30454 9.58576 4.67201C9.61027 4.72855 9.64531 4.7505 9.70659 4.75515C10.1277 4.78952 10.5488 4.82554 10.9697 4.86323C11.5826 4.91689 12.1954 4.97098 12.8081 5.02552C13.0028 5.04215 13.1977 5.05878 13.3919 5.07973C13.745 5.11997 14.0027 5.40381 14 5.79889Z" stroke="#DEDEDE" stroke-linecap="round" stroke-linejoin="round"/>
</svg>
