<svg width="13" height="12" viewBox="0 0 13 12" fill="none" xmlns="http://www.w3.org/2000/svg">
<path d="M13 4.79889C12.9936 4.94638 12.9126 5.11482 12.7556 5.24784C12.1268 5.77993 11.4977 6.31153 10.8683 6.84262C10.5744 7.09104 10.2801 7.33907 9.98542 7.58672C9.94331 7.62197 9.93261 7.65323 9.94555 7.70794C10.1718 8.66027 10.3962 9.61299 10.6187 10.5661C10.6638 10.7577 10.7081 10.9495 10.7568 11.1404C10.8277 11.4231 10.7371 11.7025 10.5084 11.8606C10.2568 12.0345 9.98957 12.0458 9.72358 11.8938C8.87632 11.4086 8.03015 10.9215 7.18507 10.4324C6.98778 10.3188 6.78808 10.2079 6.59407 10.0902C6.52917 10.0508 6.48205 10.0505 6.41542 10.0891C5.38773 10.6833 4.35779 11.274 3.33131 11.8681C3.11331 11.9941 2.89065 12.0415 2.64969 11.9462C2.33089 11.8202 2.16432 11.4973 2.24355 11.1617C2.46759 10.2119 2.69198 9.26215 2.91671 8.31236C2.964 8.11283 3.00629 7.91179 3.05755 7.71376C3.0724 7.65656 3.06204 7.6228 3.01699 7.58506C2.63082 7.26148 2.24562 6.93679 1.8614 6.61099C1.32304 6.15572 0.782614 5.70361 0.247365 5.24501C0.0288459 5.05812 -0.0540047 4.8195 0.0355775 4.54664C0.12516 4.27378 0.325382 4.10949 0.62399 4.0799C1.1532 4.02768 1.68327 3.98395 2.213 3.93723C2.73703 3.891 3.26106 3.84511 3.78509 3.79955C3.95976 3.78442 4.13444 3.76746 4.30929 3.75465C4.36556 3.75066 4.39559 3.72689 4.41665 3.6775C4.89132 2.60301 5.36679 1.52896 5.84306 0.455348C5.97459 0.15854 6.2095 -0.00723977 6.50811 0.000242784C6.80672 0.00772534 7.02213 0.148231 7.14054 0.412448C7.46279 1.13127 7.7809 1.85176 8.1004 2.57191C8.26299 2.93773 8.42593 3.30454 8.58576 3.67201C8.61027 3.72855 8.64531 3.7505 8.70659 3.75515C9.12775 3.78952 9.54879 3.82555 9.96972 3.86323C10.5826 3.91689 11.1954 3.97098 11.8081 4.02552C12.0028 4.04215 12.1977 4.05878 12.3919 4.07973C12.745 4.11997 13.0027 4.40381 13 4.79889Z" fill="#434343"/>
</svg>
